<?xml version="1.0" encoding="UTF-8"?>
<svg width="16px" height="16px" viewBox="0 0 16 16" version="1.1" xmlns="http://www.w3.org/2000/svg" xmlns:xlink="http://www.w3.org/1999/xlink">
    <!-- Generator: Sketch 46.2 (44496) - http://www.bohemiancoding.com/sketch -->
    <title>apps-icon copy</title>
    <desc>Created with Sketch.</desc>
    <defs></defs>
    <g id="Page-1" stroke="none" stroke-width="1" fill="none" fill-rule="evenodd">
        <g id="L7" transform="translate(-1298.000000, -17.000000)" fill="#4D4E4C">
            <g id="Header">
                <path d="M1299,17 L1301,17 C1301.55228,17 1302,17.4477153 1302,18 L1302,20 C1302,20.5522847 1301.55228,21 1301,21 L1299,21 C1298.44772,21 1298,20.5522847 1298,20 L1298,18 L1298,18 C1298,17.4477153 1298.44772,17 1299,17 L1299,17 Z M1305,17 L1307,17 C1307.55228,17 1308,17.4477153 1308,18 L1308,20 C1308,20.5522847 1307.55228,21 1307,21 L1305,21 C1304.44772,21 1304,20.5522847 1304,20 L1304,18 L1304,18 C1304,17.4477153 1304.44772,17 1305,17 Z M1311,17 L1313,17 C1313.55228,17 1314,17.4477153 1314,18 L1314,20 C1314,20.5522847 1313.55228,21 1313,21 L1311,21 C1310.44772,21 1310,20.5522847 1310,20 L1310,18 L1310,18 C1310,17.4477153 1310.44772,17 1311,17 Z M1311,23 L1313,23 C1313.55228,23 1314,23.4477153 1314,24 L1314,26 C1314,26.5522847 1313.55228,27 1313,27 L1311,27 C1310.44772,27 1310,26.5522847 1310,26 L1310,24 C1310,23.4477153 1310.44772,23 1311,23 Z M1305,23 L1307,23 C1307.55228,23 1308,23.4477153 1308,24 L1308,26 C1308,26.5522847 1307.55228,27 1307,27 L1305,27 C1304.44772,27 1304,26.5522847 1304,26 L1304,24 C1304,23.4477153 1304.44772,23 1305,23 Z M1299,23 L1301,23 C1301.55228,23 1302,23.4477153 1302,24 L1302,26 C1302,26.5522847 1301.55228,27 1301,27 L1299,27 C1298.44772,27 1298,26.5522847 1298,26 L1298,24 C1298,23.4477153 1298.44772,23 1299,23 L1299,23 Z M1299,29 L1301,29 C1301.55228,29 1302,29.4477153 1302,30 L1302,32 C1302,32.5522847 1301.55228,33 1301,33 L1299,33 C1298.44772,33 1298,32.5522847 1298,32 L1298,30 C1298,29.4477153 1298.44772,29 1299,29 L1299,29 Z M1305,29 L1307,29 C1307.55228,29 1308,29.4477153 1308,30 L1308,32 C1308,32.5522847 1307.55228,33 1307,33 L1305,33 C1304.44772,33 1304,32.5522847 1304,32 L1304,30 C1304,29.4477153 1304.44772,29 1305,29 Z M1311,29 L1313,29 C1313.55228,29 1314,29.4477153 1314,30 L1314,32 C1314,32.5522847 1313.55228,33 1313,33 L1311,33 C1310.44772,33 1310,32.5522847 1310,32 L1310,30 C1310,29.4477153 1310.44772,29 1311,29 Z" id="apps-icon-copy"></path>
            </g>
        </g>
    </g>
</svg>