<?xml version="1.0" encoding="UTF-8"?>
<svg width="40px" height="44px" viewBox="0 0 40 44" version="1.1" xmlns="http://www.w3.org/2000/svg" xmlns:xlink="http://www.w3.org/1999/xlink">
    <!-- Generator: Sketch 46.2 (44496) - http://www.bohemiancoding.com/sketch -->
    <title>defaultAppIcon1 Copy</title>
    <desc>Created with Sketch.</desc>
    <defs></defs>
    <g id="Page-1" stroke="none" stroke-width="1" fill="none" fill-rule="evenodd">
        <g id="L7" transform="translate(-1191.000000, -380.000000)">
            <g id="defaultAppIcon1-Copy" transform="translate(1194.000000, 385.000000)">
                <polygon id="Polygon-3" stroke="#AB7EA6" stroke-width="10" fill="#AB7EA6" stroke-linecap="round" stroke-linejoin="round" points="17 0 31.7224319 8.5 31.7224319 25.5 17 34 2.27756814 25.5 2.27756814 8.5"></polygon>
                <path d="M19.6575627,13.3995947 C19.594583,13.3346592 19.4864747,13.380484 19.4864747,13.471928 L19.4864747,27.7700749 C19.4864747,27.7974054 19.4758444,27.8237084 19.4569906,27.8428191 L17.9831869,29.3449671 C17.9200066,29.4092861 17.8125,29.3634614 17.8125,29.2722228 L17.8125,8.35291192 C17.8125,8.26146789 17.9202072,8.21564313 17.9831869,8.28016768 L25.9081914,16.3792316 C25.9473029,16.4193025 25.9473029,16.4844436 25.9079908,16.5245145 L24.3611788,18.1031056 C24.3220673,18.1431766 24.2586865,18.1429711 24.2195749,18.1026946 L19.6575627,13.3995947 Z M17.8125,7.42143188 L17.8125,5.09628076 C17.8125,5.01075619 17.9176016,4.96780128 17.9790576,5.02828487 L29.9712047,16.802938 C30.0095658,16.8404995 30.0095658,16.9015609 29.9714004,16.9391224 L20.6476978,26.0968007 C20.5862418,26.1570916 20.4811402,26.1143294 20.4809445,26.0288048 L20.4774216,23.4037398 C20.4774216,23.378121 20.4877947,23.3536578 20.5061924,23.3355513 L27.1681049,16.7906101 C27.2062703,16.7530487 27.2062703,16.6921798 27.1681049,16.6544257 L17.8410751,7.48942777 C17.8226774,7.47132121 17.8125,7.4468581 17.8125,7.42143188 Z M9.78040241,18.1026946 C9.74129194,18.1429711 9.67791292,18.1431766 9.63860188,18.1031056 L8.09183285,16.5245145 C8.05272238,16.4844436 8.05272238,16.4193025 8.09183285,16.3792316 L16.0166173,8.28016768 C16.0797958,8.21564313 16.1875,8.26146789 16.1875,8.35291192 L16.1875,29.2722228 C16.1875,29.3634614 16.0797958,29.4092861 16.0168179,29.3449671 L14.5428545,27.8428191 C14.5240013,27.8237084 14.5133712,27.7974054 14.5133712,27.7700749 L14.5133712,13.471928 C14.5133712,13.380484 14.4050653,13.3346592 14.3420874,13.3995947 L9.78040241,18.1026946 Z M16.1875,7.42143188 C16.1875,7.4468581 16.177127,7.47132121 16.1587297,7.48942777 L6.83186839,16.6544257 C6.79370371,16.6921798 6.79370371,16.7530487 6.83186839,16.7906101 L13.4936605,23.3355513 C13.5120579,23.3536578 13.5224308,23.378121 13.5224308,23.4037398 L13.518908,26.0288048 C13.5187122,26.1143294 13.4138083,26.1570916 13.3521576,26.0968007 L4.02862351,16.9391224 C3.99045883,16.9015609 3.99045883,16.8404995 4.02862351,16.802938 L16.020554,5.02828487 C16.0822046,4.96780128 16.1875,5.01075619 16.1875,5.09628076 L16.1875,7.42143188 Z" id="Combined-Shape" fill="#554151"></path>
            </g>
        </g>
    </g>
</svg>