<?xml version="1.0" encoding="UTF-8"?>
<svg width="31px" height="31px" viewBox="0 0 31 31" version="1.1" xmlns="http://www.w3.org/2000/svg" xmlns:xlink="http://www.w3.org/1999/xlink">
    <!-- Generator: Sketch 46.2 (44496) - http://www.bohemiancoding.com/sketch -->
    <title>edit O</title>
    <desc>Created with Sketch.</desc>
    <defs></defs>
    <g id="Page-1" stroke="none" stroke-width="1" fill="none" fill-rule="evenodd">
        <g id="L7a" transform="translate(-562.000000, -314.000000)" fill="#4D4E4C">
            <path d="M585.635916,326.405541 L586.343022,325.698434 C586.733547,325.307909 586.733547,324.674744 586.343022,324.28422 L583.632446,321.573644 C583.241922,321.18312 582.608757,321.18312 582.218233,321.573644 L581.511126,322.280751 L580.568317,323.22356 L584.693107,327.34835 L585.635916,326.405541 Z M577.5,345 C568.939586,345 562,338.060414 562,329.5 C562,320.939586 568.939586,314 577.5,314 C586.060414,314 593,320.939586 593,329.5 C593,338.060414 586.060414,345 577.5,345 Z M579.979061,323.812816 L571.729482,332.062395 L573.85755,334.190463 L575.854272,336.187184 L584.103851,327.937605 L579.979061,323.812816 Z M570.845599,337.071068 L575.854272,336.187184 L571.729482,332.062395 L570.845599,337.071068 Z M571.687393,336.229274 L572.318738,332.65165 L575.265016,335.597929 L571.687393,336.229274 Z M571.687393,336.229274 L573.261547,335.951482 L571.965185,334.65512 L571.687393,336.229274 Z M579.684434,325.87521 C579.847152,326.037929 579.847152,326.301748 579.684434,326.464466 L574.381133,331.767767 C574.218414,331.930485 573.954596,331.930485 573.791877,331.767767 L573.791877,331.767767 C573.629159,331.605048 573.629159,331.34123 573.791877,331.178511 L579.095178,325.87521 C579.257896,325.712492 579.521715,325.712492 579.684434,325.87521 Z" id="edit-O"></path>
        </g>
    </g>
</svg>