<?xml version="1.0" encoding="utf-8"?>
<!-- Generator: Adobe Illustrator 22.1.0, SVG Export Plug-In . SVG Version: 6.00 Build 0)  -->
<svg version="1.1" id="Layer_1" xmlns="http://www.w3.org/2000/svg" xmlns:xlink="http://www.w3.org/1999/xlink" x="0px" y="0px"
	 viewBox="0 0 96 96" enable-background="new 0 0 96 96" xml:space="preserve">
<path display="none" fill="#8B6787" d="M6,48C6,24.8,24.8,6,48,6s42,18.8,42,42S71.2,90,48,90S6,71.2,6,48L6,48z"/>
<path fill="#AB7EA6" d="M24,25.4l-4.5-4.5h16.1V37L31,32.5c-8.6,9.4-7.9,23.9,1.4,32.5s23.9,7.9,32.5-1.4s7.9-23.9-1.4-32.5
	c-0.1-0.1-0.2-0.2-0.3-0.3l6.9-7.2c0.1,0.1,0.3,0.3,0.4,0.4c13.4,12.5,14,33.3,1.5,46.6S38.7,84.5,25.4,72S11.5,38.7,24,25.4z"/>
<rect x="44" y="12" fill="#AB7EA6" width="8" height="23"/>
</svg>
