<?xml version="1.0" encoding="UTF-8"?>
<svg width="74px" height="60px" viewBox="0 0 74 60" version="1.1" xmlns="http://www.w3.org/2000/svg" xmlns:xlink="http://www.w3.org/1999/xlink">
    <!-- Generator: Sketch 46.2 (44496) - http://www.bohemiancoding.com/sketch -->
    <title>server</title>
    <desc>Created with Sketch.</desc>
    <defs></defs>
    <g id="Page-1" stroke="none" stroke-width="1" fill="none" fill-rule="evenodd">
        <g id="L7" transform="translate(-650.000000, -145.000000)" fill="#AB7EA6">
            <g id="Group" transform="translate(124.000000, 90.000000)">
                <g id="2" transform="translate(320.000000, 0.000000)">
                    <g id="server" transform="translate(206.000000, 55.000000)">
                        <path d="M73.9575364,8.03857014 L74,8 L74,20.2941176 L73.9519656,20.2941176 C73.1454088,25.7104722 62.2823521,30 49,30 C35.7176479,30 24.8545912,25.7104722 24.0480344,20.2941176 L24,20.2941176 L24,8 L24.0424636,8.03857014 C24.0142849,8.23991005 24,8.4427936 24,8.64705882 C24,14.3648304 35.1928813,19 49,19 C62.8071187,19 74,14.3648304 74,8.64705882 C74,8.4427936 73.9857151,8.23991005 73.9575364,8.03857014 Z" id="Combined-Shape"></path>
                        <path d="M73.9575364,23.0385701 L74,23 L74,35.2941176 L73.9519656,35.2941176 C73.1454088,40.7104722 62.2823521,45 49,45 C35.7176479,45 24.8545912,40.7104722 24.0480344,35.2941176 L24,35.2941176 L24,23 L24.0424636,23.0385701 C24.0142849,23.23991 24,23.4427936 24,23.6470588 C24,29.3648304 35.1928813,34 49,34 C62.8071187,34 74,29.3648304 74,23.6470588 C74,23.4427936 73.9857151,23.23991 73.9575364,23.0385701 Z" id="Combined-Shape-Copy"></path>
                        <path d="M73.9575364,38.0385701 L74,38 L74,50.2941176 L73.9519656,50.2941176 C73.1454088,55.7104722 62.2823521,60 49,60 C35.7176479,60 24.8545912,55.7104722 24.0480344,50.2941176 L24,50.2941176 L24,38 L24.0424636,38.0385701 C24.0142849,38.23991 24,38.4427936 24,38.6470588 C24,44.3648304 35.1928813,49 49,49 C62.8071187,49 74,44.3648304 74,38.6470588 C74,38.4427936 73.9857151,38.23991 73.9575364,38.0385701 Z" id="Combined-Shape-Copy-2"></path>
                        <path d="M49,20 C35.1928813,20 24,15.5228475 24,10 C24,4.4771525 35.1928813,0 49,0 C62.8071187,0 74,4.4771525 74,10 C74,15.5228475 62.8071187,20 49,20 Z M49,17.5 C61.2729944,17.5 71.2222222,14.1421356 71.2222222,10 C71.2222222,5.85786438 61.2729944,2.5 49,2.5 C36.7270056,2.5 26.7777778,5.85786438 26.7777778,10 C26.7777778,14.1421356 36.7270056,17.5 49,17.5 Z" id="Combined-Shape"></path>
                        <path d="M14,51 L14,60 L6,60 L6,51 L0,51 L10,31 L20,51 L14,51 Z" id="Combined-Shape"></path>
                    </g>
                </g>
            </g>
        </g>
    </g>
</svg>