<?xml version="1.0" encoding="UTF-8"?>
<svg width="1440px" height="1014px" viewBox="0 0 1440 1014" version="1.1" xmlns="http://www.w3.org/2000/svg" xmlns:xlink="http://www.w3.org/1999/xlink">
    <!-- Generator: Sketch 46.2 (44496) - http://www.bohemiancoding.com/sketch -->
    <title>ThemeChristmass</title>
    <desc>Created with Sketch.</desc>
    <defs></defs>
    <g id="Page-1" stroke="none" stroke-width="1" fill="none" fill-rule="evenodd">
        <g id="loading4" transform="translate(0.000000, -10.000000)">
            <g id="ThemeChristmass" transform="translate(0.000000, 10.000000)">
                <path d="M144.980392,830.911285 L144.980392,858 L122.627451,858 L122.627451,836.614866 C102.865809,842.503295 86.9052284,849.593418 76.3497616,855.632892 L100.768634,762.85232 C93.8094187,767.344516 81.838549,772.114077 74.9396863,776.593606 C82.4405882,756.351528 94.8327547,730.563976 105.216441,711.334486 C98.1760096,714.204604 90.770593,716.321478 83.8560832,719.443439 C91.3145145,703.698027 107.043649,664.047521 108.369179,659.816854 C103.198198,662.126658 95.3518426,671.111716 90.2076858,673.294853 C100.114509,647.965246 120.45823,617.673843 128.918818,592 C134.352818,618.651412 148.188446,641.173991 162.781191,663.903206 C159.449858,663.502344 148.741246,660.299677 145.447168,659.816854 C147.732383,662.920187 172.538018,696.102675 182.962684,708.71793 C178.422802,707.986244 162.509482,705.487233 157.927874,704.844213 C170.723442,721.970292 180.463172,754.268605 192.434662,771.94233 C184.456152,769.674252 180.393628,763.206518 172.34955,761.135145 C174.253275,763.893498 178.57933,804.385917 201.165686,824.515093 C181.017817,824.793458 162.048126,827.264288 144.980392,830.911285 Z" id="pine2" fill="#554151"></path>
                <path d="M262,809.2265 L262,840 L232,840 L232,809.555002 C199.120958,810.559881 168.408761,813.844492 156,820.944357 L189.315,703.215357 C179.975,709.244357 170.753,715.413357 161.494,721.425357 C171.561,694.258357 182.219,667.759357 196.155,641.951357 C186.706,645.803357 177.278,649.699357 167.998,653.889357 C178.008,632.757357 211.084898,579.695357 212.863898,574.017357 C205.923898,577.117357 196.219,580.794249 189.315,583.724249 C202.611,549.729249 229.088677,517.457 240.443677,483 C247.736677,518.769 266.305546,548.996672 285.890546,579.501672 C281.419546,578.963672 267.047462,574.665357 262.626462,574.017357 C265.693462,578.182357 298.985234,622.716748 312.976234,639.647748 C306.883234,638.665748 294.120429,634.16928 287.971429,633.30628 C305.144429,656.29128 316.277601,693.606453 332.344601,717.326453 C321.636601,714.282453 315.431598,705.995357 304.635598,703.215357 C307.190598,706.917357 325.277627,780.696482 338.999627,814.679482 C331.806088,812.023491 298.603827,809.488748 262,809.2265 Z" id="pine" fill="#8B6787"></path>
                <path d="M1151.4705,836.933166 L1151.4705,858 L1134.08667,858 L1134.08667,841.368827 C1118.71809,845.948246 1106.30558,851.462219 1098.09661,856.159105 L1117.08712,784.003856 C1111.67495,787.497427 1102.36523,791.206704 1097,794.690424 C1102.83344,778.948204 1112.4708,758.893281 1120.54617,743.938548 C1115.07084,746.170632 1109.31166,747.816921 1103.93426,750.244863 C1109.73467,737.99969 1121.96718,707.163578 1122.99804,703.873398 C1118.97658,705.669727 1112.87449,712.657387 1108.87389,714.355208 C1116.57841,694.656427 1123.40756,677.642981 1129.98734,657.676488 C1134.21335,678.403234 1153.9654,689.374883 1165.31415,707.051345 C1162.72338,706.739595 1154.39531,704.248888 1151.83352,703.873398 C1153.61072,706.286853 1172.90201,732.092802 1181.00925,741.903658 C1177.47859,741.334627 1165.10284,739.391152 1161.53973,738.891077 C1171.49082,752.209991 1179.06539,777.328319 1188.37559,791.073137 C1182.17072,789.309258 1179.0113,784.279315 1172.75544,782.668413 C1174.23596,784.813578 1177.60033,816.304444 1195.16569,831.958861 C1179.49673,832.175345 1164.74404,834.096904 1151.4705,836.933166 Z" id="pine2-copy" fill="#554151"></path>
                <path d="M1364.98039,850.911285 L1364.98039,878 L1342.62745,878 L1342.62745,856.614866 C1322.86581,862.503295 1306.90523,869.593418 1296.34976,875.632892 L1320.76863,782.85232 C1313.80942,787.344516 1301.83855,792.114077 1294.93969,796.593606 C1302.44059,776.351528 1314.83275,750.563976 1325.21644,731.334486 C1318.17601,734.204604 1310.77059,736.321478 1303.85608,739.443439 C1311.31451,723.698027 1327.04365,684.047521 1328.36918,679.816854 C1323.1982,682.126658 1315.35184,691.111716 1310.20769,693.294853 C1320.11451,667.965246 1340.45823,637.673843 1348.91882,612 C1354.35282,638.651412 1368.18845,661.173991 1382.78119,683.903206 C1379.44986,683.502344 1368.74125,680.299677 1365.44717,679.816854 C1367.73238,682.920187 1392.53802,716.102675 1402.96268,728.71793 C1398.4228,727.986244 1382.50948,725.487233 1377.92787,724.844213 C1390.72344,741.970292 1400.46317,774.268605 1412.43466,791.94233 C1404.45615,789.674252 1400.39363,783.206518 1392.34955,781.135145 C1394.25328,783.893498 1398.57933,824.385917 1421.16569,844.515093 C1401.01782,844.793458 1382.04813,847.264288 1364.98039,850.911285 Z" id="pine2-copy-2" fill="#554151" transform="translate(1358.052686, 745.000000) scale(-1, 1) translate(-1358.052686, -745.000000) "></path>
                <path d="M1252,842.2265 L1252,873 L1222,873 L1222,842.555002 C1189.12096,843.559881 1158.40876,846.844492 1146,853.944357 L1179.315,736.215357 C1169.975,742.244357 1160.753,748.413357 1151.494,754.425357 C1161.561,727.258357 1172.219,700.759357 1186.155,674.951357 C1176.706,678.803357 1167.278,682.699357 1157.998,686.889357 C1168.008,665.757357 1201.0849,612.695357 1202.8639,607.017357 C1195.9239,610.117357 1186.219,613.794249 1179.315,616.724249 C1192.611,582.729249 1219.08868,550.457 1230.44368,516 C1237.73668,551.769 1256.30555,581.996672 1275.89055,612.501672 C1271.41955,611.963672 1257.04746,607.665357 1252.62646,607.017357 C1255.69346,611.182357 1288.98523,655.716748 1302.97623,672.647748 C1296.88323,671.665748 1284.12043,667.16928 1277.97143,666.30628 C1295.14443,689.29128 1306.2776,726.606453 1322.3446,750.326453 C1311.6366,747.282453 1305.4316,738.995357 1294.6356,736.215357 C1297.1906,739.917357 1315.27763,813.696482 1328.99963,847.679482 C1321.80609,845.023491 1288.60383,842.488748 1252,842.2265 Z" id="pine-copy" fill="#8B6787"></path>
                <path d="M389.841835,825.977659 L389.841835,841 L377.445768,841 L377.445768,829.140641 C366.486735,832.406134 357.635621,836.338039 351.781973,839.687294 L365.323724,788.23482 C361.464415,790.726016 354.825839,793.371028 351,795.855199 C355.159707,784.629735 362.031917,770.328968 367.790303,759.665045 C363.885956,761.2567 359.779201,762.430636 355.944685,764.161953 C360.080839,755.430164 368.803602,733.441544 369.538688,731.095382 C366.671065,732.376309 362.319783,737.359071 359.467035,738.569753 C364.960972,724.522944 376.242803,707.724518 380.934714,693.486809 C383.948198,708.266639 391.620896,720.75678 399.713461,733.361513 C397.866034,733.139211 391.927457,731.363137 390.10069,731.095382 C391.367981,732.816369 405.124215,751.218079 410.905328,758.214006 C408.387687,757.808241 399.562782,756.422387 397.022001,756.065794 C404.117923,765.563247 409.519196,783.474627 416.158116,793.275784 C411.733547,792.017996 409.48063,788.431244 405.019698,787.282542 C406.07543,788.812217 408.474491,811.267728 421,822.430581 C409.82678,822.584951 399.306932,823.955177 389.841835,825.977659 Z" id="pine2-copy-3" fill="#554151" transform="translate(386.000000, 767.243404) scale(-1, 1) translate(-386.000000, -767.243404) "></path>
                <path d="M0,907.222973 C71.4772513,850.262621 167.64757,821.782445 288.510955,821.782445 C469.806033,821.782445 560.41439,927.000551 720,927.000551 C879.58561,927.000551 1005.28748,853.930024 1214.55639,852.518758 C1334.69214,854.877724 1409.84001,874.491991 1440,911.361561 L1440,1014 L0,1014 L0,907.222973 Z" id="ground" fill="#554151"></path>
                <circle id="Oval" fill="#FFFFFF" cx="104.5" cy="42.5" r="12.5"></circle>
                <circle id="Oval-Copy" fill="#FFFFFF" cx="404.5" cy="172.5" r="12.5"></circle>
                <circle id="Oval-Copy-2" fill="#FFFFFF" cx="344.5" cy="442.5" r="12.5"></circle>
                <circle id="Oval-Copy-13" fill="#FFFFFF" cx="84.5" cy="342.5" r="12.5"></circle>
                <circle id="Oval-Copy-63" fill="#FFFFFF" cx="104.5" cy="512.5" r="12.5"></circle>
                <circle id="Oval-Copy-64" fill="#FFFFFF" cx="224.5" cy="642.5" r="12.5"></circle>
                <circle id="Oval-Copy-65" fill="#FFFFFF" cx="114.5" cy="802.5" r="12.5"></circle>
                <circle id="Oval-Copy-66" fill="#FFFFFF" cx="14.5" cy="682.5" r="12.5"></circle>
                <circle id="Oval-Copy-67" fill="#FFFFFF" cx="54.5" cy="182.5" r="12.5"></circle>
                <circle id="Oval-Copy-68" fill="#FFFFFF" cx="274.5" cy="252.5" r="12.5"></circle>
                <circle id="Oval-Copy-69" fill="#FFFFFF" cx="364.5" cy="12.5" r="12.5"></circle>
                <circle id="Oval-Copy-37" fill="#FFFFFF" cx="167" cy="435" r="5"></circle>
                <circle id="Oval-Copy-38" fill="#FFFFFF" cx="267" cy="305" r="5"></circle>
                <circle id="Oval-Copy-39" fill="#FFFFFF" cx="277" cy="95" r="5"></circle>
                <circle id="Oval-Copy-40" fill="#FFFFFF" cx="57" cy="95" r="5"></circle>
                <circle id="Oval-Copy-41" fill="#FFFFFF" cx="567" cy="95" r="5"></circle>
                <circle id="Oval-Copy-42" fill="#FFFFFF" cx="707" cy="15" r="5"></circle>
                <circle id="Oval-Copy-43" fill="#FFFFFF" cx="967" cy="55" r="5"></circle>
                <circle id="Oval-Copy-44" fill="#FFFFFF" cx="1157" cy="85" r="5"></circle>
                <circle id="Oval-Copy-45" fill="#FFFFFF" cx="1317" cy="115" r="5"></circle>
                <circle id="Oval-Copy-46" fill="#FFFFFF" cx="1187" cy="265" r="5"></circle>
                <circle id="Oval-Copy-47" fill="#FFFFFF" cx="1247" cy="385" r="5"></circle>
                <circle id="Oval-Copy-48" fill="#FFFFFF" cx="1287" cy="515" r="5"></circle>
                <circle id="Oval-Copy-49" fill="#FFFFFF" cx="1247" cy="585" r="5"></circle>
                <circle id="Oval-Copy-50" fill="#FFFFFF" cx="1347" cy="705" r="5"></circle>
                <circle id="Oval-Copy-51" fill="#FFFFFF" cx="1137" cy="805" r="5"></circle>
                <circle id="Oval-Copy-52" fill="#FFFFFF" cx="997" cy="825" r="5"></circle>
                <circle id="Oval-Copy-53" fill="#FFFFFF" cx="827" cy="805" r="5"></circle>
                <circle id="Oval-Copy-54" fill="#FFFFFF" cx="607" cy="805" r="5"></circle>
                <circle id="Oval-Copy-55" fill="#FFFFFF" cx="687" cy="595" r="5"></circle>
                <circle id="Oval-Copy-56" fill="#FFFFFF" cx="747" cy="505" r="5"></circle>
                <circle id="Oval-Copy-57" fill="#FFFFFF" cx="467" cy="655" r="5"></circle>
                <circle id="Oval-Copy-58" fill="#FFFFFF" cx="387" cy="735" r="5"></circle>
                <circle id="Oval-Copy-59" fill="#FFFFFF" cx="297" cy="765" r="5"></circle>
                <circle id="Oval-Copy-60" fill="#FFFFFF" cx="237" cy="525" r="5"></circle>
                <circle id="Oval-Copy-61" fill="#FFFFFF" cx="127" cy="735" r="5"></circle>
                <circle id="Oval-Copy-62" fill="#FFFFFF" cx="27" cy="825" r="5"></circle>
                <circle id="Oval-Copy-14" fill="#FFFFFF" cx="169.5" cy="197.5" r="7.5"></circle>
                <circle id="Oval-Copy-15" fill="#FFFFFF" cx="389.5" cy="257.5" r="7.5"></circle>
                <circle id="Oval-Copy-16" fill="#FFFFFF" cx="509.5" cy="57.5" r="7.5"></circle>
                <circle id="Oval-Copy-17" fill="#FFFFFF" cx="659.5" cy="217.5" r="7.5"></circle>
                <circle id="Oval-Copy-18" fill="#FFFFFF" cx="589.5" cy="407.5" r="7.5"></circle>
                <circle id="Oval-Copy-19" fill="#FFFFFF" cx="499.5" cy="537.5" r="7.5"></circle>
                <circle id="Oval-Copy-33" fill="#FFFFFF" cx="569.5" cy="717.5" r="7.5"></circle>
                <circle id="Oval-Copy-34" fill="#FFFFFF" cx="659.5" cy="887.5" r="7.5"></circle>
                <circle id="Oval-Copy-35" fill="#FFFFFF" cx="459.5" cy="807.5" r="7.5"></circle>
                <circle id="Oval-Copy-20" fill="#FFFFFF" cx="349.5" cy="687.5" r="7.5"></circle>
                <circle id="Oval-Copy-21" fill="#FFFFFF" cx="139.5" cy="646.5" r="7.5"></circle>
                <circle id="Oval-Copy-22" fill="#FFFFFF" cx="19.5" cy="526.5" r="7.5"></circle>
                <circle id="Oval-Copy-23" fill="#FFFFFF" cx="329.5" cy="496.5" r="7.5"></circle>
                <circle id="Oval-Copy-24" fill="#FFFFFF" cx="899.5" cy="486.5" r="7.5"></circle>
                <circle id="Oval-Copy-25" fill="#FFFFFF" cx="989.5" cy="366.5" r="7.5"></circle>
                <circle id="Oval-Copy-26" fill="#FFFFFF" cx="939.5" cy="156.5" r="7.5"></circle>
                <circle id="Oval-Copy-27" fill="#FFFFFF" cx="1189.5" cy="46.5" r="7.5"></circle>
                <circle id="Oval-Copy-28" fill="#FFFFFF" cx="1339.5" cy="196.5" r="7.5"></circle>
                <circle id="Oval-Copy-29" fill="#FFFFFF" cx="1229.5" cy="326.5" r="7.5"></circle>
                <circle id="Oval-Copy-30" fill="#FFFFFF" cx="1179.5" cy="526.5" r="7.5"></circle>
                <circle id="Oval-Copy-31" fill="#FFFFFF" cx="1019.5" cy="706.5" r="7.5"></circle>
                <circle id="Oval-Copy-32" fill="#FFFFFF" cx="1219.5" cy="746.5" r="7.5"></circle>
                <circle id="Oval-Copy-3" fill="#FFFFFF" cx="604.5" cy="552.5" r="12.5"></circle>
                <circle id="Oval-Copy-4" fill="#FFFFFF" cx="764.5" cy="712.5" r="12.5"></circle>
                <circle id="Oval-Copy-5" fill="#FFFFFF" cx="914.5" cy="862.5" r="12.5"></circle>
                <circle id="Oval-Copy-6" fill="#FFFFFF" cx="724.5" cy="912.5" r="12.5"></circle>
                <circle id="Oval-Copy-36" fill="#FFFFFF" cx="974.5" cy="742.5" r="12.5"></circle>
                <circle id="Oval-Copy-12" fill="#FFFFFF" cx="771.5" cy="58.5" r="12.5"></circle>
                <circle id="Oval-Copy-11" fill="#FFFFFF" cx="1041.5" cy="168.5" r="12.5"></circle>
                <circle id="Oval-Copy-70" fill="#FFFFFF" cx="1161.5" cy="308.5" r="12.5"></circle>
                <circle id="Oval-Copy-71" fill="#FFFFFF" cx="1261.5" cy="148.5" r="12.5"></circle>
                <circle id="Oval-Copy-72" fill="#FFFFFF" cx="1391.5" cy="18.5" r="12.5"></circle>
                <circle id="Oval-Copy-73" fill="#FFFFFF" cx="1391.5" cy="318.5" r="12.5"></circle>
                <circle id="Oval-Copy-74" fill="#FFFFFF" cx="1271.5" cy="638.5" r="12.5"></circle>
                <circle id="Oval-Copy-75" fill="#FFFFFF" cx="1261.5" cy="818.5" r="12.5"></circle>
                <circle id="Oval-Copy-10" fill="#FFFFFF" cx="1041.5" cy="408.5" r="12.5"></circle>
                <circle id="Oval-Copy-76" fill="#FFFFFF" cx="841.5" cy="358.5" r="12.5"></circle>
                <circle id="Oval-Copy-77" fill="#FFFFFF" cx="681.5" cy="388.5" r="12.5"></circle>
                <circle id="Oval-Copy-78" fill="#FFFFFF" cx="531.5" cy="288.5" r="12.5"></circle>
                <circle id="Oval-Copy-79" fill="#FFFFFF" cx="531.5" cy="798.5" r="12.5"></circle>
                <circle id="Oval-Copy-9" fill="#FFFFFF" cx="1371.5" cy="468.5" r="12.5"></circle>
                <circle id="Oval-Copy-8" fill="#FFFFFF" cx="1421.5" cy="718.5" r="12.5"></circle>
                <circle id="Oval-Copy-7" fill="#FFFFFF" cx="1421.5" cy="717.5" r="12.5"></circle>
            </g>
        </g>
    </g>
</svg>