<?xml version="1.0" encoding="UTF-8"?>
<svg width="34px" height="34px" viewBox="0 0 34 34" version="1.1" xmlns="http://www.w3.org/2000/svg" xmlns:xlink="http://www.w3.org/1999/xlink">
    <!-- Generator: Sketch 46.2 (44496) - http://www.bohemiancoding.com/sketch -->
    <title>Combined Shape Copy 4</title>
    <desc>Created with Sketch.</desc>
    <defs></defs>
    <g id="Page-1" stroke="none" stroke-width="1" fill="none" fill-rule="evenodd">
        <g id="L7a" transform="translate(-18.000000, -920.000000)" fill="#AB7EA6">
            <g id="Sidebar">
                <path d="M38.069254,927.936818 C38.0688758,927.875044 38.0627416,927.812419 38.0504295,927.749573 L38.0504295,927.749573 L37.6700111,925.807747 C37.578083,925.338505 37.1668277,925 36.6886657,925 L33.2943631,925 C32.8137714,925 32.4011464,925.341872 32.3117972,925.814085 L32.3117972,925.814085 L31.9443775,927.755911 C31.9327802,927.817203 31.9269434,927.879446 31.9269434,927.941826 C31.9269434,927.956132 31.9272438,927.970367 31.9278386,927.984527 L31.6651548,928.455342 L29.4486727,929.726301 L28.6378561,929.693614 C28.5931316,929.670184 28.5460607,929.64985 28.4968221,929.632977 L26.6249427,928.991516 C26.172603,928.836507 25.6738216,929.023412 25.4347406,929.437513 L23.7375893,932.377065 C23.4972934,932.79327 23.5870509,933.32155 23.9513248,933.635035 L25.4492852,934.924142 C25.4965671,934.964832 25.5475526,935.001008 25.6015751,935.032198 C25.6108068,935.037528 25.6200881,935.042694 25.6294158,935.047697 L26.0551521,935.723525 L26.0551521,938.066789 L25.6755419,938.706318 L25.6832817,938.720477 C25.5796827,938.763093 25.4815357,938.823975 25.3936226,938.903367 L25.3936226,938.903367 L23.9250832,940.229563 C23.5702107,940.550038 23.4918675,941.076896 23.7381391,941.48676 L25.4863342,944.396246 C25.7338572,944.808193 26.2394165,944.985805 26.6902002,944.819184 L26.6902002,944.819184 L28.5439048,944.13401 C28.5974213,944.114229 28.6491376,944.089908 28.6984897,944.061317 L29.4486727,944.061317 L31.6651548,945.368434 L31.9271309,945.843143 C31.9270061,945.849649 31.9269434,945.85617 31.9269434,945.862705 C31.9269434,945.925085 31.9327802,945.987328 31.9443775,946.04862 L32.3117972,947.990446 C32.4011464,948.462659 32.8137714,948.804531 33.2943631,948.804531 L36.6886657,948.804531 C37.1668277,948.804531 37.578083,948.466026 37.6700111,947.996784 L38.0504295,946.054958 C38.0629439,945.991079 38.0690757,945.92743 38.069268,945.864669 L38.3827444,945.368434 L40.5616041,944.093853 L41.3309388,944.093853 C41.3848183,944.124578 41.4423436,944.150707 41.5031779,944.171554 L43.3750573,944.813015 C43.827397,944.968024 44.3261784,944.781119 44.5652594,944.367018 L46.2624107,941.427466 C46.5027066,941.011261 46.4129491,940.482981 46.0486752,940.169496 L46.0486752,940.169496 L44.5507148,938.880389 C44.5034329,938.839699 44.4524474,938.803523 44.3984249,938.772333 C44.3907737,938.767915 44.3830883,938.763611 44.3753707,938.759418 L44.3762795,938.757803 L43.9955664,938.066789 L43.9955664,935.723525 L44.3762795,935.078106 L44.3675219,935.061472 C44.4524201,935.020848 44.5329667,934.96746 44.6063774,934.901164 L46.0749168,933.574968 C46.4297893,933.254493 46.5081325,932.727635 46.2618609,932.317771 L44.5136658,929.408285 C44.2661428,928.996338 43.7605835,928.818726 43.3097998,928.985347 L43.3097998,928.985347 L41.4560952,929.670521 C41.4340384,929.678673 41.4122874,929.687597 41.3908817,929.697274 L40.5338762,929.726301 L38.5049282,928.580461 L38.0695853,927.936818 Z M35,954 C25.6111593,954 18,946.388841 18,937 C18,927.611159 25.6111593,920 35,920 C44.3888407,920 52,927.611159 52,937 C52,946.388841 44.3888407,954 35,954 Z M35,943 C31.6862915,943 29,940.313708 29,937 C29,933.686292 31.6862915,931 35,931 C38.3137085,931 41,933.686292 41,937 C41,940.313708 38.3137085,943 35,943 Z M35,941 C37.209139,941 39,939.209139 39,937 C39,934.790861 37.209139,933 35,933 C32.790861,933 31,934.790861 31,937 C31,939.209139 32.790861,941 35,941 Z" id="Combined-Shape-Copy-4"></path>
            </g>
        </g>
    </g>
</svg>