<?xml version="1.0" encoding="UTF-8"?>
<svg width="78px" height="58px" viewBox="0 0 78 58" version="1.1" xmlns="http://www.w3.org/2000/svg" xmlns:xlink="http://www.w3.org/1999/xlink">
    <!-- Generator: Sketch 46.2 (44496) - http://www.bohemiancoding.com/sketch -->
    <title>boxes copy</title>
    <desc>Created with Sketch.</desc>
    <defs>
        <rect id="path-1" x="0" y="40" width="18" height="18" rx="2"></rect>
        <rect id="path-2" x="20" y="40" width="18" height="18" rx="2"></rect>
        <rect id="path-3" x="60" y="40" width="18" height="18" rx="2"></rect>
        <rect id="path-4" x="20" y="20" width="18" height="18" rx="2"></rect>
    </defs>
    <g id="Page-1" stroke="none" stroke-width="1" fill="none" fill-rule="evenodd">
        <g id="D7" transform="translate(-646.000000, -140.000000)">
            <g id="Group" transform="translate(124.000000, 90.000000)">
                <g id="2" transform="translate(320.000000, 0.000000)">
                    <g id="boxes-copy" transform="translate(241.000000, 79.000000) scale(-1, 1) translate(-241.000000, -79.000000) translate(202.000000, 50.000000)">
                        <g id="Rectangle-2-Copy">
                            <use fill="#8B6787" fill-rule="evenodd" xlink:href="#path-1"></use>
                            <rect stroke="#8B6787" stroke-width="2" x="1" y="41" width="16" height="16" rx="2"></rect>
                        </g>
                        <g id="Rectangle-2-Copy-8">
                            <use fill="#8B6787" fill-rule="evenodd" xlink:href="#path-2"></use>
                            <rect stroke="#8B6787" stroke-width="2" x="21" y="41" width="16" height="16" rx="2"></rect>
                        </g>
                        <rect id="Rectangle-2-Copy-20" stroke="#8B6787" stroke-width="2" x="41" y="41" width="16" height="16" rx="2"></rect>
                        <g id="Rectangle-2-Copy-21">
                            <use fill="#8B6787" fill-rule="evenodd" xlink:href="#path-3"></use>
                            <rect stroke="#8B6787" stroke-width="2" x="61" y="41" width="16" height="16" rx="2"></rect>
                        </g>
                        <g id="Rectangle-2-Copy-23">
                            <use fill="#8B6787" fill-rule="evenodd" xlink:href="#path-4"></use>
                            <rect stroke="#8B6787" stroke-width="2" x="21" y="21" width="16" height="16" rx="2"></rect>
                        </g>
                        <rect id="Rectangle-2-Copy-24" stroke="#8B6787" stroke-width="2" x="21" y="1" width="16" height="16" rx="2"></rect>
                        <rect id="Rectangle-2-Copy-25" stroke="#8B6787" stroke-width="2" x="1" y="21" width="16" height="16" rx="2"></rect>
                        <path d="M50.9497762,7.01525155 C51.5079161,7.76654268 52.1554039,8.44819202 52.8766349,9.04468109 C50.3134808,11.1645198 48.6816979,14.3599261 48.6816979,17.9343528 C48.6816979,24.316872 53.8844584,29.4909261 60.3023887,29.4909261 C66.720319,29.4909261 71.9230794,24.316872 71.9230794,17.9343528 C71.9230794,14.3599261 70.2912965,11.1645198 67.7281424,9.04468109 C68.4493734,8.44819202 69.0968612,7.76654268 69.6550012,7.01525155 C72.6866465,9.62335995 74.6047773,13.4771768 74.6047773,17.7765252 C74.6047773,25.6319334 68.2013798,32 60.3023887,32 C52.4033975,32 46,25.6319334 46,17.7765252 C46,13.4771768 47.9181308,9.62335995 50.9497762,7.01525155 Z M58.9615397,4 L61.6432376,4 L61.6432376,13.8328922 L58.9615397,13.8328922 L58.9615397,4 Z" id="Combined-Shape" fill="#8B6787" transform="translate(60.302389, 18.000000) scale(-1, 1) translate(-60.302389, -18.000000) "></path>
                    </g>
                </g>
            </g>
        </g>
    </g>
</svg>