<?xml version="1.0" encoding="UTF-8"?>
<svg width="42px" height="40px" viewBox="0 0 42 40" version="1.1" xmlns="http://www.w3.org/2000/svg" xmlns:xlink="http://www.w3.org/1999/xlink">
    <!-- Generator: Sketch 46.2 (44496) - http://www.bohemiancoding.com/sketch -->
    <title>Combined Shape</title>
    <desc>Created with Sketch.</desc>
    <defs></defs>
    <g id="Page-1" stroke="none" stroke-width="1" fill="none" fill-rule="evenodd">
        <g id="Mobile-L4-Copy" transform="translate(-20.000000, -90.000000)" fill="#FFFFFF">
            <g id="Sidebar">
                <g id="logo" transform="translate(20.000000, 90.000000)">
                    <path d="M25.2929859,13.5685761 C25.1912495,13.4636802 25.0166129,13.5377048 25.0166129,13.6854221 L25.0166129,36.7824287 C25.0166129,36.8265779 24.9994409,36.8690673 24.9689848,36.8999386 L22.5882249,39.3264853 C22.4861646,39.4303853 22.3125,39.3563607 22.3125,39.2089753 L22.3125,5.41624233 C22.3125,5.26852505 22.4864886,5.19450044 22.5882249,5.29873241 L35.3901553,18.3818356 C35.4533355,18.4465656 35.4533355,18.5517934 35.3898313,18.6165235 L32.891135,21.1665552 C32.8279548,21.2312852 32.7255705,21.2309532 32.6623902,21.1658913 L25.2929859,13.5685761 Z M22.3125,3.91154381 L22.3125,0.155530455 C22.3125,0.0173753784 22.4822794,-0.0520133199 22.5815546,0.0456909459 L41.9534845,19.0662844 C42.0154524,19.1269607 42.0154524,19.2255984 41.9538006,19.2862746 L26.892435,34.0794472 C26.7931598,34.1768404 26.6233804,34.1077628 26.6230642,33.9696077 L26.6173733,29.7291181 C26.6173733,29.6877338 26.6341299,29.6482165 26.6638492,29.6189675 L37.4254002,19.0463702 C37.4870519,18.985694 37.4870519,18.8873674 37.4254002,18.82638 L22.3586598,4.02138332 C22.3289405,3.99213427 22.3125,3.95261694 22.3125,3.91154381 Z M9.33757313,21.1658913 C9.27439467,21.2309532 9.17201318,21.2312852 9.10851073,21.1665552 L6.60988384,18.6165235 C6.54670539,18.5517934 6.54670539,18.4465656 6.60988384,18.3818356 L19.4114588,5.29873241 C19.5135163,5.19450044 19.6875,5.26852505 19.6875,5.41624233 L19.6875,39.2089753 C19.6875,39.3563607 19.5135163,39.4303853 19.4117827,39.3264853 L17.030765,36.8999386 C17.0003097,36.8690673 16.9831381,36.8265779 16.9831381,36.7824287 L16.9831381,13.6854221 C16.9831381,13.5377048 16.8081824,13.4636802 16.7064489,13.5685761 L9.33757313,21.1658913 Z M19.6875,3.91154381 C19.6875,3.95261694 19.6707437,3.99213427 19.6410249,4.02138332 L4.57455663,18.82638 C4.51290599,18.8873674 4.51290599,18.985694 4.57455663,19.0463702 L15.3359132,29.6189675 C15.365632,29.6482165 15.3823883,29.6877338 15.3823883,29.7291181 L15.3766975,33.9696077 C15.3763813,34.1077628 15.2069211,34.1768404 15.1073316,34.0794472 L0.046237981,19.2862746 C-0.0154126603,19.2255984 -0.0154126603,19.1269607 0.046237981,19.0662844 L19.417818,0.0456909459 C19.5174075,-0.0520133199 19.6875,0.0173753784 19.6875,0.155530455 L19.6875,3.91154381 Z" id="Combined-Shape"></path>
                </g>
            </g>
        </g>
    </g>
</svg>