<?xml version="1.0" encoding="UTF-8"?>
<svg width="754px" height="827px" viewBox="0 0 754 827" version="1.1" xmlns="http://www.w3.org/2000/svg" xmlns:xlink="http://www.w3.org/1999/xlink">
    <!-- Generator: Sketch 46.2 (44496) - http://www.bohemiancoding.com/sketch -->
    <title>Bg element</title>
    <desc>Created with Sketch.</desc>
    <defs></defs>
    <g id="Page-1" stroke="none" stroke-width="1" fill="none" fill-rule="evenodd" opacity="0.049999997">
        <g id="D1" transform="translate(-686.000000, -8.000000)" fill="#8B6787">
            <g id="Bg-element" transform="translate(686.000000, 8.000000)">
                <path d="M666.144272,458.763875 L513.388602,305.293413 C511.279105,303.173509 507.658358,304.664859 507.658358,307.653416 L507.658358,774.235167 C507.658358,775.127244 507.302539,775.98028 506.669104,776.608834 L457.317843,825.626231 C455.202482,827.726614 451.601285,826.23136 451.601285,823.252564 L451.601285,140.602688 C451.601285,137.62194 455.208347,136.126686 457.319798,138.230973 L722.682287,402.520067 C723.996079,403.827927 723.996079,405.953686 722.680332,407.261545 L670.887217,458.775587 C669.57538,460.081495 667.450244,460.075639 666.144272,458.763875 Z M451.556319,84.3959686 L451.556319,3.45509112 C451.556319,0.474343018 455.161426,-1.0209111 457.274832,1.08337603 L868.782976,410.993825 C870.094813,412.301684 870.094813,414.425491 868.782976,415.733351 L548.845341,734.530899 C546.733889,736.635186 543.128782,735.145788 543.124872,732.166992 L543.005614,640.780808 C543.005614,639.890683 543.359478,639.035694 543.989003,638.407141 L772.590736,410.564378 C773.902573,409.256519 773.902573,407.134663 772.590736,405.826804 L452.539707,86.7637797 C451.908227,86.1371784 451.556319,85.2841418 451.556319,84.3959686 Z M204.432467,458.763875 C203.126495,460.075639 201.001359,460.081495 199.687567,458.775587 L147.894452,407.261545 C146.58066,405.953686 146.578705,403.827927 147.892497,402.520067 L413.254986,138.230973 C415.368392,136.126686 418.975454,137.62194 418.975454,140.602688 L418.975454,823.252564 C418.975454,826.23136 415.372302,827.726614 413.258896,825.626231 L363.90568,776.608834 C363.2742,775.98028 362.918381,775.127244 362.918381,774.235167 L362.918381,307.653416 C362.918381,304.664859 359.295678,303.173509 357.188137,305.293413 L204.432467,458.763875 Z M419.02042,84.3959686 C419.02042,85.2841418 418.666557,86.1371784 418.037032,86.7637797 L97.986003,405.826804 C96.6741662,407.134663 96.6741662,409.256519 97.986003,410.564378 L326.585781,638.407141 C327.217261,639.035694 327.571125,639.890683 327.571125,640.780808 L327.451867,732.166992 C327.447957,735.145788 323.84285,736.635186 321.729443,734.530899 L1.79180763,415.733351 C0.479970854,414.425491 0.481925901,412.301684 1.79376268,410.993825 L413.299952,1.08337603 C415.413358,-1.0209111 419.02042,0.474343018 419.02042,3.45509112 L419.02042,84.3959686 Z" id="Combined-Shape"></path>
            </g>
        </g>
    </g>
</svg>