<?xml version="1.0" encoding="UTF-8"?>
<svg width="67px" height="68px" viewBox="0 0 67 68" version="1.1" xmlns="http://www.w3.org/2000/svg" xmlns:xlink="http://www.w3.org/1999/xlink">
    <!-- Generator: Sketch 46.2 (44496) - http://www.bohemiancoding.com/sketch -->
    <title>thread</title>
    <desc>Created with Sketch.</desc>
    <defs></defs>
    <g id="Page-1" stroke="none" stroke-width="1" fill="none" fill-rule="evenodd">
        <g id="L7" transform="translate(-1299.000000, -135.000000)">
            <g id="Group" transform="translate(124.000000, 90.000000)">
                <g id="4" transform="translate(960.000000, 0.000000)">
                    <g id="thread" transform="translate(215.000000, 45.000000)">
                        <path d="M2.73594532,53 C0.720997441,53.8167656 0,57.0625202 0,58.6668446 C0,63.821404 11.1928813,68 25,68 C38.8071187,68 50,63.821404 50,58.6668446 C50,57.0438705 49.367002,53.7478889 47.2575952,53.0047039 C43.1137758,56.0201533 34.7023364,58.0835224 25,58.0835224 C15.2926195,58.0835224 6.87747856,56.0180073 2.73594532,53 Z" id="Combined-Shape-Copy-2" fill="#AB7EA6"></path>
                        <path d="M5,25 C11.6666667,27 18.3333333,28 25,28 C31.6666667,28 38.3333333,27 45,25" id="Line-5" stroke="#AB7EA6" stroke-width="3" stroke-linecap="round" stroke-linejoin="round"></path>
                        <path d="M5,31 C11.6666667,33 18.3333333,34 25,34 C31.6666667,34 38.3333333,33 45,31" id="Line-5-Copy" stroke="#AB7EA6" stroke-width="3" stroke-linecap="round" stroke-linejoin="round"></path>
                        <path d="M5,37 C11.6666667,39 18.3333333,40 25,40 C31.6666667,40 38.3333333,39 45,37" id="Line-5-Copy-2" stroke="#AB7EA6" stroke-width="3" stroke-linecap="round" stroke-linejoin="round"></path>
                        <path d="M5,42.8114197 C11.6994222,45.1718434 18.3988445,46.3520553 25.0982667,46.3520553 C31.7976889,46.3520553 38.4971111,45.1718434 45.1965334,42.8114197 C53.9089561,39.0708736 57.4844823,41.1234432 55.9231119,48.9691284 C53.5810564,60.7376562 51.2415844,66.0571138 65,64.8265166" id="Line-5-Copy-4" stroke="#AB7EA6" stroke-width="3" stroke-linecap="round" stroke-linejoin="round"></path>
                        <path d="M5,49 C11.6666667,51 18.3333333,52 25,52 C31.6666667,52 38.3333333,51 45,49" id="Line-5-Copy-5" stroke="#AB7EA6" stroke-width="3" stroke-linecap="round" stroke-linejoin="round"></path>
                        <path d="M2.73594532,8 C1.77884579,8.38796336 1.1136934,9.32396654 0.679083825,10.3717761 L0,10.1669113 L0,14.2501668 L0.0480343502,14.2501668 C0.854591223,19.1329994 11.7176479,23 25,23 C38.2823521,23 49.1454088,19.1329994 49.9519656,14.2501668 L50,14.2501668 L50,10.1669113 L49.362761,10.3591524 C48.9370314,9.29871235 48.2660262,8.35999369 47.2575952,8.00470385 C43.1137758,11.0201533 34.7023364,13.0835224 25,13.0835224 C15.2926195,13.0835224 6.87747856,11.0180073 2.73594532,8 Z" id="Combined-Shape" fill="#AB7EA6"></path>
                        <path d="M25,20 C11.1928813,20 0,15.5228475 0,10 C0,4.4771525 11.1928813,0 25,0 C38.8071187,0 50,4.4771525 50,10 C50,15.5228475 38.8071187,20 25,20 Z M25,13.125 C30.1137477,13.125 34.2592593,11.7258898 34.2592593,10 C34.2592593,8.27411016 30.1137477,6.875 25,6.875 C19.8862523,6.875 15.7407407,8.27411016 15.7407407,10 C15.7407407,11.7258898 19.8862523,13.125 25,13.125 Z" id="Combined-Shape" fill="#AB7EA6"></path>
                    </g>
                </g>
            </g>
        </g>
    </g>
</svg>