<?xml version="1.0" encoding="UTF-8"?>
<svg width="24px" height="24px" viewBox="0 0 24 24" version="1.1" xmlns="http://www.w3.org/2000/svg" xmlns:xlink="http://www.w3.org/1999/xlink">
    <!-- Generator: Sketch 46.2 (44496) - http://www.bohemiancoding.com/sketch -->
    <title>settings icon original</title>
    <desc>Created with Sketch.</desc>
    <defs></defs>
    <g id="Page-1" stroke="none" stroke-width="1" fill="none" fill-rule="evenodd">
        <g id="L7a" transform="translate(-252.000000, -256.000000)" fill="#4D4E4C">
            <g id="Group" transform="translate(124.000000, 102.000000)">
                <g id="1">
                    <path d="M143.069585,156.936818 L143.504928,157.580461 L145.533876,158.726301 L146.390882,158.697274 C146.412287,158.687597 146.434038,158.678673 146.456095,158.670521 L148.3098,157.985347 C148.760583,157.818726 149.266143,157.996338 149.513666,158.408285 L151.261861,161.317771 C151.508133,161.727635 151.429789,162.254493 151.074917,162.574968 L149.606377,163.901164 C149.532967,163.96746 149.45242,164.020848 149.367522,164.061472 L149.37628,164.078106 L148.995566,164.723525 L148.995566,167.066789 L149.37628,167.757803 L149.375371,167.759418 C149.383088,167.763611 149.390774,167.767915 149.398425,167.772333 C149.452447,167.803523 149.503433,167.839699 149.550715,167.880389 L151.048675,169.169496 L151.048675,169.169496 C151.412949,169.482981 151.502707,170.011261 151.262411,170.427466 L149.565259,173.367018 C149.326178,173.781119 148.827397,173.968024 148.375057,173.813015 L146.503178,173.171554 C146.442344,173.150707 146.384818,173.124578 146.330939,173.093853 L145.561604,173.093853 L143.382744,174.368434 L143.069585,174.864669 C143.069076,174.92743 143.062944,174.991079 143.050429,175.054958 L143.050429,175.054958 L142.670011,176.996784 C142.578083,177.466026 142.166828,177.804531 141.688666,177.804531 L138.294363,177.804531 C137.813771,177.804531 137.401146,177.462659 137.311797,176.990446 L136.944378,175.04862 C136.93278,174.987328 136.926943,174.925085 136.926943,174.862705 C136.926943,174.85617 136.927006,174.849649 136.927131,174.843143 L136.665155,174.368434 L134.448673,173.061317 L133.698489,173.061317 C133.649138,173.089908 133.597421,173.114229 133.543905,173.13401 L131.6902,173.819184 L131.6902,173.819184 C131.239417,173.985805 130.733857,173.808193 130.486334,173.396246 L130.486334,173.396246 L128.738139,170.48676 C128.491867,170.076896 128.570211,169.550038 128.925083,169.229563 L130.393623,167.903367 L130.393623,167.903367 C130.481536,167.823975 130.579683,167.763093 130.683282,167.720477 L130.675542,167.706318 L131.055152,167.066789 L131.055152,164.723525 L130.629416,164.047697 C130.620088,164.042694 130.610807,164.037528 130.601575,164.032198 C130.547553,164.001008 130.496567,163.964832 130.449285,163.924142 L128.951325,162.635035 L128.951325,162.635035 C128.587051,162.32155 128.497293,161.79327 128.737589,161.377065 L128.737589,161.377065 L130.434741,158.437513 C130.673822,158.023412 131.172603,157.836507 131.624943,157.991516 L133.496822,158.632977 L133.496822,158.632977 C133.546061,158.64985 133.593132,158.670184 133.637856,158.693614 L134.448673,158.726301 L136.665155,157.455342 L136.927839,156.984527 C136.927244,156.970367 136.926943,156.956132 136.926943,156.941826 C136.926943,156.879446 136.93278,156.817203 136.944378,156.755911 L137.311797,154.814085 L137.311797,154.814085 C137.401146,154.341872 137.813771,154 138.294363,154 L138.294363,154 L141.688666,154 L141.688666,154 C142.166828,154 142.578083,154.338505 142.670011,154.807747 L143.050429,156.749573 C143.062742,156.812419 143.068876,156.875044 143.069254,156.936818 Z M140,172 C143.313708,172 146,169.313708 146,166 C146,162.686292 143.313708,160 140,160 C136.686292,160 134,162.686292 134,166 C134,169.313708 136.686292,172 140,172 Z M140,170 C137.790861,170 136,168.209139 136,166 C136,163.790861 137.790861,162 140,162 C142.209139,162 144,163.790861 144,166 C144,168.209139 142.209139,170 140,170 Z" id="settings-icon-original"></path>
                </g>
            </g>
        </g>
    </g>
</svg>