<?xml version="1.0" encoding="UTF-8"?>
<svg width="1440px" height="1007px" viewBox="0 0 1440 1007" version="1.1" xmlns="http://www.w3.org/2000/svg" xmlns:xlink="http://www.w3.org/1999/xlink">
    <!-- Generator: Sketch 46.2 (44496) - http://www.bohemiancoding.com/sketch -->
    <title>ThemeStarWars</title>
    <desc>Created with Sketch.</desc>
    <defs></defs>
    <g id="Page-1" stroke="none" stroke-width="1" fill="none" fill-rule="evenodd">
        <g id="loading5" transform="translate(0.000000, -17.000000)">
            <g id="ThemeStarWars" transform="translate(-99.000000, 17.000000)">
                <polygon id="mauntains" fill="#554151" points="50.9878244 1155.76261 1599.68364 1155.76261 1588.12571 913.213144 1387.99196 817.990227 1065.62105 913.213144 756.972733 853.054359 443.977862 897.477323 171.069497 817.990227 50.9878244 953.53028"></polygon>
                <path d="M0.187558445,214.898595 C4.84667455,324.542702 95.2098125,412.003038 206.000406,412.003038 C316.791,412.003038 407.154138,324.542702 411.813255,214.898595 L0.187558445,214.898595 Z M-1.64535269e-14,205.317129 C0.368986803,91.86038 92.457126,0 206.000406,0 C319.543687,0 411.631826,91.86038 412.000813,205.317129 L-1.59872116e-14,205.317129 Z M219.688215,195.735663 C255.596163,195.735663 284.705306,166.62652 284.705306,130.718572 C284.705306,94.8106243 255.596163,65.7014812 219.688215,65.7014812 C183.780267,65.7014812 154.671124,94.8106243 154.671124,130.718572 C154.671124,166.62652 183.780267,195.735663 219.688215,195.735663 Z M219.003825,158.77858 C203.884689,158.77858 191.628207,146.522098 191.628207,131.402962 C191.628207,116.283827 203.884689,104.027345 219.003825,104.027345 C234.122961,104.027345 246.379442,116.283827 246.379442,131.402962 C246.379442,146.522098 234.122961,158.77858 219.003825,158.77858 Z M219.003825,150.565894 C229.58722,150.565894 238.166757,141.986358 238.166757,131.402962 C238.166757,120.819567 229.58722,112.24003 219.003825,112.24003 C208.42043,112.24003 199.840893,120.819567 199.840893,131.402962 C199.840893,141.986358 208.42043,150.565894 219.003825,150.565894 Z" id="deth-star" fill="#8B6787" opacity="0.300000012"></path>
                <path d="M834.642765,103.575669 C831.996294,109.699302 825.76516,114 818.5,114 C811.23484,114 805.003706,109.699302 802.357235,103.575669 L798.664496,103.575669 L798.664496,101.219688 C789.917341,101.614226 784.591535,100.533425 782.687078,97.9772845 C781.087764,99.7229684 777.192073,100.608856 771.000003,100.634947 L771,159 L768,159 L768,33 L771,33 L771,90.7259726 C776.448191,91.0857989 780.343884,91.9671726 782.687078,93.3700937 C784.819111,90.4520112 790.144917,89.3184792 798.664496,89.9694976 L798.664496,88.0455268 L803.621646,88.0455268 C806.708378,83.2158929 812.217587,80 818.5,80 C825.018909,80 830.705305,83.4625689 833.71656,88.5977235 L833.71656,88.0455268 L839.459286,88.0455268 L839.459286,89.9694976 C847.978866,89.3184792 853.304672,90.4520112 855.436704,93.3700937 C857.762114,91.9778204 861.616546,91.0992077 867,90.7342556 L867,33 L870,33 L870,159 L867,159 L867,100.634309 C860.879767,100.596982 857.025335,99.7113074 855.436704,97.9772845 C853.532248,100.533425 848.206442,101.614226 839.459286,101.219688 L839.459286,103.575669 L834.642765,103.575669 Z M818.5,108 C824.851275,108 830,103.075132 830,97 C830,90.9248678 824.851275,86 818.5,86 C812.148725,86 807,90.9248678 807,97 C807,103.075132 812.148725,108 818.5,108 Z M818.5,103 C815.462434,103 813,100.537566 813,97.5 C813,94.4624339 815.462434,92 818.5,92 C821.537566,92 824,94.4624339 824,97.5 C824,100.537566 821.537566,103 818.5,103 Z M765,41 L768,41 L768,151 L765,151 L765,41 Z M870,41 L873,41 L873,151 L870,151 L870,41 Z" id="tai-fighter-copy-3" fill="#8B6787"></path>
                <path d="M1034.64276,173.575669 C1031.99629,179.699302 1025.76516,184 1018.5,184 C1011.23484,184 1005.00371,179.699302 1002.35724,173.575669 L998.664496,173.575669 L998.664496,171.219688 C989.917341,171.614226 984.591535,170.533425 982.687078,167.977284 C981.087764,169.722968 977.192073,170.608856 971.000003,170.634947 L971,229 L968,229 L968,103 L971,103 L971,160.725973 C976.448191,161.085799 980.343884,161.967173 982.687078,163.370094 C984.819111,160.452011 990.144917,159.318479 998.664496,159.969498 L998.664496,158.045527 L1003.62165,158.045527 C1006.70838,153.215893 1012.21759,150 1018.5,150 C1025.01891,150 1030.70531,153.462569 1033.71656,158.597724 L1033.71656,158.045527 L1039.45929,158.045527 L1039.45929,159.969498 C1047.97887,159.318479 1053.30467,160.452011 1055.4367,163.370094 C1057.76211,161.97782 1061.61655,161.099208 1067,160.734256 L1067,103 L1070,103 L1070,229 L1067,229 L1067,170.634309 C1060.87977,170.596982 1057.02533,169.711307 1055.4367,167.977284 C1053.53225,170.533425 1048.20644,171.614226 1039.45929,171.219688 L1039.45929,173.575669 L1034.64276,173.575669 Z M1018.5,178 C1024.85127,178 1030,173.075132 1030,167 C1030,160.924868 1024.85127,156 1018.5,156 C1012.14873,156 1007,160.924868 1007,167 C1007,173.075132 1012.14873,178 1018.5,178 Z M1018.5,173 C1015.46243,173 1013,170.537566 1013,167.5 C1013,164.462434 1015.46243,162 1018.5,162 C1021.53757,162 1024,164.462434 1024,167.5 C1024,170.537566 1021.53757,173 1018.5,173 Z M965,111 L968,111 L968,221 L965,221 L965,111 Z M1070,111 L1073,111 L1073,221 L1070,221 L1070,111 Z" id="tai-fighter-copy-4" fill="#8B6787" opacity="0.900000036"></path>
                <path d="M624.642765,173.575669 C621.996294,179.699302 615.76516,184 608.5,184 C601.23484,184 595.003706,179.699302 592.357235,173.575669 L588.664496,173.575669 L588.664496,171.219688 C579.917341,171.614226 574.591535,170.533425 572.687078,167.977284 C571.087764,169.722968 567.192073,170.608856 561.000003,170.634947 L561,229 L558,229 L558,103 L561,103 L561,160.725973 C566.448191,161.085799 570.343884,161.967173 572.687078,163.370094 C574.819111,160.452011 580.144917,159.318479 588.664496,159.969498 L588.664496,158.045527 L593.621646,158.045527 C596.708378,153.215893 602.217587,150 608.5,150 C615.018909,150 620.705305,153.462569 623.71656,158.597724 L623.71656,158.045527 L629.459286,158.045527 L629.459286,159.969498 C637.978866,159.318479 643.304672,160.452011 645.436704,163.370094 C647.762114,161.97782 651.616546,161.099208 657,160.734256 L657,103 L660,103 L660,229 L657,229 L657,170.634309 C650.879767,170.596982 647.025335,169.711307 645.436704,167.977284 C643.532248,170.533425 638.206442,171.614226 629.459286,171.219688 L629.459286,173.575669 L624.642765,173.575669 Z M608.5,178 C614.851275,178 620,173.075132 620,167 C620,160.924868 614.851275,156 608.5,156 C602.148725,156 597,160.924868 597,167 C597,173.075132 602.148725,178 608.5,178 Z M608.5,173 C605.462434,173 603,170.537566 603,167.5 C603,164.462434 605.462434,162 608.5,162 C611.537566,162 614,164.462434 614,167.5 C614,170.537566 611.537566,173 608.5,173 Z M555,111 L558,111 L558,221 L555,221 L555,111 Z M660,111 L663,111 L663,221 L660,221 L660,111 Z" id="tai-fighter-copy-6" fill="#8B6787" opacity="0.900000036"></path>
                <path d="M1141.74596,310.5061 C1139.58957,315.495727 1134.51235,319 1128.59259,319 C1122.67283,319 1117.59561,315.495727 1115.43923,310.5061 L1112.43033,310.5061 L1112.43033,308.586412 C1105.30302,308.907888 1100.96347,308.027235 1099.41169,305.944454 C1098.10855,307.366863 1094.93428,308.088698 1089.88889,308.109957 L1089.88889,355.666667 L1087.44444,355.666667 L1087.44444,253 L1089.88889,253 L1089.88889,300.035978 C1094.32816,300.329169 1097.50242,301.047326 1099.41169,302.190447 C1101.1489,299.81275 1105.48845,298.889131 1112.43033,299.419591 L1112.43033,297.851911 L1116.46949,297.851911 C1118.9846,293.916653 1123.47359,291.296296 1128.59259,291.296296 C1133.9043,291.296296 1138.53766,294.117649 1140.99127,298.301849 L1140.99127,297.851911 L1145.67053,297.851911 L1145.67053,299.419591 C1152.61241,298.889131 1156.95195,299.81275 1158.68917,302.190447 C1160.58394,301.056002 1163.72459,300.340095 1168.11111,300.042727 L1168.11111,253 L1170.55556,253 L1170.55556,355.666667 L1168.11111,355.666667 L1168.11111,308.109437 C1163.12425,308.079023 1159.98361,307.357362 1158.68917,305.944454 C1157.13739,308.027235 1152.79784,308.907888 1145.67053,308.586412 L1145.67053,310.5061 L1141.74596,310.5061 Z M1128.59259,314.111111 C1133.76771,314.111111 1137.96296,310.098256 1137.96296,305.148148 C1137.96296,300.19804 1133.76771,296.185185 1128.59259,296.185185 C1123.41748,296.185185 1119.22222,300.19804 1119.22222,305.148148 C1119.22222,310.098256 1123.41748,314.111111 1128.59259,314.111111 Z M1128.59259,310.037037 C1126.11754,310.037037 1124.11111,308.030609 1124.11111,305.555556 C1124.11111,303.080502 1126.11754,301.074074 1128.59259,301.074074 C1131.06765,301.074074 1133.07407,303.080502 1133.07407,305.555556 C1133.07407,308.030609 1131.06765,310.037037 1128.59259,310.037037 Z M1085,259.518519 L1087.44444,259.518519 L1087.44444,349.148148 L1085,349.148148 L1085,259.518519 Z M1170.55556,259.518519 L1173,259.518519 L1173,349.148148 L1170.55556,349.148148 L1170.55556,259.518519 Z" id="tai-fighter-copy-9" fill="#8B6787" opacity="0.699999988"></path>
                <path d="M511.745957,310.5061 C509.589573,315.495727 504.512353,319 498.592593,319 C492.672833,319 487.595612,315.495727 485.439229,310.5061 L482.43033,310.5061 L482.43033,308.586412 C475.303018,308.907888 470.963473,308.027235 469.411693,305.944454 C468.108549,307.366863 464.934281,308.088698 459.888891,308.109957 L459.888889,355.666667 L457.444444,355.666667 L457.444444,253 L459.888889,253 L459.888889,300.035978 C464.328156,300.329169 467.502424,301.047326 469.411693,302.190447 C471.148905,299.81275 475.488451,298.889131 482.43033,299.419591 L482.43033,297.851911 L486.469489,297.851911 C488.984604,293.916653 493.473589,291.296296 498.592593,291.296296 C503.904296,291.296296 508.537656,294.117649 510.991271,298.301849 L510.991271,297.851911 L515.67053,297.851911 L515.67053,299.419591 C522.612409,298.889131 526.951955,299.81275 528.689166,302.190447 C530.583945,301.056002 533.724593,300.340095 538.111111,300.042727 L538.111111,253 L540.555556,253 L540.555556,355.666667 L538.111111,355.666667 L538.111111,308.109437 C533.124254,308.079023 529.983606,307.357362 528.689166,305.944454 C527.137387,308.027235 522.797841,308.907888 515.67053,308.586412 L515.67053,310.5061 L511.745957,310.5061 Z M498.592593,314.111111 C503.767705,314.111111 507.962963,310.098256 507.962963,305.148148 C507.962963,300.19804 503.767705,296.185185 498.592593,296.185185 C493.41748,296.185185 489.222222,300.19804 489.222222,305.148148 C489.222222,310.098256 493.41748,314.111111 498.592593,314.111111 Z M498.592593,310.037037 C496.117539,310.037037 494.111111,308.030609 494.111111,305.555556 C494.111111,303.080502 496.117539,301.074074 498.592593,301.074074 C501.067646,301.074074 503.074074,303.080502 503.074074,305.555556 C503.074074,308.030609 501.067646,310.037037 498.592593,310.037037 Z M455,259.518519 L457.444444,259.518519 L457.444444,349.148148 L455,349.148148 L455,259.518519 Z M540.555556,259.518519 L543,259.518519 L543,349.148148 L540.555556,349.148148 L540.555556,259.518519 Z" id="tai-fighter-copy-8" fill="#8B6787" opacity="0.699999988"></path>
                <path d="M1172.84915,109.436532 C1171.18285,113.292153 1167.25955,116 1162.68519,116 C1158.11083,116 1154.18752,113.292153 1152.52122,109.436532 L1150.19616,109.436532 L1150.19616,107.953137 C1144.6887,108.20155 1141.33541,107.521045 1140.13631,105.911624 C1139.12933,107.010758 1136.67649,107.568539 1132.77778,107.584967 L1132.77778,144.333333 L1130.88889,144.333333 L1130.88889,65 L1132.77778,65 L1132.77778,101.345983 C1136.20812,101.57254 1138.66096,102.127479 1140.13631,103.0108 C1141.4787,101.173489 1144.83198,100.459783 1150.19616,100.869684 L1150.19616,99.6582946 L1153.31733,99.6582946 C1155.26083,96.617414 1158.72959,94.5925926 1162.68519,94.5925926 C1166.78968,94.5925926 1170.37001,96.7727286 1172.26598,100.005974 L1172.26598,99.6582946 L1175.88177,99.6582946 L1175.88177,100.869684 C1181.24595,100.459783 1184.59924,101.173489 1185.94163,103.0108 C1187.40578,102.134183 1189.83264,101.580983 1193.22222,101.351198 L1193.22222,65 L1195.11111,65 L1195.11111,144.333333 L1193.22222,144.333333 L1193.22222,107.584565 C1189.36874,107.561063 1186.94188,107.003416 1185.94163,105.911624 C1184.74253,107.521045 1181.38924,108.20155 1175.88177,107.953137 L1175.88177,109.436532 L1172.84915,109.436532 Z M1162.68519,112.222222 C1166.68414,112.222222 1169.92593,109.12138 1169.92593,105.296296 C1169.92593,101.471213 1166.68414,98.3703704 1162.68519,98.3703704 C1158.68623,98.3703704 1155.44444,101.471213 1155.44444,105.296296 C1155.44444,109.12138 1158.68623,112.222222 1162.68519,112.222222 Z M1162.68519,109.074074 C1160.77264,109.074074 1159.22222,107.523653 1159.22222,105.611111 C1159.22222,103.698569 1160.77264,102.148148 1162.68519,102.148148 C1164.59773,102.148148 1166.14815,103.698569 1166.14815,105.611111 C1166.14815,107.523653 1164.59773,109.074074 1162.68519,109.074074 Z M1129,70.037037 L1130.88889,70.037037 L1130.88889,139.296296 L1129,139.296296 L1129,70.037037 Z M1195.11111,70.037037 L1197,70.037037 L1197,139.296296 L1195.11111,139.296296 L1195.11111,70.037037 Z" id="tai-fighter-copy-5" fill="#8B6787" opacity="0.400000006"></path>
                <path d="M474.849148,109.436532 C473.182852,113.292153 469.259545,116 464.685185,116 C460.110825,116 456.187518,113.292153 454.521222,109.436532 L452.196164,109.436532 L452.196164,107.953137 C446.688696,108.20155 443.335411,107.521045 442.136309,105.911624 C441.129333,107.010758 438.67649,107.568539 434.777779,107.584967 L434.777778,144.333333 L432.888889,144.333333 L432.888889,65 L434.777778,65 L434.777778,101.345983 C438.20812,101.57254 440.660964,102.127479 442.136309,103.0108 C443.478699,101.173489 446.831985,100.459783 452.196164,100.869684 L452.196164,99.6582946 L455.317332,99.6582946 C457.26083,96.617414 460.729592,94.5925926 464.685185,94.5925926 C468.789683,94.5925926 472.370007,96.7727286 474.265982,100.005974 L474.265982,99.6582946 L477.881773,99.6582946 L477.881773,100.869684 C483.245953,100.459783 486.599238,101.173489 487.941629,103.0108 C489.405776,102.134183 491.83264,101.580983 495.222222,101.351198 L495.222222,65 L497.111111,65 L497.111111,144.333333 L495.222222,144.333333 L495.222222,107.584565 C491.368742,107.561063 488.941877,107.003416 487.941629,105.911624 C486.742526,107.521045 483.389241,108.20155 477.881773,107.953137 L477.881773,109.436532 L474.849148,109.436532 Z M464.685185,112.222222 C468.684136,112.222222 471.925926,109.12138 471.925926,105.296296 C471.925926,101.471213 468.684136,98.3703704 464.685185,98.3703704 C460.686234,98.3703704 457.444444,101.471213 457.444444,105.296296 C457.444444,109.12138 460.686234,112.222222 464.685185,112.222222 Z M464.685185,109.074074 C462.772644,109.074074 461.222222,107.523653 461.222222,105.611111 C461.222222,103.698569 462.772644,102.148148 464.685185,102.148148 C466.597727,102.148148 468.148148,103.698569 468.148148,105.611111 C468.148148,107.523653 466.597727,109.074074 464.685185,109.074074 Z M431,70.037037 L432.888889,70.037037 L432.888889,139.296296 L431,139.296296 L431,70.037037 Z M497.111111,70.037037 L499,70.037037 L499,139.296296 L497.111111,139.296296 L497.111111,70.037037 Z" id="tai-fighter-copy-7" fill="#8B6787" opacity="0.400000006"></path>
            </g>
        </g>
    </g>
</svg>