<?xml version="1.0" encoding="UTF-8"?>
<svg width="34px" height="34px" viewBox="0 0 34 34" version="1.1" xmlns="http://www.w3.org/2000/svg" xmlns:xlink="http://www.w3.org/1999/xlink">
    <!-- Generator: Sketch 46.2 (44496) - http://www.bohemiancoding.com/sketch -->
    <title>logout-iocn</title>
    <desc>Created with Sketch.</desc>
    <defs></defs>
    <g id="Page-1" stroke="none" stroke-width="1" fill="none" fill-rule="evenodd" opacity="0.5">
        <g id="Mobile-L4-Copy" transform="translate(-263.000000, -514.000000)" fill="#FFFFFF">
            <g id="Sidebar">
                <path d="M273.684085,523.34765 C271.432934,525.211259 270,528.019025 270,531.159625 C270,536.770631 274.573855,541.31925 280.215992,541.31925 C285.858128,541.31925 290.431984,536.770631 290.431984,531.159625 C290.431984,528.019025 288.99905,525.211259 286.747899,523.34765 C286.345588,523.857128 285.884308,524.318368 285.374283,524.721204 C287.337116,526.230943 288.600987,528.596037 288.600987,531.254695 C288.600987,535.813637 284.884729,539.50939 280.300493,539.50939 C275.716257,539.50939 272,535.813637 272,531.254695 C272,528.634387 273.227672,526.299236 275.142202,524.787069 C274.598539,524.368904 274.108499,523.885118 273.684085,523.34765 Z M280,548 C270.611159,548 263,540.388841 263,531 C263,521.611159 270.611159,514 280,514 C289.388841,514 297,521.611159 297,531 C297,540.388841 289.388841,548 280,548 Z M281.173741,521 L279.258243,521 L279.258243,528.023494 L281.173741,528.023494 L281.173741,521 Z" id="logout-iocn"></path>
            </g>
        </g>
    </g>
</svg>