<?xml version="1.0" encoding="UTF-8"?>
<svg width="220px" height="221px" viewBox="0 0 220 221" version="1.1" xmlns="http://www.w3.org/2000/svg" xmlns:xlink="http://www.w3.org/1999/xlink">
    <!-- Generator: Sketch 46.2 (44496) - http://www.bohemiancoding.com/sketch -->
    <title>ring-outer</title>
    <desc>Created with Sketch.</desc>
    <defs></defs>
    <g id="Page-1" stroke="none" stroke-width="1" fill="none" fill-rule="evenodd">
        <g id="loading6" transform="translate(-617.000000, -762.000000)" fill="#8B6787">
            <g id="loader2" transform="translate(617.000000, 762.000000)">
                <path d="M0.00444229802,111.912136 C0.00133576895,111.571324 -0.000220849274,111.230141 -0.000220849274,110.888595 C-0.000220849274,50.1372726 49.2484567,0.888595119 109.999779,0.888595119 L110.004442,10.8885952 C54.7713042,10.8885951 9.99977915,55.6601201 9.99977915,110.888595 C9.99977915,110.925735 9.9997994,110.96287 9.99983988,111 L0.00444229802,111 L0.00444229802,111.912136 Z M110.004442,220.888595 C170.753622,220.886075 219.999779,171.638363 219.999779,110.888595 C219.999779,110.814308 219.999706,110.740038 219.999558,110.665785 L209.999554,110.665785 C209.999698,110.740036 209.999779,110.814306 209.999779,110.888595 C209.999779,166.115516 165.230774,210.886075 110.004442,210.888595 L110.004442,220.888595 Z" id="ring-outer"></path>
            </g>
        </g>
    </g>
</svg>