<?xml version="1.0" encoding="UTF-8"?>
<svg width="34px" height="34px" viewBox="0 0 34 34" version="1.1" xmlns="http://www.w3.org/2000/svg" xmlns:xlink="http://www.w3.org/1999/xlink">
    <!-- Generator: Sketch 46.2 (44496) - http://www.bohemiancoding.com/sketch -->
    <title>Combined Shape</title>
    <desc>Created with Sketch.</desc>
    <defs></defs>
    <g id="Page-1" stroke="none" stroke-width="1" fill="none" fill-rule="evenodd">
        <g id="Mobile-L4" transform="translate(-263.000000, -450.000000)" fill="#AAA0A8">
            <g id="Sidebar">
                <path d="M283.069254,457.936818 C283.068876,457.875044 283.062742,457.812419 283.050429,457.749573 L283.050429,457.749573 L282.670011,455.807747 C282.578083,455.338505 282.166828,455 281.688666,455 L278.294363,455 C277.813771,455 277.401146,455.341872 277.311797,455.814085 L277.311797,455.814085 L276.944378,457.755911 C276.93278,457.817203 276.926943,457.879446 276.926943,457.941826 C276.926943,457.956132 276.927244,457.970367 276.927839,457.984527 L276.665155,458.455342 L274.448673,459.726301 L273.637856,459.693614 C273.593132,459.670184 273.546061,459.64985 273.496822,459.632977 L271.624943,458.991516 C271.172603,458.836507 270.673822,459.023412 270.434741,459.437513 L268.737589,462.377065 C268.497293,462.79327 268.587051,463.32155 268.951325,463.635035 L270.449285,464.924142 C270.496567,464.964832 270.547553,465.001008 270.601575,465.032198 C270.610807,465.037528 270.620088,465.042694 270.629416,465.047697 L271.055152,465.723525 L271.055152,468.066789 L270.675542,468.706318 L270.683282,468.720477 C270.579683,468.763093 270.481536,468.823975 270.393623,468.903367 L270.393623,468.903367 L268.925083,470.229563 C268.570211,470.550038 268.491867,471.076896 268.738139,471.48676 L270.486334,474.396246 C270.733857,474.808193 271.239417,474.985805 271.6902,474.819184 L271.6902,474.819184 L273.543905,474.13401 C273.597421,474.114229 273.649138,474.089908 273.69849,474.061317 L274.448673,474.061317 L276.665155,475.368434 L276.927131,475.843143 C276.927006,475.849649 276.926943,475.85617 276.926943,475.862705 C276.926943,475.925085 276.93278,475.987328 276.944378,476.04862 L277.311797,477.990446 C277.401146,478.462659 277.813771,478.804531 278.294363,478.804531 L281.688666,478.804531 C282.166828,478.804531 282.578083,478.466026 282.670011,477.996784 L283.050429,476.054958 C283.062944,475.991079 283.069076,475.92743 283.069268,475.864669 L283.382744,475.368434 L285.561604,474.093853 L286.330939,474.093853 C286.384818,474.124578 286.442344,474.150707 286.503178,474.171554 L288.375057,474.813015 C288.827397,474.968024 289.326178,474.781119 289.565259,474.367018 L291.262411,471.427466 C291.502707,471.011261 291.412949,470.482981 291.048675,470.169496 L291.048675,470.169496 L289.550715,468.880389 C289.503433,468.839699 289.452447,468.803523 289.398425,468.772333 C289.390774,468.767915 289.383088,468.763611 289.375371,468.759418 L289.37628,468.757803 L288.995566,468.066789 L288.995566,465.723525 L289.37628,465.078106 L289.367522,465.061472 C289.45242,465.020848 289.532967,464.96746 289.606377,464.901164 L291.074917,463.574968 C291.429789,463.254493 291.508133,462.727635 291.261861,462.317771 L289.513666,459.408285 C289.266143,458.996338 288.760583,458.818726 288.3098,458.985347 L288.3098,458.985347 L286.456095,459.670521 C286.434038,459.678673 286.412287,459.687597 286.390882,459.697274 L285.533876,459.726301 L283.504928,458.580461 L283.069585,457.936818 Z M280,484 C270.611159,484 263,476.388841 263,467 C263,457.611159 270.611159,450 280,450 C289.388841,450 297,457.611159 297,467 C297,476.388841 289.388841,484 280,484 Z M280,473 C276.686292,473 274,470.313708 274,467 C274,463.686292 276.686292,461 280,461 C283.313708,461 286,463.686292 286,467 C286,470.313708 283.313708,473 280,473 Z M280,471 C282.209139,471 284,469.209139 284,467 C284,464.790861 282.209139,463 280,463 C277.790861,463 276,464.790861 276,467 C276,469.209139 277.790861,471 280,471 Z" id="Combined-Shape"></path>
            </g>
        </g>
    </g>
</svg>