<?xml version="1.0" encoding="UTF-8"?>
<svg width="313px" height="297px" viewBox="0 0 313 297" version="1.1" xmlns="http://www.w3.org/2000/svg" xmlns:xlink="http://www.w3.org/1999/xlink">
    <!-- Generator: Sketch 46.2 (44496) - http://www.bohemiancoding.com/sketch -->
    <title>port_Titania Copy</title>
    <desc>Created with Sketch.</desc>
    <defs></defs>
    <g id="Page-1" stroke="none" stroke-width="1" fill="none" fill-rule="evenodd">
        <g id="D5" transform="translate(-565.000000, -118.000000)">
            <g id="port_Titania-Copy" transform="translate(565.000000, 118.000000)">
                <path d="M239.46807,164.755588 L184.637193,109.639835 C183.88,108.878515 182.580351,109.414103 182.580351,110.487381 L182.580351,278.050598 C182.580351,278.370969 182.452632,278.67732 182.225263,278.903052 L164.510877,296.506639 C163.751579,297.260948 162.458947,296.723959 162.458947,295.654186 L162.458947,50.4945567 C162.458947,49.4240825 163.753684,48.8870928 164.511579,49.6428041 L259.762105,144.556784 C260.233684,145.026474 260.233684,145.789897 259.761404,146.259588 L241.170526,164.759794 C240.699649,165.228784 239.936842,165.22668 239.46807,164.755588" id="Fill-1" fill="#8B6787"></path>
                <path d="M162.442807,30.3090722 L162.442807,1.24082474 C162.442807,0.170350515 163.736842,-0.366639175 164.495439,0.389072165 L312.204211,147.599959 C312.675088,148.069649 312.675088,148.832371 312.204211,149.302062 L197.364211,263.791629 C196.606316,264.54734 195.312281,264.012454 195.310877,262.94268 L195.26807,230.123216 C195.26807,229.803546 195.395088,229.496495 195.621053,229.270763 L277.676491,147.445732 C278.147368,146.976041 278.147368,146.214021 277.676491,145.74433 L162.795789,31.1594227 C162.569123,30.9343918 162.442807,30.6280412 162.442807,30.3090722" id="Fill-2" fill="#8B6787"></path>
                <path d="M73.7389474,164.755588 L128.569825,109.639835 C129.326316,108.878515 130.626667,109.414103 130.626667,110.487381 L130.626667,278.050598 C130.626667,278.370969 130.754386,278.67732 130.981053,278.903052 L148.69614,296.506639 C149.454737,297.260948 150.74807,296.723959 150.74807,295.654186 L150.74807,50.4945567 C150.74807,49.4240825 149.453333,48.8870928 148.694737,49.6428041 L53.4442105,144.556784 C52.9726316,145.026474 52.9733333,145.789897 53.4449123,146.259588 L72.0357895,164.759794 C72.5073684,165.228784 73.2701754,165.22668 73.7389474,164.755588" id="Fill-3" fill="#554151"></path>
                <path d="M150.764211,30.3090722 L150.764211,1.24082474 C150.764211,0.170350515 149.469474,-0.366639175 148.710877,0.389072165 L1.00280702,147.599959 C0.531929825,148.069649 0.53122807,148.832371 1.00210526,149.302062 L115.842105,263.791629 C116.600702,264.54734 117.894737,264.012454 117.89614,262.94268 L117.938947,230.123216 C117.938947,229.803546 117.81193,229.496495 117.585263,229.270763 L35.5305263,147.445732 C35.0596491,146.976041 35.0596491,146.214021 35.5305263,145.74433 L150.411228,31.1594227 C150.637193,30.9343918 150.764211,30.6280412 150.764211,30.3090722" id="Fill-4" fill="#554151"></path>
            </g>
        </g>
    </g>
</svg>