<?xml version="1.0" encoding="UTF-8"?>
<svg width="600px" height="408px" viewBox="0 0 600 408" version="1.1" xmlns="http://www.w3.org/2000/svg" xmlns:xlink="http://www.w3.org/1999/xlink">
    <!-- Generator: Sketch 46.2 (44496) - http://www.bohemiancoding.com/sketch -->
    <title>port_Titania Copy</title>
    <desc>Created with Sketch.</desc>
    <defs></defs>
    <g id="Page-1" stroke="none" stroke-width="1" fill="none" fill-rule="evenodd">
        <g id="D1" transform="translate(-420.000000, -118.000000)">
            <g id="port_Titania-Copy" transform="translate(420.000000, 118.000000)">
                <path d="M384.46807,164.755588 L329.637193,109.639835 C328.88,108.878515 327.580351,109.414103 327.580351,110.487381 L327.580351,278.050598 C327.580351,278.370969 327.452632,278.67732 327.225263,278.903052 L309.510877,296.506639 C308.751579,297.260948 307.458947,296.723959 307.458947,295.654186 L307.458947,50.4945567 C307.458947,49.4240825 308.753684,48.8870928 309.511579,49.6428041 L404.762105,144.556784 C405.233684,145.026474 405.233684,145.789897 404.761404,146.259588 L386.170526,164.759794 C385.699649,165.228784 384.936842,165.22668 384.46807,164.755588" id="Fill-1" fill="#8B6787"></path>
                <path d="M307.442807,30.3090722 L307.442807,1.24082474 C307.442807,0.170350515 308.736842,-0.366639175 309.495439,0.389072165 L457.204211,147.599959 C457.675088,148.069649 457.675088,148.832371 457.204211,149.302062 L342.364211,263.791629 C341.606316,264.54734 340.312281,264.012454 340.310877,262.94268 L340.26807,230.123216 C340.26807,229.803546 340.395088,229.496495 340.621053,229.270763 L422.676491,147.445732 C423.147368,146.976041 423.147368,146.214021 422.676491,145.74433 L307.795789,31.1594227 C307.569123,30.9343918 307.442807,30.6280412 307.442807,30.3090722" id="Fill-2" fill="#8B6787"></path>
                <path d="M218.738947,164.755588 L273.569825,109.639835 C274.326316,108.878515 275.626667,109.414103 275.626667,110.487381 L275.626667,278.050598 C275.626667,278.370969 275.754386,278.67732 275.981053,278.903052 L293.69614,296.506639 C294.454737,297.260948 295.74807,296.723959 295.74807,295.654186 L295.74807,50.4945567 C295.74807,49.4240825 294.453333,48.8870928 293.694737,49.6428041 L198.444211,144.556784 C197.972632,145.026474 197.973333,145.789897 198.444912,146.259588 L217.035789,164.759794 C217.507368,165.228784 218.270175,165.22668 218.738947,164.755588" id="Fill-3" fill="#554151"></path>
                <path d="M295.764211,30.3090722 L295.764211,1.24082474 C295.764211,0.170350515 294.469474,-0.366639175 293.710877,0.389072165 L146.002807,147.599959 C145.53193,148.069649 145.531228,148.832371 146.002105,149.302062 L260.842105,263.791629 C261.600702,264.54734 262.894737,264.012454 262.89614,262.94268 L262.938947,230.123216 C262.938947,229.803546 262.81193,229.496495 262.585263,229.270763 L180.530526,147.445732 C180.059649,146.976041 180.059649,146.214021 180.530526,145.74433 L295.411228,31.1594227 C295.637193,30.9343918 295.764211,30.6280412 295.764211,30.3090722" id="Fill-4" fill="#554151"></path>
                <path d="M56.917193,356.371175 L3.66526316,356.371175 C2.58807018,356.371175 1.76631579,356.677526 1.20070175,357.288825 C0.64,357.902227 0.357192982,358.698598 0.357192982,359.677938 L0.357192982,363.424247 C0.357192982,364.503134 0.675087719,365.324041 1.31157895,365.886268 C1.95157895,366.449196 2.73333333,366.731711 3.66526316,366.731711 L18.5242105,366.731711 C20.8301754,366.731711 22.3719298,366.976371 23.1578947,367.466392 C24.4301754,367.90734 25.0701754,369.866722 25.0701754,373.343134 L25.0701754,404.495546 C25.0701754,405.622804 25.3754386,406.457031 25.9887719,406.995423 C26.602807,407.533113 27.3985965,407.802309 28.3789474,407.802309 L32.2042105,407.802309 C33.2821053,407.802309 34.1031579,407.484742 34.6687719,406.847505 C35.2294737,406.21167 35.5122807,405.426515 35.5122807,404.495546 L35.5122807,373.343134 C35.5122807,372.217979 35.5607018,371.263175 35.6624561,370.47732 C35.76,369.694268 35.9319298,369.107505 36.1747368,368.714928 C36.6161404,367.39068 38.5775439,366.731711 42.0582456,366.731711 L56.917193,366.731711 C57.9950877,366.731711 58.8168421,366.413443 59.3817544,365.776206 C59.9431579,365.140371 60.2259649,364.355216 60.2259649,363.424247 L60.2259649,359.677938 C60.2259649,358.601155 59.9207018,357.780948 59.3066667,357.215918 C58.6926316,356.653691 57.8975439,356.371175 56.917193,356.371175" id="Fill-5" fill="#4D4E4C"></path>
                <path d="M114.788772,356.371175 L111.034386,356.371175 C109.956491,356.371175 109.135439,356.677526 108.569825,357.288825 C108.009123,357.902227 107.726316,358.698598 107.726316,359.677938 L107.726316,404.495546 C107.726316,405.574433 108.030877,406.39534 108.644912,406.957567 C109.258947,407.522598 110.054035,407.802309 111.034386,407.802309 L114.788772,407.802309 C115.866667,407.802309 116.675088,407.484742 117.214035,406.847505 C117.752982,406.21167 118.022456,405.426515 118.022456,404.495546 L118.022456,359.677938 C118.022456,358.601155 117.717193,357.780948 117.103158,357.215918 C116.489825,356.653691 115.716491,356.371175 114.788772,356.371175" id="Fill-6" fill="#4D4E4C"></path>
                <path d="M222.078596,356.371175 L168.826667,356.371175 C167.748772,356.371175 166.927719,356.677526 166.362105,357.288825 C165.801404,357.902227 165.518596,358.698598 165.518596,359.677938 L165.518596,363.424247 C165.518596,364.503134 165.836491,365.324041 166.472281,365.886268 C167.112982,366.449196 167.894737,366.731711 168.826667,366.731711 L183.685614,366.731711 C185.991579,366.731711 187.533333,366.976371 188.319298,367.466392 C189.591579,367.90734 190.231579,369.866722 190.231579,373.343134 L190.231579,404.495546 C190.231579,405.622804 190.53614,406.457031 191.150175,406.995423 C191.764211,407.533113 192.559298,407.802309 193.540351,407.802309 L197.364912,407.802309 C198.442807,407.802309 199.264561,407.484742 199.830175,406.847505 C200.390877,406.21167 200.673684,405.426515 200.673684,404.495546 L200.673684,373.343134 C200.673684,372.217979 200.722105,371.263175 200.82386,370.47732 C200.920702,369.694268 201.093333,369.107505 201.33614,368.714928 C201.777544,367.39068 203.738947,366.731711 207.219649,366.731711 L222.078596,366.731711 C223.155789,366.731711 223.977544,366.413443 224.543158,365.776206 C225.10386,365.140371 225.386667,364.355216 225.386667,363.424247 L225.386667,359.677938 C225.386667,358.601155 225.082105,357.780948 224.46807,357.215918 C223.854035,356.653691 223.058947,356.371175 222.078596,356.371175" id="Fill-7" fill="#4D4E4C"></path>
                <path d="M317.50386,392.850722 C313.872982,385.480082 308.528421,374.691216 301.469474,360.485526 C300.440702,357.743093 298.722105,356.371175 296.32,356.371175 L290.360702,356.371175 C288.497544,356.371175 287.101053,357.105856 286.169123,358.575216 C285.09193,360.681814 282.883509,365.076577 279.552982,371.763711 C276.218246,378.450845 271.730526,387.549526 266.089123,399.059052 C264.176842,402.684082 263.223158,404.864289 263.223158,405.598268 L263.223158,405.964907 L263.297544,406.480866 C263.739649,407.361361 264.54807,407.802309 265.722807,407.802309 L271.094035,407.802309 C272.710877,407.802309 274.057544,407.043794 275.139649,405.526062 L288.082105,379.441402 C290.042807,374.740289 291.686316,372.38833 293.011228,372.38833 L293.673684,372.38833 C294.212632,372.38833 294.897544,372.902186 295.73193,373.930598 C296.416842,375.205773 297.93614,378.192866 300.290526,382.893979 C302.644912,387.597897 305.882807,394.113278 309.999298,402.439423 C311.324211,406.015381 313.162105,407.802309 315.516491,407.802309 L320.957895,407.802309 C322.428772,407.802309 323.26386,407.191711 323.457544,405.964907 L323.457544,405.598268 C323.457544,405.401979 323.409123,405.15732 323.311579,404.864289 C323.068772,404.228454 321.130526,400.224165 317.50386,392.850722" id="Fill-8" fill="#4D4E4C"></path>
                <path d="M427.553684,356.371175 L423.803509,356.371175 C422.721404,356.371175 421.912982,356.690845 421.374035,357.325979 C420.835789,357.963918 420.565614,358.746969 420.565614,359.677938 L420.565614,383.62866 C420.565614,387.449979 419.832982,389.36099 418.357193,389.36099 C417.721404,389.311918 416.912982,388.992247 415.932632,388.405485 C415.345263,387.867093 412.474386,385.173031 407.328421,380.324 C402.178246,375.474969 394.677895,368.372825 384.818947,359.016165 C383.105263,357.253773 381.166316,356.371175 379.010526,356.371175 L374.302456,356.371175 C373.224561,356.371175 372.402807,356.677526 371.837193,357.288825 C371.276491,357.902227 370.993684,358.698598 370.993684,359.677938 L370.993684,404.495546 C370.993684,405.574433 371.298246,406.39534 371.912281,406.957567 C372.526316,407.522598 373.321404,407.802309 374.302456,407.802309 L378.127018,407.802309 C379.204912,407.802309 380.026667,407.484742 380.592281,406.847505 C381.152982,406.21167 381.435789,405.426515 381.435789,404.495546 L381.435789,380.396907 C381.435789,376.626062 382.173333,374.740289 383.644211,374.740289 C384.183158,374.740289 384.942456,375.009485 385.923509,375.547175 L416.153684,404.056701 C418.260351,406.553773 420.565614,407.802309 423.065965,407.802309 L427.553684,407.802309 C428.631579,407.802309 429.452632,407.484742 430.018246,406.847505 C430.578947,406.21167 430.861754,405.426515 430.861754,404.495546 L430.861754,359.677938 C430.861754,358.601155 430.557193,357.780948 429.943158,357.215918 C429.329123,356.653691 428.534035,356.371175 427.553684,356.371175" id="Fill-9" fill="#4D4E4C"></path>
                <path d="M488.534737,356.371175 L484.780351,356.371175 C483.703158,356.371175 482.881404,356.677526 482.315789,357.288825 C481.755088,357.902227 481.472281,358.698598 481.472281,359.677938 L481.472281,404.495546 C481.472281,405.574433 481.776842,406.39534 482.390877,406.957567 C483.004912,407.522598 483.8,407.802309 484.780351,407.802309 L488.534737,407.802309 C489.612632,407.802309 490.421053,407.484742 490.96,406.847505 C491.498947,406.21167 491.768421,405.426515 491.768421,404.495546 L491.768421,359.677938 C491.768421,358.601155 491.46386,357.780948 490.849825,357.215918 C490.235789,356.653691 489.462456,356.371175 488.534737,356.371175" id="Fill-10" fill="#4D4E4C"></path>
                <path d="M599.392982,404.864289 C599.150175,404.228454 597.211228,400.224165 593.585263,392.850722 C589.954386,385.480082 584.609825,374.691216 577.550877,360.485526 C576.522105,357.743093 574.803509,356.371175 572.401404,356.371175 L566.442105,356.371175 C564.578246,356.371175 563.182456,357.105856 562.250526,358.575216 C561.173333,360.681814 558.964211,365.076577 555.634386,371.763711 C552.299649,378.450845 547.81193,387.549526 542.171228,399.059052 C540.258246,402.684082 539.304561,404.864289 539.304561,405.598268 L539.304561,405.964907 L539.378947,406.480866 C539.821053,407.361361 540.629474,407.802309 541.804211,407.802309 L547.175439,407.802309 C548.792281,407.802309 550.138947,407.043794 551.221053,405.526062 L564.163509,379.441402 C566.124211,374.740289 567.767719,372.38833 569.092632,372.38833 L569.755088,372.38833 C570.294035,372.38833 570.978947,372.902186 571.813333,373.930598 C572.498246,375.205773 574.017544,378.192866 576.37193,382.893979 C578.726316,387.597897 581.964211,394.113278 586.080702,402.439423 C587.405614,406.015381 589.243509,407.802309 591.597193,407.802309 L597.039298,407.802309 C598.510175,407.802309 599.345263,407.191711 599.539649,405.964907 L599.539649,405.598268 C599.539649,405.401979 599.490526,405.15732 599.392982,404.864289" id="Fill-11" fill="#4D4E4C"></path>
            </g>
        </g>
    </g>
</svg>