<?xml version="1.0" encoding="UTF-8"?>
<svg width="31px" height="31px" viewBox="0 0 31 31" version="1.1" xmlns="http://www.w3.org/2000/svg" xmlns:xlink="http://www.w3.org/1999/xlink">
    <!-- Generator: Sketch 46.2 (44496) - http://www.bohemiancoding.com/sketch -->
    <title>trash O</title>
    <desc>Created with Sketch.</desc>
    <defs></defs>
    <g id="Page-1" stroke="none" stroke-width="1" fill="none" fill-rule="evenodd">
        <g id="L7a" transform="translate(-522.000000, -314.000000)" fill="#4D4E4C">
            <path d="M535,321 L532,321 C531.447715,321 531,321.447715 531,322 C531,322.552285 531.447715,323 532,323 L543,323 C543.552285,323 544,322.552285 544,322 C544,321.447715 543.552285,321 543,321 L540,321 C540,320.447715 539.552285,320 539,320 L536,320 C535.447715,320 535,320.447715 535,321 Z M537.5,345 C528.939586,345 522,338.060414 522,329.5 C522,320.939586 528.939586,314 537.5,314 C546.060414,314 553,320.939586 553,329.5 C553,338.060414 546.060414,345 537.5,345 Z M532.073977,324.000009 C532.050205,324.000009 532.026441,324.000857 532.002729,324.00255 C531.451848,324.041899 531.037169,324.520375 531.076518,325.071256 L531.93366,337.071193 C531.971039,337.594498 532.40648,337.999945 532.931119,337.999945 L532.931119,337.999945 L542.068881,337.999945 C542.59352,337.999945 543.028961,337.594498 543.06634,337.071193 L543.923482,325.071256 C543.925176,325.047545 543.926023,325.023781 543.926023,325.000009 C543.926023,324.447724 543.478308,324.000009 542.926023,324.000009 L532.073977,324.000009 Z M534.5,326 C534.776142,326 535,326.223858 535,326.5 L535,335.5 C535,335.776142 534.776142,336 534.5,336 C534.223858,336 534,335.776142 534,335.5 L534,326.5 C534,326.223858 534.223858,326 534.5,326 Z M537.5,326 C537.776142,326 538,326.223858 538,326.5 L538,335.5 C538,335.776142 537.776142,336 537.5,336 C537.223858,336 537,335.776142 537,335.5 L537,326.5 C537,326.223858 537.223858,326 537.5,326 Z M540.5,326.000007 C540.776142,326.000007 541,326.223864 541,326.500007 L541,335.499918 C541,335.776061 540.776142,335.999918 540.5,335.999918 C540.223858,335.999918 540,335.776061 540,335.499918 L540,326.500007 C540,326.223864 540.223858,326.000007 540.5,326.000007 Z" id="trash-O"></path>
        </g>
    </g>
</svg>