P2
80 80
255
0 0 0 0 0 0 0 0 
0 0 0 0 0 0 0 0 
0 0 0 0 0 0 0 0 
0 0 0 0 0 0 0 0 
0 0 0 0 0 0 0 0 
0 0 0 0 0 0 0 0 
0 0 0 0 0 0 0 0 
0 0 0 0 0 0 0 0 
0 0 0 0 0 0 0 0 
0 0 0 0 0 0 0 0 

0 0 0 0 0 0 0 0 
0 0 0 0 0 0 0 0 
0 0 0 0 0 0 0 0 
0 0 0 0 0 0 0 0 
0 0 0 0 0 0 0 0 
0 0 0 0 0 0 0 0 
0 0 0 0 0 0 0 0 
0 0 0 0 0 0 0 0 
0 0 0 0 0 0 0 0 
0 0 0 0 0 0 0 0 

0 0 0 0 0 0 0 0 
0 0 0 0 0 0 0 0 
0 0 0 0 0 0 0 0 
0 0 0 0 0 0 0 0 
0 0 0 0 0 0 0 0 
0 0 0 0 0 0 0 0 
0 0 0 0 0 0 0 0 
0 0 0 0 0 0 0 0 
0 0 0 0 0 0 0 0 
0 0 0 0 0 0 0 0 

0 0 0 0 0 0 0 0 
0 0 0 0 0 0 0 0 
0 0 0 0 0 0 0 0 
0 0 0 0 0 0 0 0 
0 0 0 0 0 0 0 0 
0 0 0 0 0 0 0 0 
0 0 0 0 0 0 0 0 
0 0 0 0 0 0 0 0 
0 0 0 0 0 0 0 0 
0 0 0 0 0 0 0 0 

0 0 0 0 0 0 0 0 
0 0 0 0 0 0 0 0 
0 0 0 0 0 0 0 0 
0 0 0 0 0 0 0 0 
0 0 0 0 0 0 0 0 
0 0 0 0 0 0 0 0 
0 0 0 0 0 0 0 0 
0 0 0 0 0 0 0 0 
0 0 0 0 0 0 0 0 
0 0 0 0 0 0 0 0 

0 0 0 0 0 0 0 0 
0 0 0 0 0 0 0 0 
0 0 0 0 0 0 0 0 
0 0 0 0 0 0 0 0 
0 0 0 0 0 0 0 0 
0 0 0 0 0 0 0 0 
0 0 0 0 0 0 0 0 
0 0 0 0 0 0 0 0 
0 0 0 0 0 0 0 0 
0 0 0 0 0 0 0 0 

0 0 0 0 0 0 0 0 
0 0 0 0 0 0 0 0 
0 0 0 0 0 0 0 0 
0 0 0 0 0 0 0 0 
0 0 0 0 0 0 0 0 
0 0 0 0 0 0 0 0 
0 0 0 0 0 0 0 0 
0 0 0 0 0 0 0 0 
0 0 0 0 0 0 0 0 
0 0 0 0 0 0 0 0 

0 0 0 0 0 0 0 0 
0 0 0 0 0 0 0 0 
0 0 0 0 0 0 0 0 
0 0 0 0 0 0 0 0 
0 0 0 0 0 0 50 0 
0 71 3 0 0 0 0 0 
0 0 0 0 0 0 0 0 
0 0 0 0 0 0 0 0 
0 0 0 0 0 0 0 0 
0 0 0 0 0 0 0 0 

0 0 0 0 0 0 0 0 
0 0 0 0 0 0 0 0 
0 0 0 0 0 0 0 0 
0 0 0 0 0 0 0 0 
0 0 0 0 0 64 79 0 
0 113 104 2 0 0 0 0 
0 0 0 0 0 0 0 0 
0 0 0 0 0 0 0 0 
0 0 0 0 0 0 0 0 
0 0 0 0 0 0 0 0 

0 0 0 0 0 0 0 0 
0 0 0 0 0 0 0 0 
0 0 0 0 0 0 0 0 
0 0 0 0 0 0 0 0 
0 0 0 0 73 88 78 0 
0 113 147 116 0 0 0 0 
0 0 0 0 0 0 0 0 
0 0 0 0 0 0 0 0 
0 0 0 0 0 0 0 0 
0 0 0 0 0 0 0 0 

0 0 0 0 0 0 0 0 
0 0 0 0 0 0 0 0 
0 0 0 0 0 0 0 0 
0 0 0 0 0 0 0 0 
0 0 0 65 88 88 78 0 
0 113 147 148 112 3 0 0 
0 0 0 0 0 0 0 0 
0 0 0 0 0 0 0 0 
0 0 0 0 0 0 0 0 
0 0 0 0 0 0 0 0 

0 0 0 0 0 0 0 0 
0 0 0 0 0 0 0 0 
0 0 0 0 0 0 0 0 
0 0 0 0 0 0 0 0 
0 1 66 89 88 88 78 0 
0 113 147 146 146 105 1 0 
0 0 0 0 0 0 0 0 
0 0 0 0 0 0 0 0 
0 0 0 0 0 0 0 0 
0 0 0 0 0 0 0 0 

0 0 0 0 0 0 0 0 
0 0 0 0 0 0 0 0 
0 0 0 0 0 0 0 0 
0 0 0 0 0 0 0 0 
0 72 88 88 88 88 78 0 
0 113 147 146 146 147 118 1 
0 0 0 0 0 0 0 0 
0 0 0 0 0 0 0 0 
0 0 0 0 0 0 0 0 
0 0 0 0 0 0 0 0 

0 0 0 0 0 0 0 0 
0 0 0 0 0 0 0 0 
0 0 0 0 0 0 0 0 
0 0 0 0 0 0 0 0 
64 89 88 88 88 88 79 0 
0 116 147 146 146 146 147 109 
3 0 0 0 0 0 0 0 
0 0 0 0 0 0 0 0 
0 0 0 0 0 0 0 0 
0 0 0 0 0 0 0 0 

0 0 0 0 0 0 0 0 
0 0 0 0 0 0 0 0 
0 0 0 0 0 0 0 0 
0 0 0 0 0 0 1 71 
89 88 88 88 88 89 43 0 
0 45 147 146 146 146 146 146 
111 1 0 0 0 0 0 0 
0 0 0 0 0 0 0 0 
0 0 0 0 0 0 0 0 
0 0 0 0 0 0 0 0 

0 0 0 0 0 0 0 0 
0 0 0 0 0 0 0 0 
0 0 0 0 0 0 0 0 
0 0 0 0 0 0 69 88 
88 88 88 88 91 36 0 0 
0 0 48 156 146 146 146 146 
148 118 2 0 0 0 0 0 
0 0 0 0 0 0 0 0 
0 0 0 0 0 0 0 0 
0 0 0 0 0 0 0 0 

0 0 0 0 0 0 0 0 
0 0 0 0 0 0 0 0 
0 0 0 0 0 0 0 0 
0 0 0 0 0 64 89 88 
88 88 88 88 39 0 0 0 
0 0 0 50 148 146 146 146 
146 147 107 3 0 0 0 0 
0 0 0 0 0 0 0 0 
0 0 0 0 0 0 0 0 
0 0 0 0 0 0 0 0 

0 0 0 0 0 0 0 0 
0 0 0 0 0 0 0 0 
0 0 0 0 0 0 0 0 
0 0 0 1 74 88 88 88 
88 88 91 39 0 0 0 0 
0 0 0 0 44 150 146 146 
146 146 146 117 0 0 0 0 
0 0 0 0 0 0 0 0 
0 0 0 0 0 0 0 0 
0 0 0 0 0 0 0 0 

0 0 0 0 0 0 0 0 
0 0 0 0 0 0 0 0 
0 0 0 0 0 0 0 0 
0 0 0 66 88 88 88 88 
88 91 35 0 0 5 59 0 
0 79 12 0 0 48 156 146 
146 146 146 148 116 3 0 0 
0 0 0 0 0 0 0 0 
0 0 0 0 0 0 0 0 
0 0 0 0 0 0 0 0 

0 0 0 0 0 0 0 0 
0 0 0 0 0 0 0 0 
0 0 0 0 0 0 0 0 
0 1 67 89 88 88 88 88 
88 40 0 0 3 75 76 0 
0 111 133 7 0 0 45 146 
146 146 146 146 146 108 2 0 
0 0 0 0 0 0 0 0 
0 0 0 0 0 0 0 0 
0 0 0 0 0 0 0 0 

0 0 0 0 0 0 0 0 
0 0 0 0 0 0 0 0 
0 0 0 0 0 0 0 0 
0 74 88 88 88 88 88 91 
37 0 0 3 81 88 76 0 
0 111 147 130 1 0 0 44 
154 146 146 146 146 147 120 1 
0 0 0 0 0 0 0 0 
0 0 0 0 0 0 0 0 
0 0 0 0 0 0 0 0 

0 0 0 0 0 0 0 0 
0 0 0 0 0 0 0 0 
0 0 0 0 0 0 0 0 
65 88 88 88 88 88 89 36 
0 0 5 74 88 88 76 0 
0 111 147 147 131 12 0 0 
50 154 146 146 146 146 148 113 
4 0 0 0 0 0 0 0 
0 0 0 0 0 0 0 0 
0 0 0 0 0 0 0 0 

0 0 0 0 0 0 0 0 
0 0 0 0 0 0 0 0 
0 0 0 0 0 0 2 72 
89 88 88 88 88 89 42 0 
0 3 78 88 88 88 76 0 
0 111 147 146 146 131 3 0 
0 43 146 146 146 146 146 146 
113 1 0 0 0 0 0 0 
0 0 0 0 0 0 0 0 
0 0 0 0 0 0 0 0 

0 0 0 0 0 0 0 0 
0 0 0 0 0 0 0 0 
0 0 0 0 0 0 72 88 
88 88 88 88 91 35 0 0 
4 80 89 88 88 88 76 0 
0 111 147 146 146 147 130 5 
0 0 46 156 146 146 146 146 
147 121 2 0 0 0 0 0 
0 0 0 0 0 0 0 0 
0 0 0 0 0 0 0 0 

0 0 0 0 0 0 0 0 
0 0 0 0 0 0 0 0 
0 0 0 0 0 65 89 88 
88 88 88 88 37 0 0 4 
74 88 88 88 88 88 76 0 
0 111 147 146 146 146 147 131 
12 0 0 47 148 146 146 146 
146 147 109 4 0 0 0 0 
0 0 0 0 0 0 0 0 
0 0 0 0 0 0 0 0 

0 0 0 0 0 0 0 0 
0 0 0 0 0 0 0 0 
0 0 0 1 75 88 88 88 
88 88 91 39 0 0 3 81 
88 88 88 88 88 88 76 0 
0 111 147 146 146 146 146 146 
131 1 0 0 40 150 146 146 
146 146 146 118 0 0 0 0 
0 0 0 0 0 0 0 0 
0 0 0 0 0 0 0 0 

0 0 0 0 0 0 0 0 
0 0 0 0 0 0 0 0 
0 0 0 68 88 88 88 88 
88 91 35 0 0 5 78 89 
88 88 88 88 88 88 76 0 
0 111 147 146 146 146 146 146 
147 131 10 0 0 47 156 146 
146 146 146 148 118 4 0 0 
0 0 0 0 0 0 0 0 
0 0 0 0 0 0 0 0 

0 0 0 0 0 0 0 0 
0 0 0 0 0 0 0 0 
0 1 67 88 88 88 88 88 
88 39 0 0 4 75 88 88 
88 88 88 88 88 88 76 0 
0 111 147 146 146 146 146 146 
146 146 133 10 0 0 45 146 
146 146 146 146 146 112 3 0 
0 0 0 0 0 0 0 0 
0 0 0 0 0 0 0 0 

0 0 0 0 0 0 0 0 
0 0 0 0 0 0 0 0 
1 75 88 88 88 88 88 91 
37 0 0 4 82 88 88 88 
88 88 88 88 88 88 76 0 
0 111 147 146 146 146 146 146 
146 146 146 131 1 0 0 42 
154 146 146 146 146 146 121 1 
0 0 0 0 0 0 0 0 
0 0 0 0 0 0 0 0 

0 0 0 0 0 0 0 0 
0 0 0 0 0 0 0 0 
66 88 88 88 88 88 89 35 
0 0 6 75 88 88 88 88 
88 88 88 88 88 88 76 0 
0 111 147 146 146 146 146 146 
146 146 146 147 131 13 0 0 
48 154 146 146 146 146 148 116 
5 0 0 0 0 0 0 0 
0 0 0 0 0 0 0 0 

0 0 0 0 0 0 0 0 
0 0 0 0 0 0 2 72 
88 88 88 88 88 89 39 0 
0 3 78 88 88 88 88 88 
88 88 88 88 88 88 76 0 
0 111 147 146 146 146 146 146 
146 146 146 146 146 134 5 0 
0 40 146 146 146 146 146 146 
114 1 0 0 0 0 0 0 
0 0 0 0 0 0 0 0 

0 0 0 0 0 0 0 0 
0 0 0 0 0 0 73 88 
88 88 88 88 92 35 0 0 
5 81 89 88 88 88 88 88 
89 81 73 88 88 88 76 0 
0 111 147 146 146 116 109 147 
146 146 146 146 146 147 131 4 
0 0 43 155 146 146 146 146 
147 122 2 0 0 0 0 0 
0 0 0 0 0 0 0 0 

0 0 0 0 0 0 0 0 
0 0 0 0 1 66 88 88 
88 88 88 88 36 0 0 5 
74 88 88 88 88 88 88 88 
74 1 65 88 88 88 76 0 
0 111 147 146 146 100 0 117 
148 146 146 146 146 146 147 134 
14 0 0 46 150 146 146 146 
146 147 113 5 0 0 0 0 
0 0 0 0 0 0 0 0 

0 0 0 0 0 0 0 0 
0 0 0 2 76 88 88 88 
88 88 91 38 0 0 3 81 
88 88 88 88 88 88 88 81 
0 0 66 88 88 88 76 0 
0 111 147 146 146 100 0 0 
117 146 146 146 146 146 146 146 
134 2 0 0 39 148 146 146 
146 146 146 118 0 0 0 0 
0 0 0 0 0 0 0 0 

0 0 0 0 0 0 0 0 
0 0 0 71 88 88 88 88 
88 91 34 0 0 6 79 89 
88 88 88 88 88 89 79 4 
0 0 66 88 88 88 76 0 
0 111 147 146 146 100 0 0 
4 118 147 146 146 146 146 146 
147 133 10 0 0 45 156 146 
146 146 146 148 121 5 0 0 
0 0 0 0 0 0 0 0 

0 0 0 0 0 0 0 0 
0 1 68 88 88 88 88 88 
88 38 0 0 5 75 88 88 
88 88 88 88 88 76 0 0 
0 0 66 88 88 88 76 0 
0 111 147 146 146 100 0 0 
0 0 118 148 146 146 146 146 
146 146 137 12 0 0 44 146 
146 146 146 146 146 113 4 0 
0 0 0 0 0 0 0 0 

0 0 0 0 0 0 0 0 
1 78 88 88 88 88 88 92 
36 0 0 4 82 88 88 88 
88 88 88 88 84 2 0 0 
0 0 66 88 88 88 76 0 
0 111 147 146 146 100 0 0 
0 0 0 120 146 146 146 146 
146 146 146 133 1 0 0 37 
152 146 146 146 146 146 122 1 
0 0 0 0 0 0 0 0 

0 0 0 0 0 0 0 0 
68 88 88 88 88 88 89 34 
0 0 7 76 88 88 88 88 
88 88 88 76 3 0 0 0 
0 0 66 88 88 88 76 0 
0 111 147 146 146 100 0 0 
0 0 0 5 121 148 146 146 
146 146 146 147 134 14 0 0 
46 155 146 146 146 146 148 118 
7 0 0 0 0 0 0 0 

0 0 0 0 0 0 2 73 
88 88 88 88 88 88 38 0 
0 4 79 88 88 88 88 88 
88 88 80 1 0 0 0 0 
0 0 66 88 88 88 76 0 
0 111 147 146 146 100 0 0 
0 0 0 0 0 120 147 146 
146 146 146 146 146 137 9 0 
0 39 144 146 146 146 146 146 
116 2 0 0 0 0 0 0 

0 0 0 0 0 2 75 88 
88 88 88 88 88 42 0 0 
0 55 91 88 88 88 88 88 
88 84 5 0 0 0 0 0 
0 0 66 88 88 88 76 0 
0 111 147 146 146 100 0 0 
0 0 0 0 0 2 123 146 
146 146 146 146 146 148 104 0 
0 0 59 151 146 146 146 146 
147 125 6 0 0 0 0 0 

0 0 0 0 0 7 75 89 
88 88 88 88 88 82 13 0 
0 0 62 91 88 88 88 88 
76 2 0 0 0 0 0 0 
0 0 66 88 88 88 76 0 
0 111 147 146 146 100 0 0 
0 0 0 0 0 0 4 122 
148 146 146 146 147 105 0 0 
0 14 135 146 146 146 146 146 
147 130 10 0 0 0 0 0 

0 0 0 0 0 0 1 76 
88 88 88 88 88 88 87 11 
0 0 0 65 88 88 88 84 
2 0 0 0 0 0 0 0 
0 0 66 88 88 88 76 0 
0 111 147 146 146 100 0 0 
0 0 0 0 0 0 0 0 
123 146 146 147 121 0 0 0 
13 148 146 146 146 146 146 146 
133 0 0 0 0 0 0 0 

0 0 0 0 0 0 0 4 
73 88 88 88 88 88 88 84 
15 0 0 0 64 91 82 6 
0 0 0 0 0 0 0 0 
0 0 66 88 88 88 76 0 
0 111 147 146 146 100 0 0 
0 0 0 0 0 0 0 0 
6 126 148 107 1 0 0 12 
135 146 146 146 146 146 147 135 
11 0 0 0 0 0 0 0 

0 0 0 0 0 0 0 0 
4 76 89 88 88 88 88 88 
84 12 0 0 0 54 2 0 
0 0 0 0 0 0 0 0 
0 0 66 88 88 88 76 0 
0 111 147 146 146 100 0 0 
0 0 0 0 0 0 0 0 
0 1 93 0 0 0 16 143 
146 146 146 146 146 147 127 2 
0 0 0 0 0 0 0 0 

0 0 0 0 0 0 0 0 
0 0 75 88 88 88 88 88 
88 87 13 0 0 0 0 0 
0 0 0 0 0 0 0 0 
0 0 66 88 88 88 76 0 
0 111 147 146 146 100 0 0 
0 0 0 0 0 0 0 0 
0 0 0 0 0 12 146 146 
146 146 146 146 146 134 1 0 
0 0 0 0 0 0 0 0 

0 0 0 0 0 0 0 0 
0 0 5 73 88 88 88 88 
88 88 84 15 0 0 0 0 
0 0 0 0 0 0 0 0 
0 0 66 88 88 88 76 0 
0 111 147 146 146 100 0 0 
0 0 0 0 0 0 0 0 
0 0 0 0 13 134 146 146 
146 146 146 147 133 11 0 0 
0 0 0 0 0 0 0 0 

0 0 0 0 0 0 0 0 
0 0 0 2 76 89 88 88 
88 88 88 86 11 0 0 0 
0 0 0 0 0 0 0 0 
0 0 66 88 88 88 76 0 
0 111 147 146 146 100 0 0 
0 0 0 0 0 0 0 0 
0 0 0 15 147 146 146 146 
146 146 147 129 0 0 0 0 
0 0 0 0 0 0 0 0 

0 0 0 0 0 0 0 0 
0 0 0 0 1 73 88 88 
88 88 88 88 87 15 0 0 
0 0 0 0 0 0 0 0 
0 0 66 88 88 88 76 0 
0 111 147 146 146 100 0 0 
0 0 0 0 0 0 0 0 
0 0 12 142 146 146 146 146 
146 146 134 5 0 0 0 0 
0 0 0 0 0 0 0 0 

0 0 0 0 0 0 0 0 
0 0 0 0 0 5 74 89 
88 88 88 88 88 84 14 0 
0 0 0 0 0 0 0 0 
0 0 66 88 88 88 76 0 
0 111 147 146 146 100 0 0 
0 0 0 0 0 0 0 0 
0 15 138 146 146 146 146 146 
147 129 7 0 0 0 0 0 
0 0 0 0 0 0 0 0 

0 0 0 0 0 0 0 0 
0 0 0 0 0 0 1 76 
88 88 88 88 88 88 87 11 
0 0 0 0 0 0 0 0 
0 0 66 88 88 88 76 0 
0 111 147 146 146 100 0 0 
0 0 0 0 0 0 0 0 
14 150 146 146 146 146 146 146 
130 0 0 0 0 0 0 0 
0 0 0 0 0 0 0 0 

0 0 0 0 0 0 0 0 
0 0 0 0 0 0 0 3 
73 88 88 88 88 88 88 86 
16 0 0 0 0 0 0 0 
0 0 66 88 88 88 76 0 
0 111 147 146 146 100 0 0 
0 0 0 0 0 0 0 12 
138 146 146 146 146 146 147 134 
9 0 0 0 0 0 0 0 
0 0 0 0 0 0 0 0 

0 0 0 0 0 0 0 0 
0 0 0 0 0 0 0 0 
4 75 89 88 88 88 88 88 
84 13 0 0 0 0 0 0 
0 0 66 88 88 88 76 0 
0 111 147 146 146 100 0 0 
0 0 0 0 0 0 16 143 
146 146 146 146 146 147 127 3 
0 0 0 0 0 0 0 0 
0 0 0 0 0 0 0 0 

0 0 0 0 0 0 0 0 
0 0 0 0 0 0 0 0 
0 0 74 88 88 88 88 88 
88 87 13 0 0 0 0 0 
0 0 66 88 88 88 76 0 
0 111 147 146 146 100 0 0 
0 0 0 0 0 14 147 146 
146 146 146 146 146 131 0 0 
0 0 0 0 0 0 0 0 
0 0 0 0 0 0 0 0 

0 0 0 0 0 0 0 0 
0 0 0 0 0 0 0 0 
0 0 4 72 88 88 88 88 
88 88 84 16 0 0 0 0 
0 0 66 88 88 88 76 0 
0 111 147 146 146 100 0 0 
0 0 0 0 14 137 146 146 
146 146 146 147 131 10 0 0 
0 0 0 0 0 0 0 0 
0 0 0 0 0 0 0 0 

0 0 0 0 0 0 0 0 
0 0 0 0 0 0 0 0 
0 0 0 2 76 89 88 88 
88 88 88 86 12 0 0 0 
0 0 66 88 88 88 76 0 
0 111 147 146 146 100 0 0 
0 0 0 18 147 146 146 146 
146 146 147 127 0 0 0 0 
0 0 0 0 0 0 0 0 
0 0 0 0 0 0 0 0 

0 0 0 0 0 0 0 0 
0 0 0 0 0 0 0 0 
0 0 0 0 1 73 88 88 
88 88 88 88 87 15 0 0 
0 0 66 88 88 88 76 0 
0 111 147 146 146 100 0 0 
0 0 13 143 146 146 146 146 
146 146 133 3 0 0 0 0 
0 0 0 0 0 0 0 0 
0 0 0 0 0 0 0 0 

0 0 0 0 0 0 0 0 
0 0 0 0 0 0 0 0 
0 0 0 0 0 4 73 89 
88 88 88 88 88 84 15 0 
0 0 66 88 88 88 76 0 
0 111 147 146 146 100 0 0 
0 15 138 146 146 146 146 146 
147 129 7 0 0 0 0 0 
0 0 0 0 0 0 0 0 
0 0 0 0 0 0 0 0 

0 0 0 0 0 0 0 0 
0 0 0 0 0 0 0 0 
0 0 0 0 0 0 1 75 
88 88 88 88 88 88 87 10 
0 0 66 88 88 88 76 0 
0 111 147 146 146 100 0 0 
14 150 146 146 146 146 146 146 
129 0 0 0 0 0 0 0 
0 0 0 0 0 0 0 0 
0 0 0 0 0 0 0 0 

0 0 0 0 0 0 0 0 
0 0 0 0 0 0 0 0 
0 0 0 0 0 0 0 2 
71 88 88 88 88 88 89 42 
0 0 66 88 88 88 76 0 
0 111 147 146 146 100 0 0 
64 146 146 146 146 146 147 133 
7 0 0 0 0 0 0 0 
0 0 0 0 0 0 0 0 
0 0 0 0 0 0 0 0 

0 0 0 0 0 0 0 0 
0 0 0 0 0 0 0 0 
0 0 0 0 0 0 0 0 
3 74 89 88 88 88 88 42 
0 0 66 88 88 88 76 0 
0 111 147 146 146 100 0 0 
64 146 146 146 146 147 126 3 
0 0 0 0 0 0 0 0 
0 0 0 0 0 0 0 0 
0 0 0 0 0 0 0 0 

0 0 0 0 0 0 0 0 
0 0 0 0 0 0 0 0 
0 0 0 0 0 0 0 0 
0 0 74 88 88 88 88 42 
0 0 66 88 88 88 76 0 
0 111 147 146 146 100 0 0 
64 146 146 146 146 130 0 0 
0 0 0 0 0 0 0 0 
0 0 0 0 0 0 0 0 
0 0 0 0 0 0 0 0 

0 0 0 0 0 0 0 0 
0 0 0 0 0 0 0 0 
0 0 0 0 0 0 0 0 
0 0 3 71 88 88 88 42 
0 0 66 88 88 88 76 0 
0 111 147 146 146 100 0 0 
64 146 146 147 129 9 0 0 
0 0 0 0 0 0 0 0 
0 0 0 0 0 0 0 0 
0 0 0 0 0 0 0 0 

0 0 0 0 0 0 0 0 
0 0 0 0 0 0 0 0 
0 0 0 0 0 0 0 0 
0 0 0 2 75 89 88 40 
0 0 66 88 88 88 76 0 
0 111 147 146 146 100 0 0 
62 146 147 125 0 0 0 0 
0 0 0 0 0 0 0 0 
0 0 0 0 0 0 0 0 
0 0 0 0 0 0 0 0 

0 0 0 0 0 0 0 0 
0 0 0 0 0 0 0 0 
0 0 0 0 0 0 0 0 
0 0 0 0 1 72 88 40 
0 0 66 88 88 88 76 0 
0 111 147 146 146 100 0 0 
62 146 130 2 0 0 0 0 
0 0 0 0 0 0 0 0 
0 0 0 0 0 0 0 0 
0 0 0 0 0 0 0 0 

0 0 0 0 0 0 0 0 
0 0 0 0 0 0 0 0 
0 0 0 0 0 0 0 0 
0 0 0 0 0 4 72 43 
0 0 66 88 88 88 76 0 
0 111 147 146 146 100 0 0 
65 127 7 0 0 0 0 0 
0 0 0 0 0 0 0 0 
0 0 0 0 0 0 0 0 
0 0 0 0 0 0 0 0 

0 0 0 0 0 0 0 0 
0 0 0 0 0 0 0 0 
0 0 0 0 0 0 0 0 
0 0 0 0 0 0 1 16 
0 0 66 88 88 88 76 0 
0 111 147 146 146 100 0 0 
32 0 0 0 0 0 0 0 
0 0 0 0 0 0 0 0 
0 0 0 0 0 0 0 0 
0 0 0 0 0 0 0 0 

0 0 0 0 0 0 0 0 
0 0 0 0 0 0 0 0 
0 0 0 0 0 0 0 0 
0 0 0 0 0 0 0 0 
0 0 66 88 88 88 76 0 
0 111 147 146 146 100 0 0 
0 0 0 0 0 0 0 0 
0 0 0 0 0 0 0 0 
0 0 0 0 0 0 0 0 
0 0 0 0 0 0 0 0 

0 0 0 0 0 0 0 0 
0 0 0 0 0 0 0 0 
0 0 0 0 0 0 0 0 
0 0 0 0 0 0 0 0 
0 0 66 88 88 88 76 0 
0 111 147 146 146 100 0 0 
0 0 0 0 0 0 0 0 
0 0 0 0 0 0 0 0 
0 0 0 0 0 0 0 0 
0 0 0 0 0 0 0 0 

0 0 0 0 0 0 0 0 
0 0 0 0 0 0 0 0 
0 0 0 0 0 0 0 0 
0 0 0 0 0 0 0 0 
0 0 65 88 88 88 76 0 
0 111 147 146 146 98 0 0 
0 0 0 0 0 0 0 0 
0 0 0 0 0 0 0 0 
0 0 0 0 0 0 0 0 
0 0 0 0 0 0 0 0 

0 0 0 0 0 0 0 0 
0 0 0 0 0 0 0 0 
0 0 0 0 0 0 0 0 
0 0 0 0 0 0 0 0 
0 0 3 69 88 88 76 0 
0 111 147 147 129 9 0 0 
0 0 0 0 0 0 0 0 
0 0 0 0 0 0 0 0 
0 0 0 0 0 0 0 0 
0 0 0 0 0 0 0 0 

0 0 0 0 0 0 0 0 
0 0 0 0 0 0 0 0 
0 0 0 0 0 0 0 0 
0 0 0 0 0 0 0 0 
0 0 0 2 74 89 76 0 
0 111 148 122 0 0 0 0 
0 0 0 0 0 0 0 0 
0 0 0 0 0 0 0 0 
0 0 0 0 0 0 0 0 
0 0 0 0 0 0 0 0 

0 0 0 0 0 0 0 0 
0 0 0 0 0 0 0 0 
0 0 0 0 0 0 0 0 
0 0 0 0 0 0 0 0 
0 0 0 0 0 71 76 0 
0 111 129 0 0 0 0 0 
0 0 0 0 0 0 0 0 
0 0 0 0 0 0 0 0 
0 0 0 0 0 0 0 0 
0 0 0 0 0 0 0 0 

0 0 0 0 0 0 0 0 
0 0 0 0 0 0 0 0 
0 0 0 0 0 0 0 0 
0 0 0 0 0 0 0 0 
0 0 0 0 0 3 48 0 
0 66 9 0 0 0 0 0 
0 0 0 0 0 0 0 0 
0 0 0 0 0 0 0 0 
0 0 0 0 0 0 0 0 
0 0 0 0 0 0 0 0 

0 0 0 0 0 0 0 0 
0 0 0 0 0 0 0 0 
0 0 0 0 0 0 0 0 
0 0 0 0 0 0 0 0 
0 0 0 0 0 0 0 0 
0 0 0 0 0 0 0 0 
0 0 0 0 0 0 0 0 
0 0 0 0 0 0 0 0 
0 0 0 0 0 0 0 0 
0 0 0 0 0 0 0 0 

0 0 0 0 0 0 0 0 
0 0 0 0 0 0 0 0 
0 0 0 0 0 0 0 0 
0 0 0 0 0 0 0 0 
0 0 0 0 0 0 0 0 
0 0 0 0 0 0 0 0 
0 0 0 0 0 0 0 0 
0 0 0 0 0 0 0 0 
0 0 0 0 0 0 0 0 
0 0 0 0 0 0 0 0 

0 0 0 0 0 0 0 0 
0 0 0 0 0 0 0 0 
0 0 0 0 0 0 0 0 
0 0 0 0 0 0 0 0 
0 0 0 0 0 0 0 0 
0 0 0 0 0 0 0 0 
0 0 0 0 0 0 0 0 
0 0 0 0 0 0 0 0 
0 0 0 0 0 0 0 0 
0 0 0 0 0 0 0 0 

0 0 0 0 0 0 0 0 
0 0 0 0 0 0 0 0 
0 0 0 0 0 0 0 0 
0 0 0 0 0 0 0 0 
0 0 0 0 0 0 0 0 
0 0 0 0 0 0 0 0 
0 0 0 0 0 0 0 0 
0 0 0 0 0 0 0 0 
0 0 0 0 0 0 0 0 
0 0 0 0 0 0 0 0 

0 0 0 0 0 0 0 0 
0 0 0 0 0 0 0 0 
0 0 0 0 0 0 0 0 
0 0 0 0 0 0 0 0 
0 0 0 0 0 0 0 0 
0 0 0 0 0 0 0 0 
0 0 0 0 0 0 0 0 
0 0 0 0 0 0 0 0 
0 0 0 0 0 0 0 0 
0 0 0 0 0 0 0 0 

0 0 0 0 0 0 0 0 
0 0 0 0 0 0 0 0 
0 0 0 0 0 0 0 0 
0 0 0 0 0 0 0 0 
0 0 0 0 0 0 0 0 
0 0 0 0 0 0 0 0 
0 0 0 0 0 0 0 0 
0 0 0 0 0 0 0 0 
0 0 0 0 0 0 0 0 
0 0 0 0 0 0 0 0 

0 0 0 0 0 0 0 0 
0 0 0 0 0 0 0 0 
0 0 0 0 0 0 0 0 
0 0 0 0 0 0 0 0 
0 0 0 0 0 0 0 0 
0 0 0 0 0 0 0 0 
0 0 0 0 0 0 0 0 
0 0 0 0 0 0 0 0 
0 0 0 0 0 0 0 0 
0 0 0 0 0 0 0 0 

