P3
80 80
255
0 0 0 0 0 0 0 0 0 0 0 0 0 0 0 0 0 0 0 0 0 0 0 0 
0 0 0 0 0 0 0 0 0 0 0 0 0 0 0 0 0 0 0 0 0 0 0 0 
0 0 0 0 0 0 0 0 0 0 0 0 0 0 0 0 0 0 0 0 0 0 0 0 
0 0 0 0 0 0 0 0 0 0 0 0 0 0 0 0 0 0 0 0 0 0 0 0 
0 0 0 0 0 0 0 0 0 0 0 0 0 0 0 0 0 0 0 0 0 0 0 0 
0 0 0 0 0 0 0 0 0 0 0 0 0 0 0 0 0 0 0 0 0 0 0 0 
0 0 0 0 0 0 0 0 0 0 0 0 0 0 0 0 0 0 0 0 0 0 0 0 
0 0 0 0 0 0 0 0 0 0 0 0 0 0 0 0 0 0 0 0 0 0 0 0 
0 0 0 0 0 0 0 0 0 0 0 0 0 0 0 0 0 0 0 0 0 0 0 0 
0 0 0 0 0 0 0 0 0 0 0 0 0 0 0 0 0 0 0 0 0 0 0 0 

0 0 0 0 0 0 0 0 0 0 0 0 0 0 0 0 0 0 0 0 0 0 0 0 
0 0 0 0 0 0 0 0 0 0 0 0 0 0 0 0 0 0 0 0 0 0 0 0 
0 0 0 0 0 0 0 0 0 0 0 0 0 0 0 0 0 0 0 0 0 0 0 0 
0 0 0 0 0 0 0 0 0 0 0 0 0 0 0 0 0 0 0 0 0 0 0 0 
0 0 0 0 0 0 0 0 0 0 0 0 0 0 0 0 0 0 0 0 0 0 0 0 
0 0 0 0 0 0 0 0 0 0 0 0 0 0 0 0 0 0 0 0 0 0 0 0 
0 0 0 0 0 0 0 0 0 0 0 0 0 0 0 0 0 0 0 0 0 0 0 0 
0 0 0 0 0 0 0 0 0 0 0 0 0 0 0 0 0 0 0 0 0 0 0 0 
0 0 0 0 0 0 0 0 0 0 0 0 0 0 0 0 0 0 0 0 0 0 0 0 
0 0 0 0 0 0 0 0 0 0 0 0 0 0 0 0 0 0 0 0 0 0 0 0 

0 0 0 0 0 0 0 0 0 0 0 0 0 0 0 0 0 0 0 0 0 0 0 0 
0 0 0 0 0 0 0 0 0 0 0 0 0 0 0 0 0 0 0 0 0 0 0 0 
0 0 0 0 0 0 0 0 0 0 0 0 0 0 0 0 0 0 0 0 0 0 0 0 
0 0 0 0 0 0 0 0 0 0 0 0 0 0 0 0 0 0 0 0 0 0 0 0 
0 0 0 0 0 0 0 0 0 0 0 0 0 0 0 0 0 0 0 0 0 0 0 0 
0 0 0 0 0 0 0 0 0 0 0 0 0 0 0 0 0 0 0 0 0 0 0 0 
0 0 0 0 0 0 0 0 0 0 0 0 0 0 0 0 0 0 0 0 0 0 0 0 
0 0 0 0 0 0 0 0 0 0 0 0 0 0 0 0 0 0 0 0 0 0 0 0 
0 0 0 0 0 0 0 0 0 0 0 0 0 0 0 0 0 0 0 0 0 0 0 0 
0 0 0 0 0 0 0 0 0 0 0 0 0 0 0 0 0 0 0 0 0 0 0 0 

0 0 0 0 0 0 0 0 0 0 0 0 0 0 0 0 0 0 0 0 0 0 0 0 
0 0 0 0 0 0 0 0 0 0 0 0 0 0 0 0 0 0 0 0 0 0 0 0 
0 0 0 0 0 0 0 0 0 0 0 0 0 0 0 0 0 0 0 0 0 0 0 0 
0 0 0 0 0 0 0 0 0 0 0 0 0 0 0 0 0 0 0 0 0 0 0 0 
0 0 0 0 0 0 0 0 0 0 0 0 0 0 0 0 0 0 0 0 0 0 0 0 
0 0 0 0 0 0 0 0 0 0 0 0 0 0 0 0 0 0 0 0 0 0 0 0 
0 0 0 0 0 0 0 0 0 0 0 0 0 0 0 0 0 0 0 0 0 0 0 0 
0 0 0 0 0 0 0 0 0 0 0 0 0 0 0 0 0 0 0 0 0 0 0 0 
0 0 0 0 0 0 0 0 0 0 0 0 0 0 0 0 0 0 0 0 0 0 0 0 
0 0 0 0 0 0 0 0 0 0 0 0 0 0 0 0 0 0 0 0 0 0 0 0 

0 0 0 0 0 0 0 0 0 0 0 0 0 0 0 0 0 0 0 0 0 0 0 0 
0 0 0 0 0 0 0 0 0 0 0 0 0 0 0 0 0 0 0 0 0 0 0 0 
0 0 0 0 0 0 0 0 0 0 0 0 0 0 0 0 0 0 0 0 0 0 0 0 
0 0 0 0 0 0 0 0 0 0 0 0 0 0 0 0 0 0 0 0 0 0 0 0 
0 0 0 0 0 0 0 0 0 0 0 0 0 0 0 0 0 0 0 0 0 0 0 0 
0 0 0 0 0 0 0 0 0 0 0 0 0 0 0 0 0 0 0 0 0 0 0 0 
0 0 0 0 0 0 0 0 0 0 0 0 0 0 0 0 0 0 0 0 0 0 0 0 
0 0 0 0 0 0 0 0 0 0 0 0 0 0 0 0 0 0 0 0 0 0 0 0 
0 0 0 0 0 0 0 0 0 0 0 0 0 0 0 0 0 0 0 0 0 0 0 0 
0 0 0 0 0 0 0 0 0 0 0 0 0 0 0 0 0 0 0 0 0 0 0 0 

0 0 0 0 0 0 0 0 0 0 0 0 0 0 0 0 0 0 0 0 0 0 0 0 
0 0 0 0 0 0 0 0 0 0 0 0 0 0 0 0 0 0 0 0 0 0 0 0 
0 0 0 0 0 0 0 0 0 0 0 0 0 0 0 0 0 0 0 0 0 0 0 0 
0 0 0 0 0 0 0 0 0 0 0 0 0 0 0 0 0 0 0 0 0 0 0 0 
0 0 0 0 0 0 0 0 0 0 0 0 0 0 0 0 0 0 0 0 0 0 0 0 
0 0 0 0 0 0 0 0 0 0 0 0 0 0 0 0 0 0 0 0 0 0 0 0 
0 0 0 0 0 0 0 0 0 0 0 0 0 0 0 0 0 0 0 0 0 0 0 0 
0 0 0 0 0 0 0 0 0 0 0 0 0 0 0 0 0 0 0 0 0 0 0 0 
0 0 0 0 0 0 0 0 0 0 0 0 0 0 0 0 0 0 0 0 0 0 0 0 
0 0 0 0 0 0 0 0 0 0 0 0 0 0 0 0 0 0 0 0 0 0 0 0 

0 0 0 0 0 0 0 0 0 0 0 0 0 0 0 0 0 0 0 0 0 0 0 0 
0 0 0 0 0 0 0 0 0 0 0 0 0 0 0 0 0 0 0 0 0 0 0 0 
0 0 0 0 0 0 0 0 0 0 0 0 0 0 0 0 0 0 0 0 0 0 0 0 
0 0 0 0 0 0 0 0 0 0 0 0 0 0 0 0 0 0 0 0 0 0 0 0 
0 0 0 0 0 0 0 0 0 0 0 0 0 0 0 0 0 0 0 0 0 0 0 0 
0 0 0 0 0 0 0 0 0 0 0 0 0 0 0 0 0 0 0 0 0 0 0 0 
0 0 0 0 0 0 0 0 0 0 0 0 0 0 0 0 0 0 0 0 0 0 0 0 
0 0 0 0 0 0 0 0 0 0 0 0 0 0 0 0 0 0 0 0 0 0 0 0 
0 0 0 0 0 0 0 0 0 0 0 0 0 0 0 0 0 0 0 0 0 0 0 0 
0 0 0 0 0 0 0 0 0 0 0 0 0 0 0 0 0 0 0 0 0 0 0 0 

0 0 0 0 0 0 0 0 0 0 0 0 0 0 0 0 0 0 0 0 0 0 0 0 
0 0 0 0 0 0 0 0 0 0 0 0 0 0 0 0 0 0 0 0 0 0 0 0 
0 0 0 0 0 0 0 0 0 0 0 0 0 0 0 0 0 0 0 0 0 0 0 0 
0 0 0 0 0 0 0 0 0 0 0 0 0 0 0 0 0 0 0 0 0 0 0 0 
0 0 0 0 0 0 0 0 0 0 0 0 0 0 0 0 0 0 55 40 55 0 0 0 
0 0 0 76 56 76 4 3 4 0 0 0 0 0 0 0 0 0 0 0 0 0 0 0 
0 0 0 0 0 0 0 0 0 0 0 0 0 0 0 0 0 0 0 0 0 0 0 0 
0 0 0 0 0 0 0 0 0 0 0 0 0 0 0 0 0 0 0 0 0 0 0 0 
0 0 0 0 0 0 0 0 0 0 0 0 0 0 0 0 0 0 0 0 0 0 0 0 
0 0 0 0 0 0 0 0 0 0 0 0 0 0 0 0 0 0 0 0 0 0 0 0 

0 0 0 0 0 0 0 0 0 0 0 0 0 0 0 0 0 0 0 0 0 0 0 0 
0 0 0 0 0 0 0 0 0 0 0 0 0 0 0 0 0 0 0 0 0 0 0 0 
0 0 0 0 0 0 0 0 0 0 0 0 0 0 0 0 0 0 0 0 0 0 0 0 
0 0 0 0 0 0 0 0 0 0 0 0 0 0 0 0 0 0 0 0 0 0 0 0 
0 0 0 0 0 0 0 0 0 0 0 0 0 0 0 69 51 69 85 63 86 0 0 0 
0 0 0 119 88 120 111 82 111 3 2 3 0 0 0 0 0 0 0 0 0 0 0 0 
0 0 0 0 0 0 0 0 0 0 0 0 0 0 0 0 0 0 0 0 0 0 0 0 
0 0 0 0 0 0 0 0 0 0 0 0 0 0 0 0 0 0 0 0 0 0 0 0 
0 0 0 0 0 0 0 0 0 0 0 0 0 0 0 0 0 0 0 0 0 0 0 0 
0 0 0 0 0 0 0 0 0 0 0 0 0 0 0 0 0 0 0 0 0 0 0 0 

0 0 0 0 0 0 0 0 0 0 0 0 0 0 0 0 0 0 0 0 0 0 0 0 
0 0 0 0 0 0 0 0 0 0 0 0 0 0 0 0 0 0 0 0 0 0 0 0 
0 0 0 0 0 0 0 0 0 0 0 0 0 0 0 0 0 0 0 0 0 0 0 0 
0 0 0 0 0 0 0 0 0 0 0 0 0 0 0 0 0 0 0 0 0 0 0 0 
0 0 0 0 0 0 0 0 0 0 0 1 79 58 80 96 70 97 83 62 84 0 0 0 
0 0 0 118 88 119 151 112 152 122 90 123 1 0 1 0 0 0 0 0 0 0 0 0 
0 0 0 0 0 0 0 0 0 0 0 0 0 0 0 0 0 0 0 0 0 0 0 0 
0 0 0 0 0 0 0 0 0 0 0 0 0 0 0 0 0 0 0 0 0 0 0 0 
0 0 0 0 0 0 0 0 0 0 0 0 0 0 0 0 0 0 0 0 0 0 0 0 
0 0 0 0 0 0 0 0 0 0 0 0 0 0 0 0 0 0 0 0 0 0 0 0 

0 0 0 0 0 0 0 0 0 0 0 0 0 0 0 0 0 0 0 0 0 0 0 0 
0 0 0 0 0 0 0 0 0 0 0 0 0 0 0 0 0 0 0 0 0 0 0 0 
0 0 0 0 0 0 0 0 0 0 0 0 0 0 0 0 0 0 0 0 0 0 0 0 
0 0 0 0 0 0 0 0 0 0 0 0 0 0 0 0 0 0 0 0 0 0 0 0 
0 0 0 0 0 0 0 0 0 70 52 71 96 70 97 95 70 96 83 62 84 0 0 0 
0 0 0 118 88 119 151 112 152 153 113 154 119 87 119 4 3 4 0 0 0 0 0 0 
0 0 0 0 0 0 0 0 0 0 0 0 0 0 0 0 0 0 0 0 0 0 0 0 
0 0 0 0 0 0 0 0 0 0 0 0 0 0 0 0 0 0 0 0 0 0 0 0 
0 0 0 0 0 0 0 0 0 0 0 0 0 0 0 0 0 0 0 0 0 0 0 0 
0 0 0 0 0 0 0 0 0 0 0 0 0 0 0 0 0 0 0 0 0 0 0 0 

0 0 0 0 0 0 0 0 0 0 0 0 0 0 0 0 0 0 0 0 0 0 0 0 
0 0 0 0 0 0 0 0 0 0 0 0 0 0 0 0 0 0 0 0 0 0 0 0 
0 0 0 0 0 0 0 0 0 0 0 0 0 0 0 0 0 0 0 0 0 0 0 0 
0 0 0 0 0 0 0 0 0 0 0 0 0 0 0 0 0 0 0 0 0 0 0 0 
0 0 0 1 1 1 72 53 73 96 71 97 95 70 96 95 70 96 83 62 84 0 0 0 
0 0 0 118 88 119 151 112 152 150 111 151 150 111 151 112 83 113 2 1 2 0 0 0 
0 0 0 0 0 0 0 0 0 0 0 0 0 0 0 0 0 0 0 0 0 0 0 0 
0 0 0 0 0 0 0 0 0 0 0 0 0 0 0 0 0 0 0 0 0 0 0 0 
0 0 0 0 0 0 0 0 0 0 0 0 0 0 0 0 0 0 0 0 0 0 0 0 
0 0 0 0 0 0 0 0 0 0 0 0 0 0 0 0 0 0 0 0 0 0 0 0 

0 0 0 0 0 0 0 0 0 0 0 0 0 0 0 0 0 0 0 0 0 0 0 0 
0 0 0 0 0 0 0 0 0 0 0 0 0 0 0 0 0 0 0 0 0 0 0 0 
0 0 0 0 0 0 0 0 0 0 0 0 0 0 0 0 0 0 0 0 0 0 0 0 
0 0 0 0 0 0 0 0 0 0 0 0 0 0 0 0 0 0 0 0 0 0 0 0 
0 0 0 78 57 79 96 70 97 95 70 96 95 70 96 95 70 96 83 62 84 0 0 0 
0 0 0 118 88 119 151 112 152 150 111 151 150 111 151 151 112 152 125 92 125 1 1 1 
0 0 0 0 0 0 0 0 0 0 0 0 0 0 0 0 0 0 0 0 0 0 0 0 
0 0 0 0 0 0 0 0 0 0 0 0 0 0 0 0 0 0 0 0 0 0 0 0 
0 0 0 0 0 0 0 0 0 0 0 0 0 0 0 0 0 0 0 0 0 0 0 0 
0 0 0 0 0 0 0 0 0 0 0 0 0 0 0 0 0 0 0 0 0 0 0 0 

0 0 0 0 0 0 0 0 0 0 0 0 0 0 0 0 0 0 0 0 0 0 0 0 
0 0 0 0 0 0 0 0 0 0 0 0 0 0 0 0 0 0 0 0 0 0 0 0 
0 0 0 0 0 0 0 0 0 0 0 0 0 0 0 0 0 0 0 0 0 0 0 0 
0 0 0 0 0 0 0 0 0 0 0 0 0 0 0 0 0 0 0 0 0 0 0 0 
68 51 69 96 71 97 95 70 96 95 70 96 95 70 96 95 70 96 85 63 86 0 0 0 
0 0 0 122 90 122 151 112 152 150 111 151 150 111 151 150 111 151 152 112 153 115 85 116 
4 3 4 0 0 0 0 0 0 0 0 0 0 0 0 0 0 0 0 0 0 0 0 0 
0 0 0 0 0 0 0 0 0 0 0 0 0 0 0 0 0 0 0 0 0 0 0 0 
0 0 0 0 0 0 0 0 0 0 0 0 0 0 0 0 0 0 0 0 0 0 0 0 
0 0 0 0 0 0 0 0 0 0 0 0 0 0 0 0 0 0 0 0 0 0 0 0 

0 0 0 0 0 0 0 0 0 0 0 0 0 0 0 0 0 0 0 0 0 0 0 0 
0 0 0 0 0 0 0 0 0 0 0 0 0 0 0 0 0 0 0 0 0 0 0 0 
0 0 0 0 0 0 0 0 0 0 0 0 0 0 0 0 0 0 0 0 0 0 0 0 
0 0 0 0 0 0 0 0 0 0 0 0 0 0 0 0 0 0 2 1 2 76 56 77 
96 71 97 95 70 96 95 70 96 95 70 96 95 70 96 96 71 97 47 35 47 0 0 0 
0 0 0 49 36 49 151 112 152 150 111 151 150 111 151 150 111 151 150 111 151 150 111 151 
117 86 117 1 1 1 0 0 0 0 0 0 0 0 0 0 0 0 0 0 0 0 0 0 
0 0 0 0 0 0 0 0 0 0 0 0 0 0 0 0 0 0 0 0 0 0 0 0 
0 0 0 0 0 0 0 0 0 0 0 0 0 0 0 0 0 0 0 0 0 0 0 0 
0 0 0 0 0 0 0 0 0 0 0 0 0 0 0 0 0 0 0 0 0 0 0 0 

0 0 0 0 0 0 0 0 0 0 0 0 0 0 0 0 0 0 0 0 0 0 0 0 
0 0 0 0 0 0 0 0 0 0 0 0 0 0 0 0 0 0 0 0 0 0 0 0 
0 0 0 0 0 0 0 0 0 0 0 0 0 0 0 0 0 0 0 0 0 0 0 0 
0 0 0 0 0 0 0 0 0 0 0 0 0 0 0 0 0 0 75 55 75 96 70 97 
95 70 96 95 70 96 95 70 96 95 70 96 98 72 99 39 29 40 0 0 0 0 0 0 
0 0 0 0 0 0 53 39 53 160 118 161 150 111 151 150 111 151 150 111 151 150 111 151 
152 113 153 124 92 125 3 2 3 0 0 0 0 0 0 0 0 0 0 0 0 0 0 0 
0 0 0 0 0 0 0 0 0 0 0 0 0 0 0 0 0 0 0 0 0 0 0 0 
0 0 0 0 0 0 0 0 0 0 0 0 0 0 0 0 0 0 0 0 0 0 0 0 
0 0 0 0 0 0 0 0 0 0 0 0 0 0 0 0 0 0 0 0 0 0 0 0 

0 0 0 0 0 0 0 0 0 0 0 0 0 0 0 0 0 0 0 0 0 0 0 0 
0 0 0 0 0 0 0 0 0 0 0 0 0 0 0 0 0 0 0 0 0 0 0 0 
0 0 0 0 0 0 0 0 0 0 0 0 0 0 0 0 0 0 0 0 0 0 0 0 
0 0 0 0 0 0 0 0 0 0 0 0 0 0 0 69 51 70 96 71 97 95 70 96 
95 70 96 95 70 96 95 70 96 95 70 97 43 32 43 0 0 0 0 0 0 0 0 0 
0 0 0 0 0 0 0 0 0 54 40 54 153 113 154 150 111 151 150 111 151 150 111 151 
150 111 151 151 112 152 113 83 113 4 3 4 0 0 0 0 0 0 0 0 0 0 0 0 
0 0 0 0 0 0 0 0 0 0 0 0 0 0 0 0 0 0 0 0 0 0 0 0 
0 0 0 0 0 0 0 0 0 0 0 0 0 0 0 0 0 0 0 0 0 0 0 0 
0 0 0 0 0 0 0 0 0 0 0 0 0 0 0 0 0 0 0 0 0 0 0 0 

0 0 0 0 0 0 0 0 0 0 0 0 0 0 0 0 0 0 0 0 0 0 0 0 
0 0 0 0 0 0 0 0 0 0 0 0 0 0 0 0 0 0 0 0 0 0 0 0 
0 0 0 0 0 0 0 0 0 0 0 0 0 0 0 0 0 0 0 0 0 0 0 0 
0 0 0 0 0 0 0 0 0 1 1 1 80 59 81 96 70 97 95 70 96 95 70 96 
95 70 96 95 70 96 98 72 99 44 32 44 0 0 0 0 0 0 0 0 0 0 0 0 
0 0 0 0 0 0 0 0 0 0 0 0 48 35 48 154 114 155 150 111 151 150 111 151 
150 111 151 150 111 151 150 111 151 123 91 123 0 0 0 0 0 0 0 0 0 0 0 0 
0 0 0 0 0 0 0 0 0 0 0 0 0 0 0 0 0 0 0 0 0 0 0 0 
0 0 0 0 0 0 0 0 0 0 0 0 0 0 0 0 0 0 0 0 0 0 0 0 
0 0 0 0 0 0 0 0 0 0 0 0 0 0 0 0 0 0 0 0 0 0 0 0 

0 0 0 0 0 0 0 0 0 0 0 0 0 0 0 0 0 0 0 0 0 0 0 0 
0 0 0 0 0 0 0 0 0 0 0 0 0 0 0 0 0 0 0 0 0 0 0 0 
0 0 0 0 0 0 0 0 0 0 0 0 0 0 0 0 0 0 0 0 0 0 0 0 
0 0 0 0 0 0 0 0 0 72 53 73 96 70 97 95 70 96 95 70 96 95 70 96 
95 70 96 97 72 98 38 28 38 0 0 0 0 0 0 6 5 6 63 47 64 0 0 0 
0 0 0 85 62 85 12 9 13 0 0 0 0 0 0 53 39 53 159 118 160 150 111 151 
150 111 151 150 111 151 150 111 151 153 113 154 121 90 122 5 3 4 0 0 0 0 0 0 
0 0 0 0 0 0 0 0 0 0 0 0 0 0 0 0 0 0 0 0 0 0 0 0 
0 0 0 0 0 0 0 0 0 0 0 0 0 0 0 0 0 0 0 0 0 0 0 0 
0 0 0 0 0 0 0 0 0 0 0 0 0 0 0 0 0 0 0 0 0 0 0 0 

0 0 0 0 0 0 0 0 0 0 0 0 0 0 0 0 0 0 0 0 0 0 0 0 
0 0 0 0 0 0 0 0 0 0 0 0 0 0 0 0 0 0 0 0 0 0 0 0 
0 0 0 0 0 0 0 0 0 0 0 0 0 0 0 0 0 0 0 0 0 0 0 0 
0 0 0 1 1 1 73 54 73 96 71 97 95 70 96 95 70 96 95 70 96 95 70 96 
96 70 97 45 33 44 0 0 0 0 0 0 4 3 4 80 60 81 83 61 84 0 0 0 
0 0 0 116 86 116 137 102 138 8 6 9 0 0 0 0 0 0 49 36 50 150 111 151 
150 111 151 150 111 151 150 111 151 150 111 151 150 111 151 114 85 115 3 2 3 0 0 0 
0 0 0 0 0 0 0 0 0 0 0 0 0 0 0 0 0 0 0 0 0 0 0 0 
0 0 0 0 0 0 0 0 0 0 0 0 0 0 0 0 0 0 0 0 0 0 0 0 
0 0 0 0 0 0 0 0 0 0 0 0 0 0 0 0 0 0 0 0 0 0 0 0 

0 0 0 0 0 0 0 0 0 0 0 0 0 0 0 0 0 0 0 0 0 0 0 0 
0 0 0 0 0 0 0 0 0 0 0 0 0 0 0 0 0 0 0 0 0 0 0 0 
0 0 0 0 0 0 0 0 0 0 0 0 0 0 0 0 0 0 0 0 0 0 0 0 
0 0 0 79 59 80 96 70 97 95 70 96 95 70 96 95 70 96 95 70 96 98 72 99 
41 30 41 0 0 0 0 0 0 5 3 4 87 65 88 95 70 96 83 61 84 0 0 0 
0 0 0 116 86 116 152 112 153 134 99 135 1 1 1 0 0 0 0 0 0 48 35 48 
157 117 158 150 111 151 150 111 151 150 111 151 150 111 151 151 112 152 125 93 126 1 1 1 
0 0 0 0 0 0 0 0 0 0 0 0 0 0 0 0 0 0 0 0 0 0 0 0 
0 0 0 0 0 0 0 0 0 0 0 0 0 0 0 0 0 0 0 0 0 0 0 0 
0 0 0 0 0 0 0 0 0 0 0 0 0 0 0 0 0 0 0 0 0 0 0 0 

0 0 0 0 0 0 0 0 0 0 0 0 0 0 0 0 0 0 0 0 0 0 0 0 
0 0 0 0 0 0 0 0 0 0 0 0 0 0 0 0 0 0 0 0 0 0 0 0 
0 0 0 0 0 0 0 0 0 0 0 0 0 0 0 0 0 0 0 0 0 0 0 0 
71 52 71 96 70 97 95 70 96 95 70 96 95 70 96 95 70 96 96 71 97 39 29 39 
0 0 0 0 0 0 6 4 6 79 59 80 95 70 96 95 70 96 83 61 84 0 0 0 
0 0 0 116 86 116 151 112 152 152 112 153 135 101 136 13 10 14 0 0 0 0 0 0 
54 40 54 157 116 158 150 111 151 150 111 151 150 111 151 150 111 151 152 113 153 118 88 119 
6 4 5 0 0 0 0 0 0 0 0 0 0 0 0 0 0 0 0 0 0 0 0 0 
0 0 0 0 0 0 0 0 0 0 0 0 0 0 0 0 0 0 0 0 0 0 0 0 
0 0 0 0 0 0 0 0 0 0 0 0 0 0 0 0 0 0 0 0 0 0 0 0 

0 0 0 0 0 0 0 0 0 0 0 0 0 0 0 0 0 0 0 0 0 0 0 0 
0 0 0 0 0 0 0 0 0 0 0 0 0 0 0 0 0 0 0 0 0 0 0 0 
0 0 0 0 0 0 0 0 0 0 0 0 0 0 0 0 0 0 2 2 2 77 57 78 
96 71 97 95 70 96 95 70 96 95 70 96 95 70 96 96 71 97 45 33 45 0 0 0 
0 0 0 4 3 4 84 62 85 95 70 96 95 70 96 95 70 96 83 61 84 0 0 0 
0 0 0 116 86 116 151 112 152 150 111 151 150 111 151 137 101 138 4 3 4 0 0 0 
0 0 0 47 35 47 150 111 151 150 111 151 150 111 151 150 111 151 150 111 151 150 111 151 
118 88 119 1 1 1 0 0 0 0 0 0 0 0 0 0 0 0 0 0 0 0 0 0 
0 0 0 0 0 0 0 0 0 0 0 0 0 0 0 0 0 0 0 0 0 0 0 0 
0 0 0 0 0 0 0 0 0 0 0 0 0 0 0 0 0 0 0 0 0 0 0 0 

0 0 0 0 0 0 0 0 0 0 0 0 0 0 0 0 0 0 0 0 0 0 0 0 
0 0 0 0 0 0 0 0 0 0 0 0 0 0 0 0 0 0 0 0 0 0 0 0 
0 0 0 0 0 0 0 0 0 0 0 0 0 0 0 0 0 0 77 57 78 96 70 97 
95 70 96 95 70 96 95 70 96 95 70 96 98 72 99 38 28 39 0 0 0 0 0 0 
5 4 6 86 63 87 96 71 97 95 70 96 95 70 96 95 70 96 83 61 84 0 0 0 
0 0 0 116 86 116 151 112 152 150 111 151 150 111 151 151 112 152 135 100 136 6 4 6 
0 0 0 0 0 0 50 37 50 159 118 160 150 111 151 150 111 151 150 111 151 150 111 151 
152 112 153 126 94 127 3 2 3 0 0 0 0 0 0 0 0 0 0 0 0 0 0 0 
0 0 0 0 0 0 0 0 0 0 0 0 0 0 0 0 0 0 0 0 0 0 0 0 
0 0 0 0 0 0 0 0 0 0 0 0 0 0 0 0 0 0 0 0 0 0 0 0 

0 0 0 0 0 0 0 0 0 0 0 0 0 0 0 0 0 0 0 0 0 0 0 0 
0 0 0 0 0 0 0 0 0 0 0 0 0 0 0 0 0 0 0 0 0 0 0 0 
0 0 0 0 0 0 0 0 0 0 0 0 0 0 0 71 52 71 96 71 97 95 70 96 
95 70 96 95 70 96 95 70 96 95 70 96 41 30 41 0 0 0 0 0 0 5 4 6 
80 59 81 95 70 96 95 70 96 95 70 96 95 70 96 95 70 96 83 61 84 0 0 0 
0 0 0 116 86 116 151 112 152 150 111 151 150 111 151 150 111 151 151 112 152 137 101 138 
14 10 14 0 0 0 0 0 0 51 38 52 153 113 154 150 111 151 150 111 151 150 111 151 
150 111 151 151 112 152 115 85 116 5 4 5 0 0 0 0 0 0 0 0 0 0 0 0 
0 0 0 0 0 0 0 0 0 0 0 0 0 0 0 0 0 0 0 0 0 0 0 0 
0 0 0 0 0 0 0 0 0 0 0 0 0 0 0 0 0 0 0 0 0 0 0 0 

0 0 0 0 0 0 0 0 0 0 0 0 0 0 0 0 0 0 0 0 0 0 0 0 
0 0 0 0 0 0 0 0 0 0 0 0 0 0 0 0 0 0 0 0 0 0 0 0 
0 0 0 0 0 0 0 0 0 2 1 2 81 60 82 96 70 97 95 70 96 95 70 96 
95 70 96 95 70 96 97 72 98 43 32 44 0 0 0 0 0 0 4 3 4 87 64 88 
95 70 96 95 70 96 95 70 96 95 70 96 95 70 96 95 70 96 83 61 84 0 0 0 
0 0 0 116 86 116 151 112 152 150 111 151 150 111 151 150 111 151 150 111 151 150 111 151 
137 101 137 2 1 2 0 0 0 0 0 0 44 33 45 153 114 154 150 111 151 150 111 151 
150 111 151 150 111 151 150 111 151 124 92 125 1 0 1 0 0 0 0 0 0 0 0 0 
0 0 0 0 0 0 0 0 0 0 0 0 0 0 0 0 0 0 0 0 0 0 0 0 
0 0 0 0 0 0 0 0 0 0 0 0 0 0 0 0 0 0 0 0 0 0 0 0 

0 0 0 0 0 0 0 0 0 0 0 0 0 0 0 0 0 0 0 0 0 0 0 0 
0 0 0 0 0 0 0 0 0 0 0 0 0 0 0 0 0 0 0 0 0 0 0 0 
0 0 0 0 0 0 0 0 0 74 55 75 96 70 97 95 70 96 95 70 96 95 70 96 
95 70 96 97 72 98 38 28 38 0 0 0 0 0 0 6 5 7 84 62 85 96 71 97 
95 70 96 95 70 96 95 70 96 95 70 96 95 70 96 95 70 96 83 61 84 0 0 0 
0 0 0 116 86 116 151 112 152 150 111 151 150 111 151 150 111 151 150 111 151 150 111 151 
151 112 152 136 101 137 11 8 11 0 0 0 0 0 0 51 38 52 159 118 160 150 111 151 
150 111 151 150 111 151 150 111 151 152 113 154 125 92 125 5 4 5 0 0 0 0 0 0 
0 0 0 0 0 0 0 0 0 0 0 0 0 0 0 0 0 0 0 0 0 0 0 0 
0 0 0 0 0 0 0 0 0 0 0 0 0 0 0 0 0 0 0 0 0 0 0 0 

0 0 0 0 0 0 0 0 0 0 0 0 0 0 0 0 0 0 0 0 0 0 0 0 
0 0 0 0 0 0 0 0 0 0 0 0 0 0 0 0 0 0 0 0 0 0 0 0 
0 0 0 2 1 2 73 54 73 96 70 97 95 70 96 95 70 96 95 70 96 95 70 96 
95 70 96 43 32 44 0 0 0 0 0 0 5 3 5 81 60 82 95 70 96 95 70 96 
95 70 96 95 70 96 95 70 96 95 70 96 95 70 96 95 70 96 83 61 84 0 0 0 
0 0 0 116 86 116 151 112 152 150 111 151 150 111 151 150 111 151 150 111 151 150 111 151 
150 111 151 150 111 151 138 102 139 11 8 11 0 0 0 0 0 0 49 36 49 150 111 151 
150 111 151 150 111 151 150 111 151 150 111 151 150 111 151 117 86 117 4 3 4 0 0 0 
0 0 0 0 0 0 0 0 0 0 0 0 0 0 0 0 0 0 0 0 0 0 0 0 
0 0 0 0 0 0 0 0 0 0 0 0 0 0 0 0 0 0 0 0 0 0 0 0 

0 0 0 0 0 0 0 0 0 0 0 0 0 0 0 0 0 0 0 0 0 0 0 0 
0 0 0 0 0 0 0 0 0 0 0 0 0 0 0 0 0 0 0 0 0 0 0 0 
1 1 1 81 60 82 96 70 97 95 70 96 95 70 96 95 70 96 95 70 96 98 72 99 
41 30 41 0 0 0 0 0 0 5 3 5 88 65 89 95 70 96 95 70 96 95 70 96 
95 70 96 95 70 96 95 70 96 95 70 96 95 70 96 95 70 96 83 61 84 0 0 0 
0 0 0 116 86 116 151 112 152 150 111 151 150 111 151 150 111 151 150 111 151 150 111 151 
150 111 151 150 111 151 150 111 151 136 101 137 2 1 2 0 0 0 0 0 0 45 34 46 
157 116 158 150 111 151 150 111 151 150 111 151 150 111 151 151 111 152 127 94 128 1 1 1 
0 0 0 0 0 0 0 0 0 0 0 0 0 0 0 0 0 0 0 0 0 0 0 0 
0 0 0 0 0 0 0 0 0 0 0 0 0 0 0 0 0 0 0 0 0 0 0 0 

0 0 0 0 0 0 0 0 0 0 0 0 0 0 0 0 0 0 0 0 0 0 0 0 
0 0 0 0 0 0 0 0 0 0 0 0 0 0 0 0 0 0 0 0 0 0 0 0 
72 53 73 96 70 97 95 70 96 95 70 96 95 70 96 95 70 96 96 71 97 38 28 39 
0 0 0 0 0 0 7 5 7 81 60 82 95 70 96 95 70 96 95 70 96 95 70 96 
95 70 96 95 70 96 95 70 96 95 70 96 95 70 96 95 70 96 83 61 84 0 0 0 
0 0 0 116 86 116 151 112 152 150 111 151 150 111 151 150 111 151 150 111 151 150 111 151 
150 111 151 150 111 151 150 111 151 151 112 152 137 101 138 15 11 15 0 0 0 0 0 0 
53 39 53 157 116 158 150 111 151 150 111 151 150 111 151 150 111 151 152 113 153 121 90 122 
6 5 7 0 0 0 0 0 0 0 0 0 0 0 0 0 0 0 0 0 0 0 0 0 
0 0 0 0 0 0 0 0 0 0 0 0 0 0 0 0 0 0 0 0 0 0 0 0 

0 0 0 0 0 0 0 0 0 0 0 0 0 0 0 0 0 0 0 0 0 0 0 0 
0 0 0 0 0 0 0 0 0 0 0 0 0 0 0 0 0 0 3 2 3 78 57 79 
96 70 97 95 70 96 95 70 96 95 70 96 95 70 96 96 71 97 43 32 44 0 0 0 
0 0 0 4 3 4 84 62 85 95 70 96 95 70 96 95 70 96 95 70 96 95 70 96 
95 70 96 95 70 96 95 70 96 95 70 96 95 70 96 95 70 96 83 61 84 0 0 0 
0 0 0 116 86 116 151 112 152 150 111 151 150 111 151 150 111 151 151 111 152 150 111 151 
150 111 151 150 111 151 150 111 151 150 111 151 150 111 151 139 103 140 6 5 6 0 0 0 
0 0 0 44 33 45 150 111 151 150 111 151 150 111 151 150 111 151 150 111 151 150 111 151 
120 89 121 2 1 2 0 0 0 0 0 0 0 0 0 0 0 0 0 0 0 0 0 0 
0 0 0 0 0 0 0 0 0 0 0 0 0 0 0 0 0 0 0 0 0 0 0 0 

0 0 0 0 0 0 0 0 0 0 0 0 0 0 0 0 0 0 0 0 0 0 0 0 
0 0 0 0 0 0 0 0 0 0 0 0 0 0 0 0 0 0 79 58 80 96 70 97 
95 70 96 95 70 96 95 70 96 95 70 96 99 73 100 37 28 38 0 0 0 0 0 0 
6 4 6 87 64 88 96 71 97 95 70 96 95 70 96 95 70 96 95 70 96 95 70 96 
96 71 97 88 64 88 79 58 80 95 70 96 95 70 96 95 70 96 83 61 84 0 0 0 
0 0 0 116 86 116 151 112 152 150 111 151 150 111 151 122 90 122 115 85 117 151 112 152 
150 111 151 150 111 151 150 111 151 150 111 151 150 111 151 151 112 152 136 101 137 6 4 5 
0 0 0 0 0 0 47 35 47 159 118 160 150 111 151 150 111 151 150 111 151 150 111 151 
152 112 153 128 95 129 3 2 3 0 0 0 0 0 0 0 0 0 0 0 0 0 0 0 
0 0 0 0 0 0 0 0 0 0 0 0 0 0 0 0 0 0 0 0 0 0 0 0 

0 0 0 0 0 0 0 0 0 0 0 0 0 0 0 0 0 0 0 0 0 0 0 0 
0 0 0 0 0 0 0 0 0 0 0 0 0 1 0 72 53 72 96 70 97 95 70 96 
95 70 96 95 70 96 95 70 96 95 70 96 39 29 39 0 0 0 0 0 0 6 5 6 
81 59 81 95 70 96 95 70 96 95 70 96 95 70 96 95 70 96 95 70 96 96 70 97 
80 59 81 0 1 0 71 52 71 95 70 96 95 70 96 95 70 96 83 61 84 0 0 0 
0 0 0 116 86 116 151 112 152 150 111 151 150 111 151 108 79 108 0 0 0 123 91 124 
153 113 154 150 111 151 150 111 151 150 111 151 150 111 151 150 111 151 151 112 152 139 103 140 
15 12 15 0 0 0 0 0 0 50 38 51 154 114 155 150 111 151 150 111 151 150 111 151 
150 111 151 151 112 152 118 88 119 6 4 6 0 0 0 0 0 0 0 0 0 0 0 0 
0 0 0 0 0 0 0 0 0 0 0 0 0 0 0 0 0 0 0 0 0 0 0 0 

0 0 0 0 0 0 0 0 0 0 0 0 0 0 0 0 0 0 0 0 0 0 0 0 
0 0 0 0 0 0 0 0 0 2 2 2 82 61 83 95 70 96 95 70 96 95 70 96 
95 70 96 95 70 96 97 72 98 42 31 43 0 0 0 0 0 0 4 3 4 87 64 88 
95 70 96 95 70 96 95 70 96 95 70 96 95 70 96 95 70 96 95 70 96 87 65 88 
1 0 0 0 0 0 71 53 72 95 70 96 95 70 96 95 70 96 83 61 84 0 0 0 
0 0 0 116 86 116 151 112 152 150 111 151 150 111 151 108 79 108 0 0 0 0 0 0 
123 91 124 150 111 151 150 111 151 150 111 151 150 111 151 150 111 151 150 111 151 150 111 151 
139 103 140 3 2 3 0 0 0 0 0 0 42 32 43 152 113 153 150 111 151 150 111 151 
150 111 151 150 111 151 150 111 151 125 92 126 1 0 1 0 0 0 0 0 0 0 0 0 
0 0 0 0 0 0 0 0 0 0 0 0 0 0 0 0 0 0 0 0 0 0 0 0 

0 0 0 0 0 0 0 0 0 0 0 0 0 0 0 0 0 0 0 0 0 0 0 0 
0 0 0 0 0 0 0 0 0 76 57 77 96 70 97 95 70 96 95 70 96 95 70 96 
95 70 96 98 72 99 37 27 37 0 0 0 0 0 0 7 5 8 85 63 86 96 71 97 
95 70 96 95 70 96 95 70 96 95 70 96 95 70 96 96 71 97 85 63 86 5 4 5 
0 0 0 0 0 0 71 53 72 95 70 96 95 70 96 95 70 96 83 61 84 0 0 0 
0 0 0 116 86 116 151 112 152 150 111 151 150 111 151 108 79 108 0 0 0 0 0 0 
5 4 5 124 92 125 152 112 153 150 111 151 150 111 151 150 111 151 150 111 151 150 111 151 
151 112 152 137 102 138 11 8 12 0 0 0 0 0 0 49 36 50 159 118 160 150 111 151 
150 111 151 150 111 151 150 111 151 152 113 153 127 94 128 6 4 6 0 0 0 0 0 0 
0 0 0 0 0 0 0 0 0 0 0 0 0 0 0 0 0 0 0 0 0 0 0 0 

0 0 0 0 0 0 0 0 0 0 0 0 0 0 0 0 0 0 0 0 0 0 0 0 
0 0 0 2 1 2 74 55 75 95 70 96 95 70 96 95 70 96 95 70 96 95 70 96 
95 70 96 41 31 42 0 0 0 0 0 0 6 4 6 82 60 83 95 70 96 95 70 96 
95 70 96 95 70 96 95 70 96 95 70 96 95 70 96 82 61 83 0 0 0 0 0 0 
0 0 0 0 0 0 71 53 72 95 70 96 95 70 96 95 70 96 83 61 84 0 0 0 
0 0 0 116 86 116 151 112 152 150 111 151 150 111 151 108 79 108 0 0 0 0 0 0 
0 0 0 0 0 0 124 92 125 152 113 153 150 111 151 150 111 151 150 111 151 150 111 151 
150 111 151 150 111 151 141 104 142 13 10 13 0 0 0 0 0 0 48 36 48 151 111 152 
150 111 151 150 111 151 150 111 151 150 111 151 150 111 151 119 88 120 5 4 5 0 0 0 
0 0 0 0 0 0 0 0 0 0 0 0 0 0 0 0 0 0 0 0 0 0 0 0 

0 0 0 0 0 0 0 0 0 0 0 0 0 0 0 0 0 0 0 0 0 0 0 0 
1 1 1 83 62 84 95 70 96 95 70 96 95 70 96 95 70 96 95 70 96 98 73 99 
39 29 40 0 0 0 0 0 0 5 4 5 88 65 89 95 70 96 95 70 96 95 70 96 
95 70 96 95 70 96 95 70 96 95 70 96 90 67 91 3 2 4 0 0 0 0 0 0 
0 0 0 0 0 0 71 53 72 95 70 96 95 70 96 95 70 96 83 61 84 0 0 0 
0 0 0 116 86 116 151 112 152 150 111 151 150 111 151 108 79 108 0 0 0 0 0 0 
0 0 0 0 0 0 0 0 0 126 93 126 150 111 151 150 111 151 150 111 151 150 111 151 
150 111 151 150 111 151 150 111 151 138 102 139 2 1 2 0 0 0 0 0 0 41 30 41 
156 115 157 150 111 151 150 111 151 150 111 151 150 111 151 150 111 151 128 95 129 1 1 1 
0 0 0 0 0 0 0 0 0 0 0 0 0 0 0 0 0 0 0 0 0 0 0 0 

0 0 0 0 0 0 0 0 0 0 0 0 0 0 0 0 0 0 0 0 0 0 0 0 
74 55 74 95 70 96 95 70 96 95 70 96 95 70 96 95 70 96 97 71 98 37 27 37 
0 0 0 0 0 0 8 6 8 83 61 84 95 70 96 95 70 96 95 70 96 95 70 96 
95 70 96 95 70 96 96 70 97 83 61 84 4 3 4 0 0 0 0 0 0 0 0 0 
0 0 0 0 0 0 71 53 72 95 70 96 95 70 96 95 70 96 83 61 84 0 0 0 
0 0 0 116 86 116 151 112 152 150 111 151 150 111 151 108 79 108 0 0 0 0 0 0 
0 0 0 0 0 0 0 0 0 6 5 7 127 94 127 152 113 154 150 111 151 150 111 151 
150 111 151 150 111 151 150 111 151 151 112 152 139 103 140 16 12 16 0 0 0 0 0 0 
50 37 50 158 117 159 150 111 151 150 111 151 150 111 151 150 111 151 152 113 153 123 92 125 
8 6 8 0 0 0 0 0 0 0 0 0 0 0 0 0 0 0 0 0 0 0 0 0 

0 0 0 0 0 0 0 0 0 0 0 0 0 0 0 0 0 0 3 2 3 78 58 79 
95 70 96 95 70 96 95 70 96 95 70 96 95 70 96 96 70 97 42 31 43 0 0 0 
0 0 0 5 4 5 85 62 85 95 70 96 95 70 96 95 70 96 95 70 96 95 70 96 
95 70 96 95 70 96 86 63 87 0 1 0 0 0 0 0 0 0 0 0 0 0 0 0 
0 0 0 0 0 0 71 53 72 95 70 96 95 70 96 95 70 96 83 61 84 0 0 0 
0 0 0 116 86 116 151 112 152 150 111 151 150 111 151 108 79 108 0 0 0 0 0 0 
0 0 0 0 0 0 0 0 0 0 0 0 0 0 0 126 93 126 151 112 152 150 111 151 
150 111 151 150 111 151 150 111 151 150 111 151 150 111 151 141 104 142 9 7 10 0 0 0 
0 0 0 42 32 43 148 109 149 150 111 151 150 111 151 150 111 151 150 111 151 150 111 151 
122 90 123 3 2 3 0 0 0 0 0 0 0 0 0 0 0 0 0 0 0 0 0 0 

0 0 0 0 0 0 0 0 0 0 0 0 0 0 0 3 2 2 81 60 82 96 70 97 
95 70 96 95 70 96 95 70 96 95 70 96 96 70 97 45 34 46 0 0 0 0 0 0 
0 0 0 60 44 61 98 72 99 95 70 96 95 70 96 95 70 96 95 70 96 95 70 96 
95 70 96 90 67 91 6 4 6 0 0 0 0 0 0 0 0 0 0 0 0 0 0 0 
0 0 0 0 0 0 71 53 72 95 70 96 95 70 96 95 70 96 83 61 84 0 0 0 
0 0 0 116 86 116 151 112 152 150 111 151 150 111 151 108 79 108 0 0 0 0 0 0 
0 0 0 0 0 0 0 0 0 0 0 0 0 0 0 3 2 3 129 95 129 151 111 152 
150 111 151 150 111 151 150 111 151 150 111 151 150 111 151 152 113 153 111 82 111 0 0 0 
0 0 0 0 0 0 63 47 64 155 115 156 150 111 151 150 111 151 150 111 151 150 111 151 
151 112 152 130 96 130 7 6 8 0 0 0 0 0 0 0 0 0 0 0 0 0 0 0 

0 0 0 0 0 0 0 0 0 0 0 0 0 0 0 8 6 9 82 60 83 96 71 97 
95 70 96 95 70 96 95 70 96 95 70 96 95 70 96 88 65 89 15 11 15 0 0 0 
0 0 0 0 0 0 67 50 68 97 72 98 95 70 96 95 70 96 95 70 96 95 70 96 
83 61 84 3 2 3 0 0 0 0 0 0 0 0 0 0 0 0 0 0 0 0 0 0 
0 0 0 0 0 0 71 53 72 95 70 96 95 70 96 95 70 96 83 61 84 0 0 0 
0 0 0 116 86 116 151 112 152 150 111 151 150 111 151 108 79 108 0 0 0 0 0 0 
0 0 0 0 0 0 0 0 0 0 0 0 0 0 0 0 0 0 5 3 5 128 95 129 
152 113 153 150 111 151 150 111 151 150 111 151 151 112 152 112 83 113 0 0 0 0 0 0 
0 0 0 16 12 16 139 104 140 150 111 151 150 111 151 150 111 151 150 111 151 150 111 151 
151 112 152 136 100 137 11 8 11 0 0 0 0 0 0 0 0 0 0 0 0 0 0 0 

0 0 0 0 0 0 0 0 0 0 0 0 0 0 0 0 0 0 1 1 1 83 61 84 
95 70 96 95 70 96 95 70 96 95 70 96 95 70 96 95 70 96 94 69 95 12 9 12 
0 0 0 0 0 0 0 0 0 70 52 71 95 70 96 95 70 96 95 70 96 90 66 91 
3 2 2 0 0 0 0 0 0 0 0 0 0 0 0 0 0 0 0 0 0 0 0 0 
0 0 0 0 0 0 71 53 72 95 70 96 95 70 96 95 70 96 83 61 84 0 0 0 
0 0 0 116 86 116 151 112 152 150 111 151 150 111 151 108 79 108 0 0 0 0 0 0 
0 0 0 0 0 0 0 0 0 0 0 0 0 0 0 0 0 0 0 0 0 0 0 0 
129 95 129 150 111 151 150 111 151 151 112 152 127 94 128 0 0 0 0 0 0 0 0 0 
15 11 15 151 113 152 150 111 151 150 111 151 150 111 151 150 111 151 150 111 151 150 111 151 
137 102 138 0 0 0 0 0 0 0 0 0 0 0 0 0 0 0 0 0 0 0 0 0 

0 0 0 0 0 0 0 0 0 0 0 0 0 0 0 0 0 0 0 0 0 5 3 5 
79 58 80 95 70 96 95 70 96 95 70 96 95 70 96 95 70 96 95 70 96 91 67 92 
18 13 18 0 0 0 0 0 0 0 0 0 69 51 69 98 72 99 88 66 89 7 5 7 
0 0 0 0 0 0 0 0 0 0 0 0 0 0 0 0 0 0 0 0 0 0 0 0 
0 0 0 0 0 0 71 53 72 95 70 96 95 70 96 95 70 96 83 61 84 0 0 0 
0 0 0 116 86 116 151 112 152 150 111 151 150 111 151 108 79 108 0 0 0 0 0 0 
0 0 0 0 0 0 0 0 0 0 0 0 0 0 0 0 0 0 0 0 0 0 0 0 
7 5 7 132 97 132 153 113 154 113 84 114 1 1 1 0 0 0 0 0 0 13 10 13 
140 103 141 150 111 151 150 111 151 150 111 151 150 111 151 150 111 151 151 112 152 140 103 141 
11 9 11 0 0 0 0 0 0 0 0 0 0 0 0 0 0 0 0 0 0 0 0 0 

0 0 0 0 0 0 0 0 0 0 0 0 0 0 0 0 0 0 0 0 0 0 0 0 
5 4 5 82 61 83 96 71 97 95 70 96 95 70 96 95 70 96 95 70 96 95 70 96 
90 67 92 13 10 14 0 0 0 0 0 0 0 0 0 59 44 60 3 2 3 0 0 0 
0 0 0 0 0 0 0 0 0 0 0 0 0 0 0 0 0 0 0 0 0 0 0 0 
0 0 0 0 0 0 71 53 72 95 70 96 95 70 96 95 70 96 83 61 84 0 0 0 
0 0 0 116 86 116 151 112 152 150 111 151 150 111 151 108 79 108 0 0 0 0 0 0 
0 0 0 0 0 0 0 0 0 0 0 0 0 0 0 0 0 0 0 0 0 0 0 0 
0 0 0 1 1 1 99 74 100 0 0 0 0 0 0 0 0 0 19 14 19 147 109 148 
150 111 151 150 111 151 150 111 151 150 111 151 150 111 151 151 112 152 133 98 134 3 2 4 
0 0 0 0 0 0 0 0 0 0 0 0 0 0 0 0 0 0 0 0 0 0 0 0 

0 0 0 0 0 0 0 0 0 0 0 0 0 0 0 0 0 0 0 0 0 0 0 0 
0 0 0 0 0 1 81 60 82 95 70 96 95 70 96 95 70 96 95 70 96 95 70 96 
95 70 96 94 69 95 14 11 15 0 0 0 0 0 0 0 0 0 0 0 0 0 0 0 
0 0 0 0 0 0 0 0 0 0 0 0 0 0 0 0 0 0 0 0 0 0 0 0 
0 0 0 0 0 0 71 53 72 95 70 96 95 70 96 95 70 96 83 61 84 0 0 0 
0 0 0 116 86 116 151 112 152 150 111 151 150 111 151 108 79 108 0 0 0 0 0 0 
0 0 0 0 0 0 0 0 0 0 0 0 0 0 0 0 0 0 0 0 0 0 0 0 
0 0 0 0 0 0 0 0 0 0 0 0 0 0 0 14 10 14 150 111 151 150 111 151 
150 111 151 150 111 151 150 111 151 150 111 151 150 111 151 139 103 140 1 1 2 0 0 0 
0 0 0 0 0 0 0 0 0 0 0 0 0 0 0 0 0 0 0 0 0 0 0 0 

0 0 0 0 0 0 0 0 0 0 0 0 0 0 0 0 0 0 0 0 0 0 0 0 
0 0 0 0 0 0 6 4 6 79 58 80 96 70 97 95 70 96 95 70 96 95 70 96 
95 70 96 95 70 96 90 66 91 17 13 18 0 0 0 0 0 0 0 0 0 0 0 0 
0 0 0 0 0 0 0 0 0 0 0 0 0 0 0 0 0 0 0 0 0 0 0 0 
0 0 0 0 0 0 71 53 72 95 70 96 95 70 96 95 70 96 83 61 84 0 0 0 
0 0 0 116 86 116 151 112 152 150 111 151 150 111 151 108 79 108 0 0 0 0 0 0 
0 0 0 0 0 0 0 0 0 0 0 0 0 0 0 0 0 0 0 0 0 0 0 0 
0 0 0 0 0 0 0 0 0 0 0 0 15 11 15 139 103 140 150 111 151 150 111 151 
150 111 151 150 111 151 150 111 151 151 112 152 138 102 139 11 9 11 0 0 0 0 0 0 
0 0 0 0 0 0 0 0 0 0 0 0 0 0 0 0 0 0 0 0 0 0 0 0 

0 0 0 0 0 0 0 0 0 0 0 0 0 0 0 0 0 0 0 0 0 0 0 0 
0 0 0 0 0 0 0 0 0 3 2 3 83 61 84 96 71 97 95 70 96 95 70 96 
95 70 96 95 70 96 95 70 96 92 68 93 12 9 12 0 0 0 0 0 0 0 0 0 
0 0 0 0 0 0 0 0 0 0 0 0 0 0 0 0 0 0 0 0 0 0 0 0 
0 0 0 0 0 0 71 53 72 95 70 96 95 70 96 95 70 96 83 61 84 0 0 0 
0 0 0 116 86 116 151 112 152 150 111 151 150 111 151 108 79 108 0 0 0 0 0 0 
0 0 0 0 0 0 0 0 0 0 0 0 0 0 0 0 0 0 0 0 0 0 0 0 
0 0 0 0 0 0 0 0 0 18 13 18 151 112 152 150 111 151 150 111 151 150 111 151 
150 111 151 150 111 151 151 112 152 134 99 135 0 0 0 0 0 0 0 0 0 0 0 0 
0 0 0 0 0 0 0 0 0 0 0 0 0 0 0 0 0 0 0 0 0 0 0 0 

0 0 0 0 0 0 0 0 0 0 0 0 0 0 0 0 0 0 0 0 0 0 0 0 
0 0 0 0 0 0 0 0 0 0 0 0 2 1 2 79 58 80 95 70 96 95 70 96 
95 70 96 95 70 96 95 70 96 95 70 96 93 69 94 17 13 17 0 0 0 0 0 0 
0 0 0 0 0 0 0 0 0 0 0 0 0 0 0 0 0 0 0 0 0 0 0 0 
0 0 0 0 0 0 71 53 72 95 70 96 95 70 96 95 70 96 83 61 84 0 0 0 
0 0 0 116 86 116 151 112 152 150 111 151 150 111 151 108 79 108 0 0 0 0 0 0 
0 0 0 0 0 0 0 0 0 0 0 0 0 0 0 0 0 0 0 0 0 0 0 0 
0 0 0 0 0 0 14 10 15 146 108 147 150 111 151 150 111 151 150 111 151 150 111 151 
150 111 151 150 111 151 139 103 140 6 5 6 0 0 0 0 0 0 0 0 0 0 0 0 
0 0 0 0 0 0 0 0 0 0 0 0 0 0 0 0 0 0 0 0 0 0 0 0 

0 0 0 0 0 0 0 0 0 0 0 0 0 0 0 0 0 0 0 0 0 0 0 0 
0 0 0 0 0 0 0 0 0 0 0 0 0 0 0 6 4 6 80 59 81 96 71 97 
95 70 96 95 70 96 95 70 96 95 70 96 95 70 96 90 66 91 17 12 17 0 0 0 
0 0 0 0 0 0 0 0 0 0 0 0 0 0 0 0 0 0 0 0 0 0 0 0 
0 0 0 0 0 0 71 53 72 95 70 96 95 70 96 95 70 96 83 61 84 0 0 0 
0 0 0 116 86 116 151 112 152 150 111 151 150 111 151 108 79 108 0 0 0 0 0 0 
0 0 0 0 0 0 0 0 0 0 0 0 0 0 0 0 0 0 0 0 0 0 0 0 
0 0 0 17 13 18 142 106 143 150 111 151 150 111 151 150 111 151 150 111 151 150 111 151 
152 112 153 134 99 135 9 6 9 0 0 0 0 0 0 0 0 0 0 0 0 0 0 0 
0 0 0 0 0 0 0 0 0 0 0 0 0 0 0 0 0 0 0 0 0 0 0 0 

0 0 0 0 0 0 0 0 0 0 0 0 0 0 0 0 0 0 0 0 0 0 0 0 
0 0 0 0 0 0 0 0 0 0 0 0 0 0 0 0 0 0 1 1 1 82 61 83 
95 70 96 95 70 96 95 70 96 95 70 96 95 70 96 95 70 96 94 69 95 12 9 13 
0 0 0 0 0 0 0 0 0 0 0 0 0 0 0 0 0 0 0 0 0 0 0 0 
0 0 0 0 0 0 71 53 72 95 70 96 95 70 96 95 70 96 83 61 84 0 0 0 
0 0 0 116 86 116 151 112 152 150 111 151 150 111 151 108 79 108 0 0 0 0 0 0 
0 0 0 0 0 0 0 0 0 0 0 0 0 0 0 0 0 0 0 0 0 0 0 0 
17 12 17 153 114 154 150 111 151 150 111 151 150 111 151 150 111 151 150 111 151 150 111 151 
135 100 136 0 0 0 0 0 0 0 0 0 0 0 0 0 0 0 0 0 0 0 0 0 
0 0 0 0 0 0 0 0 0 0 0 0 0 0 0 0 0 0 0 0 0 0 0 0 

0 0 0 0 0 0 0 0 0 0 0 0 0 0 0 0 0 0 0 0 0 0 0 0 
0 0 0 0 0 0 0 0 0 0 0 0 0 0 0 0 0 0 0 0 0 4 3 4 
78 58 79 95 70 96 95 70 96 95 70 96 95 70 96 95 70 96 95 70 96 92 68 93 
19 14 19 0 0 0 0 0 0 0 0 0 0 0 0 0 0 0 0 0 0 0 0 0 
0 0 0 0 0 0 71 53 72 95 70 96 95 70 96 95 70 96 83 61 84 0 0 0 
0 0 0 116 86 116 151 112 152 150 111 151 150 111 151 108 79 108 0 0 0 0 0 0 
0 0 0 0 0 0 0 0 0 0 0 0 0 0 0 0 0 0 0 0 0 14 10 15 
142 105 143 150 111 151 150 111 151 150 111 151 150 111 151 150 111 151 151 112 152 139 103 140 
10 7 10 0 0 0 0 0 0 0 0 0 0 0 0 0 0 0 0 0 0 0 0 0 
0 0 0 0 0 0 0 0 0 0 0 0 0 0 0 0 0 0 0 0 0 0 0 0 

0 0 0 0 0 0 0 0 0 0 0 0 0 0 0 0 0 0 0 0 0 0 0 0 
0 0 0 0 0 0 0 0 0 0 0 0 0 0 0 0 0 0 0 0 0 0 0 0 
5 4 5 82 60 83 96 71 97 95 70 96 95 70 96 95 70 96 95 70 96 95 70 96 
91 67 92 14 11 14 0 0 0 0 0 0 0 0 0 0 0 0 0 0 0 0 0 0 
0 0 0 0 0 0 71 53 72 95 70 96 95 70 96 95 70 96 83 61 84 0 0 0 
0 0 0 116 86 116 151 112 152 150 111 151 150 111 151 108 79 108 0 0 0 0 0 0 
0 0 0 0 0 0 0 0 0 0 0 0 0 0 0 0 0 0 19 14 19 147 109 148 
150 111 151 150 111 151 150 111 151 150 111 151 150 111 151 151 112 152 132 98 133 4 2 4 
0 0 0 0 0 0 0 0 0 0 0 0 0 0 0 0 0 0 0 0 0 0 0 0 
0 0 0 0 0 0 0 0 0 0 0 0 0 0 0 0 0 0 0 0 0 0 0 0 

0 0 0 0 0 0 0 0 0 0 0 0 0 0 0 0 0 0 0 0 0 0 0 0 
0 0 0 0 0 0 0 0 0 0 0 0 0 0 0 0 0 0 0 0 0 0 0 0 
0 0 0 0 0 0 81 59 81 95 70 96 95 70 96 95 70 96 95 70 96 95 70 96 
95 70 96 94 69 95 14 11 15 0 0 0 0 0 0 0 0 0 0 0 0 0 0 0 
0 0 0 0 0 0 71 53 72 95 70 96 95 70 96 95 70 96 83 61 84 0 0 0 
0 0 0 116 86 116 151 112 152 150 111 151 150 111 151 108 79 108 0 0 0 0 0 0 
0 0 0 0 0 0 0 0 0 0 0 0 0 0 0 16 12 16 151 112 152 150 111 151 
150 111 151 150 111 151 150 111 151 150 111 151 150 111 151 137 101 137 0 0 0 0 0 0 
0 0 0 0 0 0 0 0 0 0 0 0 0 0 0 0 0 0 0 0 0 0 0 0 
0 0 0 0 0 0 0 0 0 0 0 0 0 0 0 0 0 0 0 0 0 0 0 0 

0 0 0 0 0 0 0 0 0 0 0 0 0 0 0 0 0 0 0 0 0 0 0 0 
0 0 0 0 0 0 0 0 0 0 0 0 0 0 0 0 0 0 0 0 0 0 0 0 
0 0 0 0 0 0 5 4 5 77 57 78 96 70 97 95 70 96 95 70 96 95 70 96 
95 70 96 95 70 96 91 67 92 19 14 20 0 0 0 0 0 0 0 0 0 0 0 0 
0 0 0 0 0 0 71 53 72 95 70 96 95 70 96 95 70 96 83 61 84 0 0 0 
0 0 0 116 86 116 151 112 152 150 111 151 150 111 151 108 79 108 0 0 0 0 0 0 
0 0 0 0 0 0 0 0 0 0 0 0 16 12 16 141 104 142 150 111 151 150 111 151 
150 111 151 150 111 151 150 111 151 152 112 153 136 101 137 11 8 11 0 0 0 0 0 0 
0 0 0 0 0 0 0 0 0 0 0 0 0 0 0 0 0 0 0 0 0 0 0 0 
0 0 0 0 0 0 0 0 0 0 0 0 0 0 0 0 0 0 0 0 0 0 0 0 

0 0 0 0 0 0 0 0 0 0 0 0 0 0 0 0 0 0 0 0 0 0 0 0 
0 0 0 0 0 0 0 0 0 0 0 0 0 0 0 0 0 0 0 0 0 0 0 0 
0 0 0 0 0 0 0 0 0 3 2 3 82 61 83 96 71 97 95 70 96 95 70 96 
95 70 96 95 70 96 95 70 96 92 68 93 13 10 13 0 0 0 0 0 0 0 0 0 
0 0 0 0 0 0 71 53 72 95 70 96 95 70 96 95 70 96 83 61 84 0 0 0 
0 0 0 116 86 116 151 112 152 150 111 151 150 111 151 108 79 108 0 0 0 0 0 0 
0 0 0 0 0 0 0 0 0 20 14 20 152 112 153 150 111 151 150 111 151 150 111 151 
150 111 151 150 111 151 151 112 152 132 98 132 0 0 0 0 0 0 0 0 0 0 0 0 
0 0 0 0 0 0 0 0 0 0 0 0 0 0 0 0 0 0 0 0 0 0 0 0 
0 0 0 0 0 0 0 0 0 0 0 0 0 0 0 0 0 0 0 0 0 0 0 0 

0 0 0 0 0 0 0 0 0 0 0 0 0 0 0 0 0 0 0 0 0 0 0 0 
0 0 0 0 0 0 0 0 0 0 0 0 0 0 0 0 0 0 0 0 0 0 0 0 
0 0 0 0 0 0 0 0 0 0 0 0 1 1 1 78 58 79 95 70 96 95 70 96 
95 70 96 95 70 96 95 70 96 95 70 96 94 69 95 17 13 18 0 0 0 0 0 0 
0 0 0 0 0 0 71 53 72 95 70 96 95 70 96 95 70 96 83 61 84 0 0 0 
0 0 0 116 86 116 151 112 152 150 111 151 150 111 151 108 79 108 0 0 0 0 0 0 
0 0 0 0 0 0 15 11 15 148 109 149 150 111 151 150 111 151 150 111 151 150 111 151 
150 111 151 150 111 151 137 102 138 4 3 4 0 0 0 0 0 0 0 0 0 0 0 0 
0 0 0 0 0 0 0 0 0 0 0 0 0 0 0 0 0 0 0 0 0 0 0 0 
0 0 0 0 0 0 0 0 0 0 0 0 0 0 0 0 0 0 0 0 0 0 0 0 

0 0 0 0 0 0 0 0 0 0 0 0 0 0 0 0 0 0 0 0 0 0 0 0 
0 0 0 0 0 0 0 0 0 0 0 0 0 0 0 0 0 0 0 0 0 0 0 0 
0 0 0 0 0 0 0 0 0 0 0 0 0 0 0 5 4 5 78 58 79 96 71 97 
95 70 96 95 70 96 95 70 96 95 70 96 95 70 96 90 67 92 18 13 18 0 0 0 
0 0 0 0 0 0 71 53 72 95 70 96 95 70 96 95 70 96 83 61 84 0 0 0 
0 0 0 116 86 116 151 112 152 150 111 151 150 111 151 108 79 108 0 0 0 0 0 0 
0 0 0 18 13 18 142 105 143 150 111 151 150 111 151 150 111 151 150 111 151 150 111 151 
152 112 153 133 99 134 9 6 9 0 0 0 0 0 0 0 0 0 0 0 0 0 0 0 
0 0 0 0 0 0 0 0 0 0 0 0 0 0 0 0 0 0 0 0 0 0 0 0 
0 0 0 0 0 0 0 0 0 0 0 0 0 0 0 0 0 0 0 0 0 0 0 0 

0 0 0 0 0 0 0 0 0 0 0 0 0 0 0 0 0 0 0 0 0 0 0 0 
0 0 0 0 0 0 0 0 0 0 0 0 0 0 0 0 0 0 0 0 0 0 0 0 
0 0 0 0 0 0 0 0 0 0 0 0 0 0 0 0 0 0 1 1 1 82 60 83 
95 70 96 95 70 96 95 70 96 95 70 96 95 70 96 95 70 96 93 69 94 11 8 11 
0 0 0 0 0 0 71 53 72 95 70 96 95 70 96 95 70 96 83 61 84 0 0 0 
0 0 0 116 86 116 151 112 152 150 111 151 150 111 151 108 79 108 0 0 0 0 0 0 
17 12 17 154 114 155 150 111 151 150 111 151 150 111 151 150 111 151 150 111 151 150 111 151 
133 99 134 0 0 0 0 0 0 0 0 0 0 0 0 0 0 0 0 0 0 0 0 0 
0 0 0 0 0 0 0 0 0 0 0 0 0 0 0 0 0 0 0 0 0 0 0 0 
0 0 0 0 0 0 0 0 0 0 0 0 0 0 0 0 0 0 0 0 0 0 0 0 

0 0 0 0 0 0 0 0 0 0 0 0 0 0 0 0 0 0 0 0 0 0 0 0 
0 0 0 0 0 0 0 0 0 0 0 0 0 0 0 0 0 0 0 0 0 0 0 0 
0 0 0 0 0 0 0 0 0 0 0 0 0 0 0 0 0 0 0 0 0 3 2 3 
76 57 77 95 70 96 95 70 96 95 70 96 95 70 96 95 70 96 96 71 97 46 34 46 
0 0 0 0 0 0 71 53 72 95 70 96 95 70 96 95 70 96 83 61 84 0 0 0 
0 0 0 116 86 116 151 112 152 150 111 151 150 111 151 108 79 108 0 0 0 0 0 0 
69 51 69 150 111 151 150 111 151 150 111 151 150 111 151 150 111 151 151 112 152 136 102 138 
8 6 8 0 0 0 0 0 0 0 0 0 0 0 0 0 0 0 0 0 0 0 0 0 
0 0 0 0 0 0 0 0 0 0 0 0 0 0 0 0 0 0 0 0 0 0 0 0 
0 0 0 0 0 0 0 0 0 0 0 0 0 0 0 0 0 0 0 0 0 0 0 0 

0 0 0 0 0 0 0 0 0 0 0 0 0 0 0 0 0 0 0 0 0 0 0 0 
0 0 0 0 0 0 0 0 0 0 0 0 0 0 0 0 0 0 0 0 0 0 0 0 
0 0 0 0 0 0 0 0 0 0 0 0 0 0 0 0 0 0 0 0 0 0 0 0 
4 3 4 80 59 81 96 71 97 95 70 96 95 70 96 95 70 96 96 70 97 45 34 46 
0 0 0 0 0 0 71 53 72 95 70 96 95 70 96 95 70 96 83 61 84 0 0 0 
0 0 0 116 86 116 151 112 152 150 111 151 150 111 151 108 79 108 0 0 0 0 0 0 
68 51 69 150 111 151 150 111 151 150 111 151 150 111 151 152 112 153 132 97 132 4 2 4 
0 0 0 0 0 0 0 0 0 0 0 0 0 0 0 0 0 0 0 0 0 0 0 0 
0 0 0 0 0 0 0 0 0 0 0 0 0 0 0 0 0 0 0 0 0 0 0 0 
0 0 0 0 0 0 0 0 0 0 0 0 0 0 0 0 0 0 0 0 0 0 0 0 

0 0 0 0 0 0 0 0 0 0 0 0 0 0 0 0 0 0 0 0 0 0 0 0 
0 0 0 0 0 0 0 0 0 0 0 0 0 0 0 0 0 0 0 0 0 0 0 0 
0 0 0 0 0 0 0 0 0 0 0 0 0 0 0 0 0 0 0 0 0 0 0 0 
0 0 0 0 0 0 80 59 81 95 70 96 95 70 96 95 70 96 96 70 97 45 34 46 
0 0 0 0 0 0 71 53 72 95 70 96 95 70 96 95 70 96 83 61 84 0 0 0 
0 0 0 116 86 116 151 112 152 150 111 151 150 111 151 108 79 108 0 0 0 0 0 0 
68 51 69 150 111 151 150 111 151 150 111 151 150 111 151 135 100 136 0 0 0 0 0 0 
0 0 0 0 0 0 0 0 0 0 0 0 0 0 0 0 0 0 0 0 0 0 0 0 
0 0 0 0 0 0 0 0 0 0 0 0 0 0 0 0 0 0 0 0 0 0 0 0 
0 0 0 0 0 0 0 0 0 0 0 0 0 0 0 0 0 0 0 0 0 0 0 0 

0 0 0 0 0 0 0 0 0 0 0 0 0 0 0 0 0 0 0 0 0 0 0 0 
0 0 0 0 0 0 0 0 0 0 0 0 0 0 0 0 0 0 0 0 0 0 0 0 
0 0 0 0 0 0 0 0 0 0 0 0 0 0 0 0 0 0 0 0 0 0 0 0 
0 0 0 0 0 0 4 3 4 76 56 77 95 70 96 95 70 96 96 70 97 45 34 46 
0 0 0 0 0 0 71 53 72 95 70 96 95 70 96 95 70 96 83 61 84 0 0 0 
0 0 0 116 86 116 151 112 152 150 111 151 150 111 151 108 79 108 0 0 0 0 0 0 
68 51 69 150 111 151 150 111 151 152 112 153 135 100 136 10 7 10 0 0 0 0 0 0 
0 0 0 0 0 0 0 0 0 0 0 0 0 0 0 0 0 0 0 0 0 0 0 0 
0 0 0 0 0 0 0 0 0 0 0 0 0 0 0 0 0 0 0 0 0 0 0 0 
0 0 0 0 0 0 0 0 0 0 0 0 0 0 0 0 0 0 0 0 0 0 0 0 

0 0 0 0 0 0 0 0 0 0 0 0 0 0 0 0 0 0 0 0 0 0 0 0 
0 0 0 0 0 0 0 0 0 0 0 0 0 0 0 0 0 0 0 0 0 0 0 0 
0 0 0 0 0 0 0 0 0 0 0 0 0 0 0 0 0 0 0 0 0 0 0 0 
0 0 0 0 0 0 0 0 0 3 2 3 81 60 82 96 71 97 96 70 97 45 33 45 
0 0 0 0 0 0 71 53 72 95 70 96 95 70 96 95 70 96 83 61 84 0 0 0 
0 0 0 116 86 116 151 112 152 150 111 151 150 111 151 108 79 108 0 0 0 0 0 0 
68 50 69 150 111 151 151 112 152 130 96 131 0 0 0 0 0 0 0 0 0 0 0 0 
0 0 0 0 0 0 0 0 0 0 0 0 0 0 0 0 0 0 0 0 0 0 0 0 
0 0 0 0 0 0 0 0 0 0 0 0 0 0 0 0 0 0 0 0 0 0 0 0 
0 0 0 0 0 0 0 0 0 0 0 0 0 0 0 0 0 0 0 0 0 0 0 0 

0 0 0 0 0 0 0 0 0 0 0 0 0 0 0 0 0 0 0 0 0 0 0 0 
0 0 0 0 0 0 0 0 0 0 0 0 0 0 0 0 0 0 0 0 0 0 0 0 
0 0 0 0 0 0 0 0 0 0 0 0 0 0 0 0 0 0 0 0 0 0 0 0 
0 0 0 0 0 0 0 0 0 0 0 0 1 1 1 78 57 78 96 70 97 45 32 45 
0 0 0 0 0 0 71 53 72 95 70 96 95 70 96 95 70 96 83 61 84 0 0 0 
0 0 0 116 86 116 151 112 152 150 111 151 150 111 151 108 79 108 0 0 0 0 0 0 
67 50 68 150 111 151 135 100 136 2 2 2 0 0 0 0 0 0 0 0 0 0 0 0 
0 0 0 0 0 0 0 0 0 0 0 0 0 0 0 0 0 0 0 0 0 0 0 0 
0 0 0 0 0 0 0 0 0 0 0 0 0 0 0 0 0 0 0 0 0 0 0 0 
0 0 0 0 0 0 0 0 0 0 0 0 0 0 0 0 0 0 0 0 0 0 0 0 

0 0 0 0 0 0 0 0 0 0 0 0 0 0 0 0 0 0 0 0 0 0 0 0 
0 0 0 0 0 0 0 0 0 0 0 0 0 0 0 0 0 0 0 0 0 0 0 0 
0 0 0 0 0 0 0 0 0 0 0 0 0 0 0 0 0 0 0 0 0 0 0 0 
0 0 0 0 0 0 0 0 0 0 0 0 0 0 0 5 3 5 78 57 78 47 34 47 
0 0 0 0 0 0 71 53 72 95 70 96 95 70 96 95 70 96 83 61 84 0 0 0 
0 0 0 116 86 116 151 112 152 150 111 151 150 111 151 108 79 108 0 0 0 0 0 0 
70 52 71 132 98 133 8 6 8 0 0 0 0 0 0 0 0 0 0 0 0 0 0 0 
0 0 0 0 0 0 0 0 0 0 0 0 0 0 0 0 0 0 0 0 0 0 0 0 
0 0 0 0 0 0 0 0 0 0 0 0 0 0 0 0 0 0 0 0 0 0 0 0 
0 0 0 0 0 0 0 0 0 0 0 0 0 0 0 0 0 0 0 0 0 0 0 0 

0 0 0 0 0 0 0 0 0 0 0 0 0 0 0 0 0 0 0 0 0 0 0 0 
0 0 0 0 0 0 0 0 0 0 0 0 0 0 0 0 0 0 0 0 0 0 0 0 
0 0 0 0 0 0 0 0 0 0 0 0 0 0 0 0 0 0 0 0 0 0 0 0 
0 0 0 0 0 0 0 0 0 0 0 0 0 0 0 0 0 0 2 1 2 19 13 19 
0 0 0 0 0 0 71 53 72 95 70 96 95 70 96 95 70 96 83 61 84 0 0 0 
0 0 0 116 86 116 151 112 152 150 111 151 150 111 151 108 79 108 0 0 0 0 0 0 
35 26 36 0 0 0 0 0 0 0 0 0 0 0 0 0 0 0 0 0 0 0 0 0 
0 0 0 0 0 0 0 0 0 0 0 0 0 0 0 0 0 0 0 0 0 0 0 0 
0 0 0 0 0 0 0 0 0 0 0 0 0 0 0 0 0 0 0 0 0 0 0 0 
0 0 0 0 0 0 0 0 0 0 0 0 0 0 0 0 0 0 0 0 0 0 0 0 

0 0 0 0 0 0 0 0 0 0 0 0 0 0 0 0 0 0 0 0 0 0 0 0 
0 0 0 0 0 0 0 0 0 0 0 0 0 0 0 0 0 0 0 0 0 0 0 0 
0 0 0 0 0 0 0 0 0 0 0 0 0 0 0 0 0 0 0 0 0 0 0 0 
0 0 0 0 0 0 0 0 0 0 0 0 0 0 0 0 0 0 0 0 0 0 0 0 
0 0 0 0 0 0 71 53 72 95 70 96 95 70 96 95 70 96 83 61 84 0 0 0 
0 0 0 116 86 116 151 112 152 150 111 151 150 111 151 108 79 108 0 0 0 0 0 0 
0 0 0 0 0 0 0 0 0 0 0 0 0 0 0 0 0 0 0 0 0 0 0 0 
0 0 0 0 0 0 0 0 0 0 0 0 0 0 0 0 0 0 0 0 0 0 0 0 
0 0 0 0 0 0 0 0 0 0 0 0 0 0 0 0 0 0 0 0 0 0 0 0 
0 0 0 0 0 0 0 0 0 0 0 0 0 0 0 0 0 0 0 0 0 0 0 0 

0 0 0 0 0 0 0 0 0 0 0 0 0 0 0 0 0 0 0 0 0 0 0 0 
0 0 0 0 0 0 0 0 0 0 0 0 0 0 0 0 0 0 0 0 0 0 0 0 
0 0 0 0 0 0 0 0 0 0 0 0 0 0 0 0 0 0 0 0 0 0 0 0 
0 0 0 0 0 0 0 0 0 0 0 0 0 0 0 0 0 0 0 0 0 0 0 0 
0 0 0 0 0 0 71 53 72 95 70 96 95 70 96 95 70 96 83 61 84 0 0 0 
0 0 0 116 86 116 151 112 152 150 111 151 150 111 151 108 79 108 0 0 0 0 0 0 
0 0 0 0 0 0 0 0 0 0 0 0 0 0 0 0 0 0 0 0 0 0 0 0 
0 0 0 0 0 0 0 0 0 0 0 0 0 0 0 0 0 0 0 0 0 0 0 0 
0 0 0 0 0 0 0 0 0 0 0 0 0 0 0 0 0 0 0 0 0 0 0 0 
0 0 0 0 0 0 0 0 0 0 0 0 0 0 0 0 0 0 0 0 0 0 0 0 

0 0 0 0 0 0 0 0 0 0 0 0 0 0 0 0 0 0 0 0 0 0 0 0 
0 0 0 0 0 0 0 0 0 0 0 0 0 0 0 0 0 0 0 0 0 0 0 0 
0 0 0 0 0 0 0 0 0 0 0 0 0 0 0 0 0 0 0 0 0 0 0 0 
0 0 0 0 0 0 0 0 0 0 0 0 0 0 0 0 0 0 0 0 0 0 0 0 
0 0 0 0 0 0 70 52 71 95 70 96 95 70 96 95 70 96 83 61 84 0 0 0 
0 0 0 116 86 116 151 112 152 150 111 151 150 111 151 105 78 106 0 0 0 0 0 0 
0 0 0 0 0 0 0 0 0 0 0 0 0 0 0 0 0 0 0 0 0 0 0 0 
0 0 0 0 0 0 0 0 0 0 0 0 0 0 0 0 0 0 0 0 0 0 0 0 
0 0 0 0 0 0 0 0 0 0 0 0 0 0 0 0 0 0 0 0 0 0 0 0 
0 0 0 0 0 0 0 0 0 0 0 0 0 0 0 0 0 0 0 0 0 0 0 0 

0 0 0 0 0 0 0 0 0 0 0 0 0 0 0 0 0 0 0 0 0 0 0 0 
0 0 0 0 0 0 0 0 0 0 0 0 0 0 0 0 0 0 0 0 0 0 0 0 
0 0 0 0 0 0 0 0 0 0 0 0 0 0 0 0 0 0 0 0 0 0 0 0 
0 0 0 0 0 0 0 0 0 0 0 0 0 0 0 0 0 0 0 0 0 0 0 0 
0 0 0 0 0 0 4 3 4 74 55 76 95 70 96 95 70 96 83 61 84 0 0 0 
0 0 0 116 86 116 151 112 152 152 112 153 134 99 135 10 7 10 0 0 0 0 0 0 
0 0 0 0 0 0 0 0 0 0 0 0 0 0 0 0 0 0 0 0 0 0 0 0 
0 0 0 0 0 0 0 0 0 0 0 0 0 0 0 0 0 0 0 0 0 0 0 0 
0 0 0 0 0 0 0 0 0 0 0 0 0 0 0 0 0 0 0 0 0 0 0 0 
0 0 0 0 0 0 0 0 0 0 0 0 0 0 0 0 0 0 0 0 0 0 0 0 

0 0 0 0 0 0 0 0 0 0 0 0 0 0 0 0 0 0 0 0 0 0 0 0 
0 0 0 0 0 0 0 0 0 0 0 0 0 0 0 0 0 0 0 0 0 0 0 0 
0 0 0 0 0 0 0 0 0 0 0 0 0 0 0 0 0 0 0 0 0 0 0 0 
0 0 0 0 0 0 0 0 0 0 0 0 0 0 0 0 0 0 0 0 0 0 0 0 
0 0 0 0 0 0 0 0 0 3 2 3 80 59 81 96 71 97 83 61 84 0 0 0 
0 0 0 116 86 116 153 113 154 128 95 129 0 0 0 0 0 0 0 0 0 0 0 0 
0 0 0 0 0 0 0 0 0 0 0 0 0 0 0 0 0 0 0 0 0 0 0 0 
0 0 0 0 0 0 0 0 0 0 0 0 0 0 0 0 0 0 0 0 0 0 0 0 
0 0 0 0 0 0 0 0 0 0 0 0 0 0 0 0 0 0 0 0 0 0 0 0 
0 0 0 0 0 0 0 0 0 0 0 0 0 0 0 0 0 0 0 0 0 0 0 0 

0 0 0 0 0 0 0 0 0 0 0 0 0 0 0 0 0 0 0 0 0 0 0 0 
0 0 0 0 0 0 0 0 0 0 0 0 0 0 0 0 0 0 0 0 0 0 0 0 
0 0 0 0 0 0 0 0 0 0 0 0 0 0 0 0 0 0 0 0 0 0 0 0 
0 0 0 0 0 0 0 0 0 0 0 0 0 0 0 0 0 0 0 0 0 0 0 0 
0 0 0 0 0 0 0 0 0 0 0 0 1 0 1 77 56 77 83 61 84 0 0 0 
0 0 0 116 86 116 134 99 134 0 0 0 0 0 0 0 0 0 0 0 0 0 0 0 
0 0 0 0 0 0 0 0 0 0 0 0 0 0 0 0 0 0 0 0 0 0 0 0 
0 0 0 0 0 0 0 0 0 0 0 0 0 0 0 0 0 0 0 0 0 0 0 0 
0 0 0 0 0 0 0 0 0 0 0 0 0 0 0 0 0 0 0 0 0 0 0 0 
0 0 0 0 0 0 0 0 0 0 0 0 0 0 0 0 0 0 0 0 0 0 0 0 

0 0 0 0 0 0 0 0 0 0 0 0 0 0 0 0 0 0 0 0 0 0 0 0 
0 0 0 0 0 0 0 0 0 0 0 0 0 0 0 0 0 0 0 0 0 0 0 0 
0 0 0 0 0 0 0 0 0 0 0 0 0 0 0 0 0 0 0 0 0 0 0 0 
0 0 0 0 0 0 0 0 0 0 0 0 0 0 0 0 0 0 0 0 0 0 0 0 
0 0 0 0 0 0 0 0 0 0 0 0 0 0 0 4 3 4 53 39 53 0 0 0 
0 0 0 72 53 72 9 7 9 0 0 0 0 0 0 0 0 0 0 0 0 0 0 0 
0 0 0 0 0 0 0 0 0 0 0 0 0 0 0 0 0 0 0 0 0 0 0 0 
0 0 0 0 0 0 0 0 0 0 0 0 0 0 0 0 0 0 0 0 0 0 0 0 
0 0 0 0 0 0 0 0 0 0 0 0 0 0 0 0 0 0 0 0 0 0 0 0 
0 0 0 0 0 0 0 0 0 0 0 0 0 0 0 0 0 0 0 0 0 0 0 0 

0 0 0 0 0 0 0 0 0 0 0 0 0 0 0 0 0 0 0 0 0 0 0 0 
0 0 0 0 0 0 0 0 0 0 0 0 0 0 0 0 0 0 0 0 0 0 0 0 
0 0 0 0 0 0 0 0 0 0 0 0 0 0 0 0 0 0 0 0 0 0 0 0 
0 0 0 0 0 0 0 0 0 0 0 0 0 0 0 0 0 0 0 0 0 0 0 0 
0 0 0 0 0 0 0 0 0 0 0 0 0 0 0 0 0 0 0 0 0 0 0 0 
0 0 0 0 0 0 0 0 0 0 0 0 0 0 0 0 0 0 0 0 0 0 0 0 
0 0 0 0 0 0 0 0 0 0 0 0 0 0 0 0 0 0 0 0 0 0 0 0 
0 0 0 0 0 0 0 0 0 0 0 0 0 0 0 0 0 0 0 0 0 0 0 0 
0 0 0 0 0 0 0 0 0 0 0 0 0 0 0 0 0 0 0 0 0 0 0 0 
0 0 0 0 0 0 0 0 0 0 0 0 0 0 0 0 0 0 0 0 0 0 0 0 

0 0 0 0 0 0 0 0 0 0 0 0 0 0 0 0 0 0 0 0 0 0 0 0 
0 0 0 0 0 0 0 0 0 0 0 0 0 0 0 0 0 0 0 0 0 0 0 0 
0 0 0 0 0 0 0 0 0 0 0 0 0 0 0 0 0 0 0 0 0 0 0 0 
0 0 0 0 0 0 0 0 0 0 0 0 0 0 0 0 0 0 0 0 0 0 0 0 
0 0 0 0 0 0 0 0 0 0 0 0 0 0 0 0 0 0 0 0 0 0 0 0 
0 0 0 0 0 0 0 0 0 0 0 0 0 0 0 0 0 0 0 0 0 0 0 0 
0 0 0 0 0 0 0 0 0 0 0 0 0 0 0 0 0 0 0 0 0 0 0 0 
0 0 0 0 0 0 0 0 0 0 0 0 0 0 0 0 0 0 0 0 0 0 0 0 
0 0 0 0 0 0 0 0 0 0 0 0 0 0 0 0 0 0 0 0 0 0 0 0 
0 0 0 0 0 0 0 0 0 0 0 0 0 0 0 0 0 0 0 0 0 0 0 0 

0 0 0 0 0 0 0 0 0 0 0 0 0 0 0 0 0 0 0 0 0 0 0 0 
0 0 0 0 0 0 0 0 0 0 0 0 0 0 0 0 0 0 0 0 0 0 0 0 
0 0 0 0 0 0 0 0 0 0 0 0 0 0 0 0 0 0 0 0 0 0 0 0 
0 0 0 0 0 0 0 0 0 0 0 0 0 0 0 0 0 0 0 0 0 0 0 0 
0 0 0 0 0 0 0 0 0 0 0 0 0 0 0 0 0 0 0 0 0 0 0 0 
0 0 0 0 0 0 0 0 0 0 0 0 0 0 0 0 0 0 0 0 0 0 0 0 
0 0 0 0 0 0 0 0 0 0 0 0 0 0 0 0 0 0 0 0 0 0 0 0 
0 0 0 0 0 0 0 0 0 0 0 0 0 0 0 0 0 0 0 0 0 0 0 0 
0 0 0 0 0 0 0 0 0 0 0 0 0 0 0 0 0 0 0 0 0 0 0 0 
0 0 0 0 0 0 0 0 0 0 0 0 0 0 0 0 0 0 0 0 0 0 0 0 

0 0 0 0 0 0 0 0 0 0 0 0 0 0 0 0 0 0 0 0 0 0 0 0 
0 0 0 0 0 0 0 0 0 0 0 0 0 0 0 0 0 0 0 0 0 0 0 0 
0 0 0 0 0 0 0 0 0 0 0 0 0 0 0 0 0 0 0 0 0 0 0 0 
0 0 0 0 0 0 0 0 0 0 0 0 0 0 0 0 0 0 0 0 0 0 0 0 
0 0 0 0 0 0 0 0 0 0 0 0 0 0 0 0 0 0 0 0 0 0 0 0 
0 0 0 0 0 0 0 0 0 0 0 0 0 0 0 0 0 0 0 0 0 0 0 0 
0 0 0 0 0 0 0 0 0 0 0 0 0 0 0 0 0 0 0 0 0 0 0 0 
0 0 0 0 0 0 0 0 0 0 0 0 0 0 0 0 0 0 0 0 0 0 0 0 
0 0 0 0 0 0 0 0 0 0 0 0 0 0 0 0 0 0 0 0 0 0 0 0 
0 0 0 0 0 0 0 0 0 0 0 0 0 0 0 0 0 0 0 0 0 0 0 0 

0 0 0 0 0 0 0 0 0 0 0 0 0 0 0 0 0 0 0 0 0 0 0 0 
0 0 0 0 0 0 0 0 0 0 0 0 0 0 0 0 0 0 0 0 0 0 0 0 
0 0 0 0 0 0 0 0 0 0 0 0 0 0 0 0 0 0 0 0 0 0 0 0 
0 0 0 0 0 0 0 0 0 0 0 0 0 0 0 0 0 0 0 0 0 0 0 0 
0 0 0 0 0 0 0 0 0 0 0 0 0 0 0 0 0 0 0 0 0 0 0 0 
0 0 0 0 0 0 0 0 0 0 0 0 0 0 0 0 0 0 0 0 0 0 0 0 
0 0 0 0 0 0 0 0 0 0 0 0 0 0 0 0 0 0 0 0 0 0 0 0 
0 0 0 0 0 0 0 0 0 0 0 0 0 0 0 0 0 0 0 0 0 0 0 0 
0 0 0 0 0 0 0 0 0 0 0 0 0 0 0 0 0 0 0 0 0 0 0 0 
0 0 0 0 0 0 0 0 0 0 0 0 0 0 0 0 0 0 0 0 0 0 0 0 

0 0 0 0 0 0 0 0 0 0 0 0 0 0 0 0 0 0 0 0 0 0 0 0 
0 0 0 0 0 0 0 0 0 0 0 0 0 0 0 0 0 0 0 0 0 0 0 0 
0 0 0 0 0 0 0 0 0 0 0 0 0 0 0 0 0 0 0 0 0 0 0 0 
0 0 0 0 0 0 0 0 0 0 0 0 0 0 0 0 0 0 0 0 0 0 0 0 
0 0 0 0 0 0 0 0 0 0 0 0 0 0 0 0 0 0 0 0 0 0 0 0 
0 0 0 0 0 0 0 0 0 0 0 0 0 0 0 0 0 0 0 0 0 0 0 0 
0 0 0 0 0 0 0 0 0 0 0 0 0 0 0 0 0 0 0 0 0 0 0 0 
0 0 0 0 0 0 0 0 0 0 0 0 0 0 0 0 0 0 0 0 0 0 0 0 
0 0 0 0 0 0 0 0 0 0 0 0 0 0 0 0 0 0 0 0 0 0 0 0 
0 0 0 0 0 0 0 0 0 0 0 0 0 0 0 0 0 0 0 0 0 0 0 0 

0 0 0 0 0 0 0 0 0 0 0 0 0 0 0 0 0 0 0 0 0 0 0 0 
0 0 0 0 0 0 0 0 0 0 0 0 0 0 0 0 0 0 0 0 0 0 0 0 
0 0 0 0 0 0 0 0 0 0 0 0 0 0 0 0 0 0 0 0 0 0 0 0 
0 0 0 0 0 0 0 0 0 0 0 0 0 0 0 0 0 0 0 0 0 0 0 0 
0 0 0 0 0 0 0 0 0 0 0 0 0 0 0 0 0 0 0 0 0 0 0 0 
0 0 0 0 0 0 0 0 0 0 0 0 0 0 0 0 0 0 0 0 0 0 0 0 
0 0 0 0 0 0 0 0 0 0 0 0 0 0 0 0 0 0 0 0 0 0 0 0 
0 0 0 0 0 0 0 0 0 0 0 0 0 0 0 0 0 0 0 0 0 0 0 0 
0 0 0 0 0 0 0 0 0 0 0 0 0 0 0 0 0 0 0 0 0 0 0 0 
0 0 0 0 0 0 0 0 0 0 0 0 0 0 0 0 0 0 0 0 0 0 0 0 

